<?xml version="1.0" encoding="UTF-8" standalone="no"?>
<svg
   xmlns:dc="http://purl.org/dc/elements/1.1/"
   xmlns:cc="http://creativecommons.org/ns#"
   xmlns:rdf="http://www.w3.org/1999/02/22-rdf-syntax-ns#"
   xmlns:svg="http://www.w3.org/2000/svg"
   xmlns="http://www.w3.org/2000/svg"
   xmlns:xlink="http://www.w3.org/1999/xlink"
   xmlns:sodipodi="http://sodipodi.sourceforge.net/DTD/sodipodi-0.dtd"
   xmlns:inkscape="http://www.inkscape.org/namespaces/inkscape"
   inkscape:version="1.0.1 (3bc2e813f5, 2020-09-07)"
   sodipodi:docname="system-reboot.svg"
   id="svg6"
   version="1.1"
   viewBox="0 0 32 32">
  <metadata
     id="metadata10">
    <rdf:RDF>
      <cc:Work
         rdf:about="">
        <dc:format>image/svg+xml</dc:format>
        <dc:type
           rdf:resource="http://purl.org/dc/dcmitype/StillImage" />
      </cc:Work>
    </rdf:RDF>
  </metadata>
  <sodipodi:namedview
     inkscape:document-rotation="0"
     inkscape:current-layer="svg6"
     inkscape:window-maximized="1"
     inkscape:window-y="0"
     inkscape:window-x="0"
     inkscape:cy="15.412793"
     inkscape:cx="26.002227"
     inkscape:zoom="10.028541"
     showgrid="false"
     id="namedview8"
     inkscape:window-height="1016"
     inkscape:window-width="1920"
     inkscape:pageshadow="2"
     inkscape:pageopacity="0"
     guidetolerance="10"
     gridtolerance="10"
     objecttolerance="10"
     borderopacity="1"
     bordercolor="#666666"
     pagecolor="#ffffff" />
  <defs
     id="defs3051">
    <style
       id="current-color-scheme"
       type="text/css">
      .ColorScheme-Text {
        color:#eff0f1;
      }
      </style>
    <linearGradient
       inkscape:collect="always"
       xlink:href="#linearGradient1065"
       id="linearGradient1076"
       x1="-133.49883"
       y1="15.311523"
       x2="-117.5962"
       y2="15.311523"
       gradientUnits="userSpaceOnUse"
       gradientTransform="matrix(0.80590253,0,0,0.80590253,117.12636,2.454423)" />
    <linearGradient
       inkscape:collect="always"
       id="linearGradient1065">
      <stop
         style="stop-color:#008080;stop-opacity:1"
         offset="0"
         id="stop1061" />
      <stop
         style="stop-color:#00e5e5;stop-opacity:1"
         offset="1"
         id="stop1063" />
    </linearGradient>
    <linearGradient
       inkscape:collect="always"
       xlink:href="#linearGradient1065"
       id="linearGradient1098"
       x1="3"
       y1="15.999999"
       x2="29"
       y2="15.999999"
       gradientUnits="userSpaceOnUse"
       gradientTransform="matrix(0.92307695,0,0,0.92307695,1.230767,1.230767)" />
  </defs>
  <g
     id="g887" />
  <path
     style="color:#000000;overflow:visible;opacity:0;fill:#0000ff;fill-opacity:1;stroke-width:1.06667"
     id="path940"
     overflow="visible"
     d="m 60.626965,-17.595446 c -8.82859,0 -16,7.171413 -16,15.9999996 0,8.828587 7.17141,16.0000004 16,16.0000004 8.82752,0 16,-7.1714134 16,-16.0000004 0,-8.8275196 -7.17141,-15.9999996 -16,-15.9999996 z"
     inkscape:connector-curvature="0" />
  <path
     d="m 15.947356,10.870463 a 0.69600426,0.69600426 0 0 1 0.493839,0.204297 l 5.556136,5.556161 a 1.2223493,1.2223493 0 0 1 -1.72865,1.728661 l -4.321325,-4.321653 -4.321271,4.321653 a 1.2247305,1.2247305 0 0 1 -1.728659,0 v 0 a 1.2222852,1.2222852 0 0 1 0,-1.728661 l 5.556154,-5.556162 a 0.69600426,0.69600426 0 0 1 0.493776,-0.204296 z M 21.133,18.018739 a 0.52383666,0.52383666 0 0 0 0.370525,-0.894014 L 15.947356,11.56857 10.39119,17.124725 a 0.52388829,0.52388829 0 1 0 0.741066,0.740704 l 4.568215,-4.568199 a 0.35935195,0.35935195 0 0 1 0.493804,0 l 4.568191,4.56855 A 0.52383666,0.52383666 0 0 0 21.133,18.018739 Z"
     id="path4-3-6"
     style="fill:url(#linearGradient1076);fill-opacity:1;stroke-width:0.349227" />
  <path
     d="M 24.485261,7.514741 C 22.218841,5.248189 19.205231,4 16,4 12.79477,4 9.78115,5.248189 7.51474,7.514741 5.24819,9.7812983 4,12.794776 4,16 4,19.205224 5.24819,22.218701 7.51474,24.485254 9.78115,26.75166 12.79477,28 16,28 c 3.205231,0 6.218841,-1.24834 8.485261,-3.514746 2.266395,-2.266553 3.51474,-5.28003 3.51474,-8.485253 0,-3.205225 -1.248345,-6.2188497 -3.51474,-8.48526 z m -0.67061,16.299909 c -2.08726,2.087402 -4.8627,3.237159 -7.814651,3.237159 -2.952104,0 -5.7274,-1.149757 -7.814795,-3.237159 -2.087405,-2.087257 -3.23686,-4.862696 -3.23686,-7.814649 0,-2.9521 1.149455,-5.727393 3.23686,-7.814794 C 10.2726,6.0978 13.047896,4.948343 16,4.948343 c 2.951951,0 5.727391,1.149457 7.814651,3.236864 2.087395,2.0874 3.237005,4.862694 3.237005,7.814794 0,2.951953 -1.14961,5.727392 -3.237005,7.814649 z m 0,0"
     id="path2-36-9127"
     style="fill:url(#linearGradient1098);fill-opacity:1;stroke-width:0.0375" />
</svg>
