<?xml version="1.0" encoding="UTF-8" standalone="no"?>
<svg
   xmlns:dc="http://purl.org/dc/elements/1.1/"
   xmlns:cc="http://creativecommons.org/ns#"
   xmlns:rdf="http://www.w3.org/1999/02/22-rdf-syntax-ns#"
   xmlns:svg="http://www.w3.org/2000/svg"
   xmlns="http://www.w3.org/2000/svg"
   xmlns:xlink="http://www.w3.org/1999/xlink"
   xmlns:sodipodi="http://sodipodi.sourceforge.net/DTD/sodipodi-0.dtd"
   xmlns:inkscape="http://www.inkscape.org/namespaces/inkscape"
   inkscape:version="1.0.1 (3bc2e813f5, 2020-09-07)"
   sodipodi:docname="system-log-out.svg"
   id="svg6"
   version="1.1"
   viewBox="0 0 32 32">
  <metadata
     id="metadata10">
    <rdf:RDF>
      <cc:Work
         rdf:about="">
        <dc:format>image/svg+xml</dc:format>
        <dc:type
           rdf:resource="http://purl.org/dc/dcmitype/StillImage" />
      </cc:Work>
    </rdf:RDF>
  </metadata>
  <sodipodi:namedview
     inkscape:document-rotation="0"
     inkscape:lockguides="true"
     inkscape:current-layer="svg6"
     inkscape:window-maximized="1"
     inkscape:window-y="0"
     inkscape:window-x="0"
     inkscape:cy="9.6853609"
     inkscape:cx="16.719583"
     inkscape:zoom="7.0912495"
     showgrid="true"
     id="namedview8"
     inkscape:window-height="1016"
     inkscape:window-width="1920"
     inkscape:pageshadow="2"
     inkscape:pageopacity="0"
     guidetolerance="10"
     gridtolerance="10"
     objecttolerance="10"
     borderopacity="1"
     bordercolor="#666666"
     pagecolor="#ffffff">
    <inkscape:grid
       type="xygrid"
       id="grid883" />
  </sodipodi:namedview>
  <defs
     id="defs3051">
    <style
       id="current-color-scheme"
       type="text/css">
      .ColorScheme-Text {
        color:#eff0f1;
      }
      </style>
    <linearGradient
       inkscape:collect="always"
       xlink:href="#linearGradient1065"
       id="linearGradient1068"
       x1="11.811"
       y1="15.698814"
       x2="21.548079"
       y2="15.698814"
       gradientUnits="userSpaceOnUse"
       gradientTransform="matrix(0.77217213,0,0,0.77215956,3.105763,3.9687852)" />
    <linearGradient
       inkscape:collect="always"
       id="linearGradient1065">
      <stop
         style="stop-color:#008080;stop-opacity:1"
         offset="0"
         id="stop1061" />
      <stop
         style="stop-color:#00e5e5;stop-opacity:1"
         offset="1"
         id="stop1063" />
    </linearGradient>
    <linearGradient
       inkscape:collect="always"
       xlink:href="#linearGradient1065"
       id="linearGradient1089"
       x1="3"
       y1="15.999999"
       x2="28.999998"
       y2="15.999999"
       gradientUnits="userSpaceOnUse"
       gradientTransform="matrix(0.92307695,0,0,0.92307695,1.2307693,1.2307693)" />
  </defs>
  <path
     style="color:#000000;overflow:visible;opacity:0;fill:#ffff00;fill-opacity:1;stroke-width:0.800012"
     id="path951"
     overflow="visible"
     d="M 16,4 C 9.379271,4 4,9.379274 4,16 4,22.620721 9.379271,28 16,28 22.620729,28 28,22.620721 28,16 28,9.379274 22.620729,4 16,4 Z"
     inkscape:connector-curvature="0" />
  <path
     d="m 19.744583,16.090787 a 0.66687363,0.66686266 0 0 1 -0.195729,0.473125 l -5.323637,5.323528 a 1.1711874,1.1711682 0 0 1 -1.656283,-1.656277 l 4.140755,-4.140376 -4.140755,-4.140374 a 1.17347,1.1734515 0 0 1 0,-1.656277 v 0 a 1.1711273,1.1711074 0 0 1 1.656283,0 l 5.323637,5.323523 a 0.66687363,0.66686266 0 0 1 0.195729,0.473128 z M 12.8955,21.059292 a 0.50191193,0.50190381 0 0 0 0.856584,0.355018 l 5.323607,-5.323523 -5.323607,-5.323527 a 0.50195468,0.5019465 0 1 0 -0.709692,0.710021 l 4.377,4.376942 a 0.34431143,0.34430593 0 0 1 0,0.473125 l -4.37734,4.376926 A 0.50191193,0.50190381 0 0 0 12.8955,21.059292 Z"
     id="path4-3"
     style="fill:url(#linearGradient1068);fill-opacity:1;stroke-width:0.334593" />
  <path
     d="M 24.48525,7.514743 C 22.218859,5.2481845 19.205222,4 16.000001,4 12.794778,4 9.781142,5.2481845 7.5147426,7.514743 5.2481845,9.781313 4,12.794778 4,16.000001 4,19.205221 5.2481845,22.218706 7.5147426,24.485248 9.781142,26.751665 12.794778,28 16.000001,28 19.205222,28 22.218859,26.751665 24.48525,24.485248 26.751661,22.218706 28,19.205221 28,16.000001 28,12.794778 26.751661,9.781141 24.48525,7.514743 Z m -0.670604,16.299906 c -2.087264,2.087407 -4.862693,3.237153 -7.814645,3.237153 -2.952103,0 -5.727383,-1.149746 -7.814803,-3.237153 -2.0874016,-2.087262 -3.236865,-4.862688 -3.236865,-7.814648 0,-2.952101 1.1494634,-5.727383 3.236865,-7.814803 2.08742,-2.0874016 4.8627,-3.236865 7.814803,-3.236865 2.951952,0 5.727381,1.1494634 7.814645,3.236865 2.087402,2.08742 3.237025,4.862702 3.237025,7.814803 0,2.95196 -1.149623,5.727386 -3.237025,7.814648 z m 0,0"
     id="path2-36"
     style="fill:url(#linearGradient1089);fill-opacity:1;stroke-width:0.0374984" />
</svg>
