<?xml version="1.0" encoding="UTF-8" standalone="no"?>
<svg
   xmlns:dc="http://purl.org/dc/elements/1.1/"
   xmlns:cc="http://creativecommons.org/ns#"
   xmlns:rdf="http://www.w3.org/1999/02/22-rdf-syntax-ns#"
   xmlns:svg="http://www.w3.org/2000/svg"
   xmlns="http://www.w3.org/2000/svg"
   xmlns:xlink="http://www.w3.org/1999/xlink"
   xmlns:sodipodi="http://sodipodi.sourceforge.net/DTD/sodipodi-0.dtd"
   xmlns:inkscape="http://www.inkscape.org/namespaces/inkscape"
   width="32"
   height="32"
   version="1.1"
   id="svg12"
   sodipodi:docname="applications.svg"
   inkscape:version="1.0.2 (e86c870879, 2021-01-15)">
  <metadata
     id="metadata18">
    <rdf:RDF>
      <cc:Work
         rdf:about="">
        <dc:format>image/svg+xml</dc:format>
        <dc:type
           rdf:resource="http://purl.org/dc/dcmitype/StillImage" />
      </cc:Work>
    </rdf:RDF>
  </metadata>
  <defs
     id="defs16">
    <linearGradient
       inkscape:collect="always"
       id="linearGradient861">
      <stop
         style="stop-color:#008080;stop-opacity:1"
         offset="0"
         id="stop857" />
      <stop
         style="stop-color:#00e5e5;stop-opacity:1"
         offset="1"
         id="stop859" />
    </linearGradient>
    <linearGradient
       inkscape:collect="always"
       xlink:href="#linearGradient861"
       id="linearGradient862"
       x1="3"
       y1="15.999999"
       x2="28.999998"
       y2="15.999999"
       gradientUnits="userSpaceOnUse" />
    <linearGradient
       inkscape:collect="always"
       xlink:href="#linearGradient861"
       id="linearGradient863"
       x1="10.352"
       y1="12.302032"
       x2="15.215747"
       y2="12.302032"
       gradientUnits="userSpaceOnUse" />
    <linearGradient
       inkscape:collect="always"
       xlink:href="#linearGradient861"
       id="linearGradient887"
       x1="16.842926"
       y1="12.2305"
       x2="21.706676"
       y2="12.2305"
       gradientUnits="userSpaceOnUse" />
    <linearGradient
       inkscape:collect="always"
       xlink:href="#linearGradient861"
       id="linearGradient895"
       x1="10.447203"
       y1="19.923992"
       x2="15.310949"
       y2="19.923992"
       gradientUnits="userSpaceOnUse" />
    <linearGradient
       inkscape:collect="always"
       xlink:href="#linearGradient861"
       id="linearGradient903"
       x1="17.032539"
       y1="19.803089"
       x2="21.896284"
       y2="19.803089"
       gradientUnits="userSpaceOnUse" />
  </defs>
  <sodipodi:namedview
     pagecolor="#ffffff"
     bordercolor="#666666"
     borderopacity="1"
     objecttolerance="10"
     gridtolerance="10"
     guidetolerance="10"
     inkscape:pageopacity="0"
     inkscape:pageshadow="2"
     inkscape:window-width="1920"
     inkscape:window-height="1007"
     id="namedview14"
     showgrid="false"
     inkscape:zoom="6.9384855"
     inkscape:cx="49.838363"
     inkscape:cy="11.906785"
     inkscape:window-x="0"
     inkscape:window-y="0"
     inkscape:window-maximized="1"
     inkscape:current-layer="svg12"
     inkscape:document-rotation="0">
    <inkscape:grid
       type="xygrid"
       id="grid942"
       originx="0"
       originy="0" />
  </sodipodi:namedview>
  <g
     id="applications-other">
    <g
       id="g866">
      <path
         style="clip-rule:evenodd;fill:#ffffc1;fill-opacity:0;fill-rule:evenodd;stroke-width:1.00213;stroke-linejoin:round;stroke-miterlimit:1.41421"
         d="M 0,0 V 32 H 32 V 0 Z"
         id="rect817"
         inkscape:connector-curvature="0" />
      <path
         d="M 14.671901,9.872532 H 10.89585 c -0.29924,0 -0.54385,0.244611 -0.54385,0.54385 v 3.771296 c 0,0.299238 0.24461,0.543854 0.54385,0.543854 h 3.776051 c 0.29923,0 0.543846,-0.244616 0.543846,-0.543854 v -3.771296 c 0,-0.299239 -0.244616,-0.54385 -0.543846,-0.54385 z m 0.353857,4.315146 c 0,0.194741 -0.159117,0.353865 -0.353857,0.353865 H 10.89585 c -0.194741,0 -0.35386,-0.159124 -0.35386,-0.353865 v -3.771296 c 0,-0.194741 0.159119,-0.353861 0.35386,-0.353861 h 3.776051 c 0.19474,0 0.353857,0.15912 0.353857,0.353861 z"
         id="path4"
         style="fill:url(#linearGradient863);fill-opacity:1;stroke-width:0.0237489" />
      <path
         d="m 14.049686,10.739359 h -2.531623 c -0.168616,0 -0.306359,0.137751 -0.306359,0.306363 v 2.517372 c 0,0.168606 0.137743,0.303981 0.306359,0.303981 h 2.531623 c 0.168612,0 0.306359,-0.137744 0.306359,-0.303981 v -2.517372 c 0,-0.170987 -0.137747,-0.306363 -0.306359,-0.306363 z m -1.162228,1.532364 c -0.01636,-0.0296 -0.04273,-0.088 -0.01636,-0.0296 l 0.0077,0.01549 c 0,0 0.06074,-0.01118 0,0 l -0.01627,0.0035 c -0.06307,0.01172 0,0 0,0 l 0.02556,0.01104 c 0.05885,0.02548 0.02721,-0.08588 0.0077,-0.02473 z"
         id="path6"
         style="fill:#00d5d5;fill-opacity:1;stroke-width:0.0237489"
         sodipodi:nodetypes="ssssssssscscsscssc" />
      <path
         d="m 21.352434,17.373589 h -3.776058 c -0.299232,0 -0.543836,0.244609 -0.543836,0.543841 v 3.771305 c 0,0.299236 0.244604,0.543854 0.543836,0.543854 h 3.776058 c 0.299238,0 0.54385,-0.244618 0.54385,-0.543854 V 17.91743 c 0,-0.299232 -0.244612,-0.543841 -0.54385,-0.543841 z m 0.35386,4.315146 c 0,0.19474 -0.159115,0.353864 -0.35386,0.353864 h -3.776058 c -0.194737,0 -0.353847,-0.159124 -0.353847,-0.353864 V 17.91743 c 0,-0.194737 0.15911,-0.353852 0.353847,-0.353852 h 3.776058 c 0.194745,0 0.35386,0.159115 0.35386,0.353852 z"
         id="path4-6"
         style="fill:url(#linearGradient903);fill-opacity:1;stroke-width:0.0237488" />
      <path
         d="M 20.730221,18.240417 H 18.1986 c -0.168615,0 -0.306361,0.137743 -0.306361,0.306359 v 2.517373 c 0,0.168613 0.137746,0.303982 0.306361,0.303982 h 2.531621 c 0.168619,0 0.306358,-0.137743 0.306358,-0.303982 v -2.517373 c 0,-0.170986 -0.137739,-0.306359 -0.306358,-0.306359 z m -1.184845,1.714549 c 0,0 -0.0018,0.01158 -0.0087,0.0038 l 0.0069,0.008 -0.02876,-0.01012 0.01248,-0.0029 -0.0011,-0.0044 -0.01128,0.0069 h -2.7e-5 z"
         id="path6-7"
         style="fill:#00d5d5;fill-opacity:1;stroke-width:0.0237488"
         sodipodi:nodetypes="sssssssssccccccccc" />
      <path
         d="m 14.767099,17.494492 h -3.776046 c -0.29924,0 -0.54385,0.244612 -0.54385,0.54385 v 3.771295 c 0,0.299243 0.24461,0.543855 0.54385,0.543855 h 3.776046 c 0.299244,0 0.54385,-0.244612 0.54385,-0.543855 v -3.771295 c 0,-0.299238 -0.244606,-0.54385 -0.54385,-0.54385 z m 0.35386,4.315145 c 0,0.194747 -0.159115,0.353865 -0.35386,0.353865 h -3.776046 c -0.194741,0 -0.353862,-0.159118 -0.353862,-0.353865 v -3.771295 c 0,-0.194742 0.159121,-0.35386 0.353862,-0.35386 h 3.776046 c 0.194744,0 0.35386,0.159118 0.35386,0.35386 z"
         id="path4-3"
         style="fill:url(#linearGradient895);fill-opacity:1;stroke-width:0.0237489" />
      <path
         d="m 14.144886,18.36133 h -2.531619 c -0.168616,0 -0.30636,0.137741 -0.30636,0.306359 v 2.517364 c 0,0.168619 0.137744,0.303982 0.30636,0.303982 h 2.531619 c 0.168619,0 0.306358,-0.137746 0.306358,-0.303982 v -2.517364 c 0,-0.170995 -0.137738,-0.306359 -0.306358,-0.306359 z m -1.204177,1.572522 -0.0029,0.01525 -0.0082,-0.01647 0.0082,0.01647 -0.01032,-0.0046 -0.0041,-0.002 0.0066,0.0052 c 0,0 -5.27e-4,-0.01472 0.003,-8.99e-4 z"
         id="path6-5"
         style="fill:#00d5d5;fill-opacity:1;stroke-width:0.0237489"
         sodipodi:nodetypes="sssssssssccccccccc" />
      <path
         d="m 21.16283,9.801 h -3.776051 c -0.299241,0 -0.543853,0.24461 -0.543853,0.543851 v 3.771299 c 0,0.299239 0.244612,0.54385 0.543853,0.54385 h 3.776051 c 0.299241,0 0.543847,-0.244611 0.543847,-0.54385 V 10.344851 C 21.706677,10.04561 21.462071,9.801 21.16283,9.801 Z m 0.353858,4.31515 c 0,0.194742 -0.159119,0.35386 -0.353858,0.35386 h -3.776051 c -0.194745,0 -0.353864,-0.159118 -0.353864,-0.35386 v -3.771299 c 0,-0.194742 0.159119,-0.353861 0.353864,-0.353861 h 3.776051 c 0.194739,0 0.353858,0.159119 0.353858,0.353861 z"
         id="path4-2"
         style="fill:url(#linearGradient887);fill-opacity:1;stroke-width:0.023749" />
      <path
         d="m 20.540615,10.667833 h -2.53162 c -0.168616,0 -0.30636,0.137732 -0.30636,0.306357 v 2.517369 c 0,0.168613 0.137744,0.30398 0.30636,0.30398 h 2.53162 c 0.168616,0 0.306357,-0.137742 0.306357,-0.30398 V 10.97419 c 0,-0.170987 -0.137741,-0.306357 -0.306357,-0.306357 z m -1.228043,1.501988 0.0038,-0.0018 -0.0084,0.0099 c 0,0 -0.0013,-0.01011 0.0096,-0.01093 l -0.0109,0.0011 -0.0019,-0.003 0.0019,0.003 v 0 z"
         id="path6-9"
         style="fill:#00d6d6;fill-opacity:1;stroke-width:0.023749"
         sodipodi:nodetypes="sssssssssccccccccc" />
      <path
         d="M 25.192358,6.807641 C 22.737085,4.352209 19.472326,3 16,3 12.527673,3 9.262915,4.352209 6.807641,6.807641 4.352209,9.263073 3,12.527673 3,16 c 0,3.472326 1.352209,6.736926 3.807641,9.192358 2.455274,2.455273 5.720032,3.807641 9.192359,3.807641 3.472326,0 6.737085,-1.352368 9.192358,-3.807641 2.455273,-2.455432 3.807641,-5.720032 3.807641,-9.192358 0,-3.472327 -1.352368,-6.737086 -3.807641,-9.192359 z M 24.465869,24.465869 C 22.204674,26.727221 19.197949,27.97279 16,27.97279 c -3.198108,0 -6.2046752,-1.245569 -8.466028,-3.506921 C 5.27262,22.204674 4.027368,19.197949 4.027368,16 4.027368,12.801892 5.27262,9.7953252 7.533972,7.533972 9.7953248,5.27262 12.801892,4.027368 16,4.027368 c 3.197949,0 6.204674,1.245252 8.465869,3.506604 2.261352,2.2613532 3.506762,5.26792 3.506762,8.466028 0,3.197949 -1.24541,6.204674 -3.506762,8.465869 z m 0,0"
         id="path2-36"
         style="fill:url(#linearGradient862);fill-opacity:1;stroke-width:0.0406249" />
    </g>
  </g>
  <g
     id="22-22-applications-other"
     transform="translate(32,9.9999997)">
    <path
       style="clip-rule:evenodd;fill:#ffffc1;fill-opacity:0;fill-rule:evenodd;stroke-width:0.688964;stroke-linejoin:round;stroke-miterlimit:1.41421"
       d="M 0,0 V 22 H 22 V 0 Z"
       id="rect817-5"
       inkscape:connector-curvature="0" />
    <path
       d="M 10.028471,6.705048 H 7.443329 C 7.238471,6.705048 7.071,6.872509 7.071,7.077378 v 2.5818803 c 0,0.204861 0.167471,0.3723287 0.372329,0.3723287 h 2.585142 c 0.204865,0 0.372325,-0.1674677 0.372325,-0.3723287 V 7.077378 c 0,-0.204869 -0.16746,-0.37233 -0.372325,-0.37233 z m 0.242258,2.9542103 c 0,0.133323 -0.1089,0.2422617 -0.242258,0.2422617 H 7.443329 c -0.133324,0 -0.242258,-0.1089387 -0.242258,-0.2422617 V 7.077378 c 0,-0.133325 0.108893,-0.242261 0.242258,-0.242261 h 2.585142 c 0.133322,0 0.242258,0.108892 0.242258,0.242261 z"
       id="path4-29"
       style="fill:#00d6d6;fill-opacity:1;stroke-width:0.0162584" />
    <path
       d="M 9.601931,7.298488 H 7.868742 C 7.753281,7.298488 7.659,7.392798 7.659,7.508223 v 1.7234343 c 0,0.115429 0.09429,0.208108 0.209742,0.208108 h 1.733189 c 0.115453,0 0.209734,-0.0943 0.209734,-0.208108 V 7.508223 c 0,-0.117088 -0.09431,-0.209735 -0.209734,-0.209735 z M 8.806253,8.3475633 c -0.0115,-0.02025 -0.02924,-0.06026 -0.0115,-0.02025 l 0.0052,0.01061 c 0,0 0.04158,-0.0075 0,0 l -0.01137,0.0023 c -0.0432,0.0079 0,0 0,0 l 0.01756,0.0074 c 0.04029,0.01745 0.01865,-0.05879 0.0052,-0.01693 z"
       id="path6-1"
       style="fill:#00d6d6;fill-opacity:1;stroke-width:0.0162584"
       sodipodi:nodetypes="ssssssssscscsscssc" />
    <path
       d="m 14.70147,11.840381 h -2.585148 c -0.204861,0 -0.372322,0.167463 -0.372322,0.372322 v 2.581892 c 0,0.204863 0.167461,0.372332 0.372322,0.372332 h 2.585148 c 0.204861,0 0.37233,-0.167469 0.37233,-0.372332 v -2.581892 c 0,-0.204859 -0.167469,-0.372322 -0.37233,-0.372322 z m 0.242258,2.954214 c 0,0.133322 -0.108892,0.242263 -0.242258,0.242263 h -2.585148 c -0.133319,0 -0.242245,-0.108939 -0.242245,-0.242263 v -2.581892 c 0,-0.133321 0.108887,-0.242252 0.242245,-0.242252 h 2.585148 c 0.133322,0 0.242258,0.108932 0.242258,0.242252 z"
       id="path4-6-2"
       style="fill:#00d6d6;fill-opacity:1;stroke-width:0.0162583" />
    <path
       d="m 14.275912,12.433825 h -1.733186 c -0.115449,0 -0.209726,0.0943 -0.209726,0.209738 v 1.723432 c 0,0.115436 0.0943,0.208111 0.209726,0.208111 h 1.733186 c 0.115462,0 0.209743,-0.0943 0.209743,-0.208111 v -1.723432 c 0,-0.117063 -0.0943,-0.209738 -0.209743,-0.209738 z m -0.811154,1.173806 c 0,0 -0.0013,0.0079 -0.0058,0.0026 l 0.004,0.0055 -0.01971,-0.007 0.0079,-0.0019 -0.0011,-0.003 -0.007,0.0047 h -1.5e-5 z"
       id="path6-7-7"
       style="fill:#00d6d6;fill-opacity:1;stroke-width:0.0162583"
       sodipodi:nodetypes="sssssssssccccccccc" />
    <path
       d="M 10.09347,11.923154 H 7.508337 c -0.204868,0 -0.372337,0.167464 -0.372337,0.372328 v 2.581886 c 0,0.204866 0.167469,0.372331 0.372337,0.372331 h 2.585133 c 0.204868,0 0.372332,-0.167465 0.372332,-0.372331 v -2.581886 c 0,-0.204864 -0.167464,-0.372329 -0.372332,-0.372328 z m 0.242258,2.954214 c 0,0.133327 -0.108897,0.242261 -0.242258,0.242261 H 7.508337 c -0.133323,0 -0.24226,-0.108934 -0.24226,-0.242261 v -2.581886 c 0,-0.133324 0.108896,-0.242258 0.24226,-0.242258 h 2.585133 c 0.133322,0 0.242258,0.108935 0.242258,0.242258 z"
       id="path4-3-0"
       style="fill:#00d6d6;fill-opacity:1;stroke-width:0.0162584" />
    <path
       d="M 9.666922,12.516603 H 7.933736 c -0.115445,0 -0.209736,0.0943 -0.209736,0.209738 v 1.723427 c 0,0.115444 0.09431,0.208111 0.209736,0.208111 h 1.733186 c 0.115466,0 0.209737,-0.09431 0.209737,-0.208111 v -1.723427 c 0,-0.11707 -0.09429,-0.209738 -0.209737,-0.209738 z m -0.824401,1.076574 -0.0014,0.01048 -0.0054,-0.01126 0.0054,0.01126 -0.0067,-0.0032 -0.0021,-0.0014 0.004,0.0036 c 0,0 -3.6e-4,-0.0101 0.0015,-6.15e-4 z"
       id="path6-5-9"
       style="fill:#00d6d6;fill-opacity:1;stroke-width:0.0162584"
       sodipodi:nodetypes="sssssssssccccccccc" />
    <path
       d="M 14.571474,6.656073 H 11.98633 c -0.20486,0 -0.37233,0.167468 -0.37233,0.372318 v 2.5818953 c 0,0.204864 0.16747,0.3723287 0.37233,0.3723287 h 2.585144 c 0.204859,0 0.372326,-0.1674647 0.372326,-0.3723287 V 7.028391 c 0,-0.20485 -0.167467,-0.372318 -0.372326,-0.372318 z m 0.242256,2.9542133 c 0,0.133323 -0.108897,0.242258 -0.242256,0.242258 H 11.98633 c -0.133322,0 -0.242258,-0.108935 -0.242258,-0.242258 V 7.028391 c 0,-0.133322 0.108899,-0.242258 0.242258,-0.242258 h 2.585144 c 0.133321,0 0.242256,0.1089 0.242256,0.242258 z"
       id="path4-2-3"
       style="fill:#00d6d6;fill-opacity:1;stroke-width:0.0162585" />
    <path
       d="M 14.145926,7.249519 H 12.41274 c -0.115457,0 -0.20974,0.0943 -0.20974,0.209735 v 1.7234283 c 0,0.115442 0.0943,0.20811 0.20974,0.20811 h 1.733186 c 0.115456,0 0.209731,-0.0943 0.209731,-0.20811 V 7.459254 c 0,-0.117083 -0.0943,-0.209735 -0.209731,-0.209735 z m -0.840739,1.0282833 0.0021,-0.0012 -0.0055,0.0067 c 0,0 -0.0012,-0.0068 0.0063,-0.0073 l -0.0068,7.83e-4 -0.0012,-0.0019 0.0012,0.0019 v 0 z"
       id="path6-9-6"
       style="fill:#00d6d6;fill-opacity:1;stroke-width:0.0162585"
       sodipodi:nodetypes="sssssssssccccccccc" />
    <path
       d="M 17.363939,4.6360606 C 15.664142,2.9361476 13.403915,2 11,2 8.5960838,2 6.3358592,2.9361476 4.6360596,4.6360606 2.9361466,6.3359806 2,8.5960821 2,11.000001 2,13.403919 2.9361466,15.664026 4.6360596,17.36394 6.3358592,19.063747 8.5960838,20 11,20 13.403915,20 15.664142,19.063747 17.363939,17.36394 19.06375,15.664026 20,13.403919 20,11.000001 20,8.5960821 19.06375,6.3358552 17.363939,4.6360606 Z M 16.661,16.761 C 15.095549,18.326552 13.213969,18.989 11,18.989 8.7859282,18.989 6.904555,18.326552 5.339,16.761 3.773454,15.195557 3.111,13.213966 3.111,11.000001 3.111,8.7859275 3.773454,6.904559 5.339,5.339 6.904555,3.773455 8.7859282,3.0110003 11,3.0110003 c 2.213969,0 3.995549,0.6624547 5.561,2.2279997 1.56555,1.565559 2.428,3.5469275 2.428,5.761001 0,2.213965 -0.76245,4.195556 -2.328,5.760999 z"
       id="path2-36-0"
       style="fill:#009e9e;fill-opacity:1;stroke-width:0.0281258"
       sodipodi:nodetypes="cscscscsccscscscsc" />
  </g>
</svg>
