<?xml version="1.0" encoding="UTF-8" standalone="no"?>
<svg
   xmlns:dc="http://purl.org/dc/elements/1.1/"
   xmlns:cc="http://creativecommons.org/ns#"
   xmlns:rdf="http://www.w3.org/1999/02/22-rdf-syntax-ns#"
   xmlns:svg="http://www.w3.org/2000/svg"
   xmlns="http://www.w3.org/2000/svg"
   xmlns:xlink="http://www.w3.org/1999/xlink"
   xmlns:sodipodi="http://sodipodi.sourceforge.net/DTD/sodipodi-0.dtd"
   xmlns:inkscape="http://www.inkscape.org/namespaces/inkscape"
   width="32"
   height="32"
   version="1.1"
   id="svg22"
   sodipodi:docname="computer.svg"
   inkscape:version="1.0.2 (e86c870879, 2021-01-15)">
  <metadata
     id="metadata28">
    <rdf:RDF>
      <cc:Work
         rdf:about="">
        <dc:format>image/svg+xml</dc:format>
        <dc:type
           rdf:resource="http://purl.org/dc/dcmitype/StillImage" />
      </cc:Work>
    </rdf:RDF>
  </metadata>
  <defs
     id="defs26">
    <linearGradient
       inkscape:collect="always"
       id="linearGradient865">
      <stop
         style="stop-color:#009999;stop-opacity:1"
         offset="0"
         id="stop861" />
      <stop
         style="stop-color:#00e5e5;stop-opacity:1"
         offset="1"
         id="stop863" />
    </linearGradient>
    <linearGradient
       inkscape:collect="always"
       xlink:href="#linearGradient865"
       id="linearGradient855"
       x1="9.0999994"
       y1="16"
       x2="22.912498"
       y2="16"
       gradientUnits="userSpaceOnUse"
       gradientTransform="translate(1e-6)" />
    <linearGradient
       inkscape:collect="always"
       xlink:href="#linearGradient865"
       id="linearGradient855-5"
       x1="9.0999994"
       y1="16"
       x2="22.912498"
       y2="16"
       gradientUnits="userSpaceOnUse"
       gradientTransform="translate(32)" />
    <linearGradient
       inkscape:collect="always"
       xlink:href="#linearGradient865"
       id="linearGradient876"
       x1="3"
       y1="15.999997"
       x2="28.999998"
       y2="15.999997"
       gradientUnits="userSpaceOnUse" />
    <linearGradient
       inkscape:collect="always"
       xlink:href="#linearGradient865"
       id="linearGradient884"
       x1="35"
       y1="15.999999"
       x2="61"
       y2="15.999999"
       gradientUnits="userSpaceOnUse" />
    <linearGradient
       inkscape:collect="always"
       xlink:href="#linearGradient865"
       id="linearGradient859"
       x1="6.2230711"
       y1="-10.999997"
       x2="15.785571"
       y2="-10.999997"
       gradientUnits="userSpaceOnUse" />
    <linearGradient
       inkscape:collect="always"
       xlink:href="#linearGradient865"
       id="linearGradient868"
       x1="38.223072"
       y1="-10.999994"
       x2="47.785572"
       y2="-10.999994"
       gradientUnits="userSpaceOnUse" />
  </defs>
  <sodipodi:namedview
     pagecolor="#ffffff"
     bordercolor="#666666"
     borderopacity="1"
     objecttolerance="10"
     gridtolerance="10"
     guidetolerance="10"
     inkscape:pageopacity="0"
     inkscape:pageshadow="2"
     inkscape:window-width="1920"
     inkscape:window-height="1007"
     id="namedview24"
     showgrid="false"
     inkscape:zoom="6.9384853"
     inkscape:cx="36.992893"
     inkscape:cy="5.1709049"
     inkscape:window-x="0"
     inkscape:window-y="0"
     inkscape:window-maximized="1"
     inkscape:current-layer="svg22"
     inkscape:document-rotation="0"
     showguides="false"
     inkscape:lockguides="false">
    <inkscape:grid
       type="xygrid"
       id="grid925"
       originx="0"
       originy="-2.2779541e-06" />
  </sodipodi:namedview>
  <rect
     style="opacity:0.00100002"
     width="32"
     height="32"
     x="32"
     y="1.2675781e-05"
     id="rect17" />
  <g
     id="computer">
    <rect
       y="0"
       x="0"
       height="32"
       width="32"
       id="rect820"
       style="clip-rule:evenodd;fill:#2020ff;fill-opacity:0;fill-rule:evenodd;stroke-linejoin:round;stroke-miterlimit:1.41421" />
    <path
       d="M 25.192358,6.8076387 C 22.737085,4.3522067 19.472326,2.9999977 16,2.9999977 c -3.472326,0 -6.737085,1.352209 -9.192359,3.807641 C 4.352209,9.2630697 3,12.52767 3,15.999997 c 0,3.472326 1.352209,6.736926 3.807641,9.192358 2.455274,2.455273 5.720033,3.807641 9.192359,3.807641 3.472326,0 6.737085,-1.352368 9.192358,-3.807641 2.455273,-2.455432 3.807641,-5.720032 3.807641,-9.192358 0,-3.472327 -1.352368,-6.7370863 -3.807641,-9.1923583 z M 24.465869,24.465866 C 22.204674,26.727218 19.197949,27.972787 16,27.972787 c -3.198107,0 -6.204675,-1.245569 -8.466028,-3.506921 -2.261352,-2.261195 -3.506604,-5.26792 -3.506604,-8.465869 0,-3.198108 1.245252,-6.2046743 3.506604,-8.4660273 C 9.795325,5.2726177 12.801893,4.0273657 16,4.0273657 c 3.197949,0 6.204674,1.245252 8.465869,3.506604 2.261352,2.261353 3.506762,5.2679193 3.506762,8.4660273 0,3.197949 -1.24541,6.204674 -3.506762,8.465869 z m 0,0"
       id="path2-36-5"
       style="fill:url(#linearGradient876);fill-opacity:1.0;stroke-width:0.0406249" />
    <path
       style="fill:url(#linearGradient855);fill-opacity:1;stroke-width:0.8125"
       d="M 9.79667,9.4999977 C 9.410822,9.4999977 9.1,9.8108437 9.1,10.196646 v 11.60671 c 0,0.385787 0.327876,0.583183 0.69667,0.696641 h 3.36583 v -8.9375 h 4.874999 V 9.4999977 Z m 9.053329,0 V 22.499997 h 3.365864 c 0.385784,0 0.696636,-0.310854 0.696636,-0.696641 v -11.60671 c 0,-0.3858023 -0.310852,-0.6966483 -0.696636,-0.6966483 z M 9.9125,10.312497 h 7.3125 v 2.4375 h -4.0625 a 0.8125806,0.8125806 0 0 0 -0.812499,0.8125 v 8.125 H 9.950569 c -0.0145,-0.0072 -0.02844,-0.01064 -0.03817,-0.0159 z m 9.749999,0 h 2.4375 v 11.375 h -2.4375 z m -5.687499,4.0625 v 8.125 h 4.062499 v -8.125 z m 0.8125,0.8125 h 2.4375 v 6.5 h -2.4375 z"
       id="path4-3-5-2" />
  </g>
  <g
     id="computer-laptop">
    <path
       d="M 57.192358,6.8076407 C 54.737085,4.3522087 51.472326,2.9999997 48,2.9999997 c -3.472326,0 -6.737085,1.352209 -9.192359,3.807641 C 36.352209,9.2630727 35,12.527673 35,16 c 0,3.472326 1.352209,6.736926 3.807641,9.192358 2.455274,2.455273 5.720033,3.807641 9.192359,3.807641 3.472326,0 6.737085,-1.352368 9.192358,-3.807641 2.455273,-2.455432 3.807641,-5.720032 3.807641,-9.192358 0,-3.472327 -1.352368,-6.7370863 -3.807641,-9.1923593 z M 56.465869,24.465869 C 54.204674,26.727221 51.197949,27.97279 48,27.97279 c -3.198107,0 -6.204675,-1.245569 -8.466028,-3.506921 C 37.27262,22.204674 36.027368,19.197949 36.027368,16 c 0,-3.198108 1.245252,-6.2046753 3.506604,-8.4660283 2.261353,-2.261352 5.267921,-3.506604 8.466028,-3.506604 3.197949,0 6.204674,1.245252 8.465869,3.506604 2.261352,2.261353 3.506762,5.2679203 3.506762,8.4660283 0,3.197949 -1.24541,6.204674 -3.506762,8.465869 z m 0,0"
       id="path2-36-5-3"
       style="fill:url(#linearGradient884);fill-opacity:1.0;stroke-width:0.0406249" />
    <path
       style="fill:url(#linearGradient855-5);fill-opacity:1;stroke-width:0.8125"
       d="m 41.79667,9.4999997 c -0.385848,0 -0.69667,0.310846 -0.69667,0.6966493 v 11.60671 c 0,0.385787 0.327876,0.583183 0.69667,0.696641 h 3.36583 v -8.9375 h 4.874999 V 9.4999997 Z m 9.053329,0 V 22.5 h 3.365864 c 0.385784,0 0.696636,-0.310854 0.696636,-0.696641 v -11.60671 c 0,-0.3858033 -0.310852,-0.6966493 -0.696636,-0.6966493 z M 41.9125,10.3125 H 49.225 V 12.75 h -4.0625 a 0.8125806,0.8125806 0 0 0 -0.812499,0.8125 v 8.125 h -2.399432 c -0.0145,-0.0072 -0.02844,-0.01064 -0.03817,-0.0159 z m 9.749999,0 h 2.4375 v 11.375 h -2.4375 z M 45.975,14.375 V 22.5 h 4.062499 v -8.125 z m 0.8125,0.8125 h 2.4375 v 6.5 h -2.4375 z"
       id="path4-3-5-2-5" />
  </g>
  <g
     id="22-22-computer">
    <rect
       style="opacity:0.00100002"
       width="22"
       height="22"
       x="0"
       y="-21.999987"
       id="rect7" />
    <path
       d="m 17.363945,-17.363942 c -1.699817,-1.699918 -3.960018,-2.636055 -6.363944,-2.636055 -2.403926,0 -4.664128,0.936137 -6.363946,2.636055 C 2.936137,-15.664022 2,-13.403924 2,-10.999997 c 0,2.4039257 0.936137,4.6640247 2.636055,6.3639447 1.699818,1.699798 3.96002,2.636055 6.363946,2.636055 2.403926,0 4.664127,-0.936257 6.363944,-2.636055 1.699793,-1.69992 2.636056,-3.960019 2.636056,-6.3639447 0,-2.403927 -0.936263,-4.664128 -2.636056,-6.363945 z M 16.661,-5.1390083 C 15.095562,-3.5734653 13.213958,-2.911 11.000001,-2.911 8.785919,-2.911 6.90454,-3.5734653 5.339,-5.1390083 3.773437,-6.7044453 2.911,-8.7860403 2.911,-10.999997 c 0,-2.214083 0.862437,-4.295553 2.428,-5.861092 1.56554,-1.565563 3.446919,-2.227911 5.661001,-2.227911 2.213957,0 4.095561,0.662348 5.660999,2.227911 1.56554,1.565539 2.428,3.647009 2.428,5.861092 0,2.2139567 -0.86246,4.2955517 -2.428,5.8609887 z"
       id="path2-36-5-2"
       style="fill:#009e9e;fill-opacity:1;stroke-width:0.0281249"
       sodipodi:nodetypes="cscscscsccscscscsc" />
    <path
       style="fill:url(#linearGradient859);fill-opacity:1.0;stroke-width:0.5625"
       d="m 6.70539,-15.499997 c -0.267128,0 -0.482319,0.215192 -0.482319,0.482303 v 8.0354017 c 0,0.267096 0.226991,0.403743 0.482319,0.482295 h 2.330181 v -6.1874997 h 3.375 v -2.8125 z m 6.267681,0 v 8.9999997 h 2.330225 c 0.267073,0 0.482275,-0.215199 0.482275,-0.482295 v -8.0354017 c 0,-0.267111 -0.215202,-0.482303 -0.482275,-0.482303 z m -6.1875,0.5625 h 5.0625 v 1.6875 h -2.8125 a 0.56255586,0.56255586 0 0 0 -0.5625,0.5625 v 5.6249997 H 6.81193 c -0.01,-0.0048 -0.01964,-0.0079 -0.02641,-0.01109 z m 6.75,0 h 1.6875 v 7.8749997 h -1.6875 z m -3.9375,2.8125 v 5.6249997 h 2.8125 v -5.6249997 z m 0.5625,0.5625 h 1.6875 v 4.4999997 h -1.6875 z"
       id="path4-3-5-2-7" />
  </g>
  <g
     id="22-22-computer-laptop">
    <rect
       style="opacity:0.00100002"
       width="22"
       height="22"
       x="32"
       y="-21.999987"
       id="rect2" />
    <path
       d="m 49.363945,-17.363939 c -1.699817,-1.699918 -3.960018,-2.636055 -6.363944,-2.636055 -2.403926,0 -4.664128,0.936137 -6.363946,2.636055 C 34.936137,-15.664019 34,-13.403921 34,-10.999994 c 0,2.4039257 0.936137,4.6640247 2.636055,6.3639447 1.699818,1.699798 3.96002,2.636055 6.363946,2.636055 2.403926,0 4.664127,-0.936257 6.363944,-2.636055 1.699793,-1.69992 2.636056,-3.960019 2.636056,-6.3639447 0,-2.403927 -0.936263,-4.664128 -2.636056,-6.363945 z M 48.661,-5.1390053 C 47.095562,-3.5734623 45.213958,-2.911 43.000001,-2.911 c -2.214082,0 -4.095461,-0.6624623 -5.661001,-2.2280053 -1.565563,-1.565437 -2.428,-3.647032 -2.428,-5.8609887 0,-2.214083 0.862437,-4.295553 2.428,-5.861092 1.56554,-1.565563 3.446919,-2.227914 5.661001,-2.227914 2.213957,0 4.095561,0.662351 5.660999,2.227914 1.56554,1.565539 2.428,3.647009 2.428,5.861092 0,2.2139567 -0.86246,4.2955517 -2.428,5.8609887 z"
       id="path2-36-5-2-0"
       style="fill:#009e9e;fill-opacity:1;stroke-width:0.0281249"
       sodipodi:nodetypes="cscscscsccscscscsc" />
    <path
       style="fill:url(#linearGradient868);fill-opacity:1.0;stroke-width:0.5625"
       d="m 38.70539,-15.499994 c -0.267128,0 -0.482319,0.215192 -0.482319,0.482303 v 8.0354017 c 0,0.267096 0.226991,0.403743 0.482319,0.482295 h 2.330181 v -6.1874997 h 3.375 v -2.8125 z m 6.267681,0 v 8.9999997 h 2.330225 c 0.267073,0 0.482275,-0.215199 0.482275,-0.482295 v -8.0354017 c 0,-0.267111 -0.215202,-0.482303 -0.482275,-0.482303 z m -6.1875,0.5625 h 5.0625 v 1.6875 h -2.8125 a 0.56255586,0.56255586 0 0 0 -0.5625,0.5625 v 5.6249997 H 38.81193 c -0.01,-0.0048 -0.01964,-0.0079 -0.02641,-0.01109 z m 6.75,0 h 1.6875 v 7.8749997 h -1.6875 z m -3.9375,2.8125 v 5.6249997 h 2.8125 v -5.6249997 z m 0.5625,0.5625 h 1.6875 v 4.4999997 h -1.6875 z"
       id="path4-3-5-2-7-6" />
  </g>
</svg>
