<?xml version="1.0" encoding="UTF-8" standalone="no"?>
<svg
   width="22"
   height="22"
   version="1.1"
   id="svg58"
   sodipodi:docname="disk.svg"
   inkscape:version="1.1.1 (3bf5ae0d25, 2021-09-20)"
   xmlns:inkscape="http://www.inkscape.org/namespaces/inkscape"
   xmlns:sodipodi="http://sodipodi.sourceforge.net/DTD/sodipodi-0.dtd"
   xmlns:xlink="http://www.w3.org/1999/xlink"
   xmlns="http://www.w3.org/2000/svg"
   xmlns:svg="http://www.w3.org/2000/svg"
   xmlns:rdf="http://www.w3.org/1999/02/22-rdf-syntax-ns#"
   xmlns:cc="http://creativecommons.org/ns#"
   xmlns:dc="http://purl.org/dc/elements/1.1/">
  <metadata
     id="metadata64">
    <rdf:RDF>
      <cc:Work
         rdf:about="">
        <dc:format>image/svg+xml</dc:format>
        <dc:type
           rdf:resource="http://purl.org/dc/dcmitype/StillImage" />
      </cc:Work>
    </rdf:RDF>
  </metadata>
  <defs
     id="defs62">
    <linearGradient
       inkscape:collect="always"
       id="linearGradient1082">
      <stop
         style="stop-color:#ff9955;stop-opacity:1;"
         offset="0"
         id="stop1078" />
      <stop
         style="stop-color:#e55c00;stop-opacity:1"
         offset="1"
         id="stop1080" />
    </linearGradient>
    <linearGradient
       inkscape:collect="always"
       xlink:href="#linearGradient843"
       id="linearGradient852"
       x1="30.018368"
       y1="41.84988"
       x2="34.117973"
       y2="41.84988"
       gradientUnits="userSpaceOnUse"
       gradientTransform="matrix(0.40000002,0,0,0.40000002,93.472665,0.760045)" />
    <linearGradient
       inkscape:collect="always"
       id="linearGradient843">
      <stop
         style="stop-color:#ff1744;stop-opacity:1"
         offset="0"
         id="stop839" />
      <stop
         style="stop-color:#b20048;stop-opacity:1"
         offset="1"
         id="stop841" />
    </linearGradient>
    <linearGradient
       inkscape:collect="always"
       xlink:href="#linearGradient843"
       id="linearGradient852-1"
       x1="30.018368"
       y1="41.84988"
       x2="34.117973"
       y2="41.84988"
       gradientUnits="userSpaceOnUse"
       gradientTransform="matrix(0.40000002,0,0,0.40000002,99.729088,2.260045)" />
    <linearGradient
       inkscape:collect="always"
       xlink:href="#linearGradient843"
       id="linearGradient852-9"
       x1="30.018368"
       y1="41.84988"
       x2="34.117973"
       y2="41.84988"
       gradientUnits="userSpaceOnUse"
       gradientTransform="matrix(0.40000002,0,0,0.40000002,105.89267,0.760045)" />
    <linearGradient
       inkscape:collect="always"
       xlink:href="#linearGradient1082"
       id="linearGradient1092"
       x1="18.25"
       y1="33.490002"
       x2="41.75"
       y2="33.490002"
       gradientUnits="userSpaceOnUse"
       gradientTransform="matrix(0.48,0,0,0.48,33.6,1.5998)" />
    <linearGradient
       inkscape:collect="always"
       xlink:href="#linearGradient1082"
       id="linearGradient1100"
       x1="18.25"
       y1="26.495001"
       x2="41.75"
       y2="26.495001"
       gradientUnits="userSpaceOnUse"
       gradientTransform="matrix(0.48,0,0,0.48,33.6,1.6)" />
    <linearGradient
       inkscape:collect="always"
       xlink:href="#linearGradient843"
       id="linearGradient1108"
       x1="18.25"
       y1="26.495001"
       x2="41.75"
       y2="26.495001"
       gradientUnits="userSpaceOnUse"
       gradientTransform="matrix(0.48,0,0,0.48,65.6,1.6310002)" />
    <linearGradient
       inkscape:collect="always"
       xlink:href="#linearGradient843"
       id="linearGradient1116"
       x1="18.25"
       y1="33.490002"
       x2="41.75"
       y2="33.490002"
       gradientUnits="userSpaceOnUse"
       gradientTransform="matrix(0.48,0,0,0.48,65.6,1.6310002)" />
    <linearGradient
       inkscape:collect="always"
       xlink:href="#linearGradient1082"
       id="linearGradient1124"
       x1="18.25"
       y1="40.494999"
       x2="41.75"
       y2="40.494999"
       gradientUnits="userSpaceOnUse"
       gradientTransform="matrix(0.48,0,0,0.48,33.6,1.6)" />
    <linearGradient
       inkscape:collect="always"
       xlink:href="#linearGradient843"
       id="linearGradient852-02"
       x1="30.018368"
       y1="41.84988"
       x2="34.117973"
       y2="41.84988"
       gradientUnits="userSpaceOnUse"
       gradientTransform="matrix(0.30000002,0,0,0.30000002,-1.422478,-0.554966)" />
    <linearGradient
       inkscape:collect="always"
       xlink:href="#linearGradient843"
       id="linearGradient852-02-97"
       x1="30.018368"
       y1="41.84988"
       x2="34.117973"
       y2="41.84988"
       gradientUnits="userSpaceOnUse"
       gradientTransform="matrix(0.30000012,0,0,0.30000012,5.58652,-0.52997)" />
    <linearGradient
       inkscape:collect="always"
       xlink:href="#linearGradient1082"
       id="linearGradient1203"
       x1="-56.759998"
       y1="14.3584"
       x2="-49.240002"
       y2="14.3584"
       gradientUnits="userSpaceOnUse" />
    <linearGradient
       inkscape:collect="always"
       xlink:href="#linearGradient1082"
       id="linearGradient1211"
       x1="-56.759998"
       y1="12.183469"
       x2="-49.240002"
       y2="12.183469"
       gradientUnits="userSpaceOnUse" />
    <linearGradient
       inkscape:collect="always"
       xlink:href="#linearGradient843"
       id="linearGradient1227"
       x1="-24.76"
       y1="12.183469"
       x2="-17.24"
       y2="12.183469"
       gradientUnits="userSpaceOnUse" />
    <linearGradient
       inkscape:collect="always"
       xlink:href="#linearGradient1082"
       id="linearGradient904"
       x1="-56.759998"
       y1="9.8783998"
       x2="-49.240002"
       y2="9.8783998"
       gradientUnits="userSpaceOnUse" />
    <linearGradient
       inkscape:collect="always"
       xlink:href="#linearGradient843"
       id="linearGradient912"
       x1="-24.76"
       y1="9.8783998"
       x2="-17.24"
       y2="9.8783998"
       gradientUnits="userSpaceOnUse" />
    <linearGradient
       inkscape:collect="always"
       xlink:href="#linearGradient843"
       id="linearGradient920"
       x1="10.81797"
       y1="13.299"
       x2="12.04785"
       y2="13.299"
       gradientUnits="userSpaceOnUse"
       gradientTransform="translate(0.2000301)" />
  </defs>
  <sodipodi:namedview
     pagecolor="#ffffff"
     bordercolor="#000000"
     borderopacity="1"
     objecttolerance="10"
     gridtolerance="10"
     guidetolerance="10"
     inkscape:pageopacity="0"
     inkscape:pageshadow="2"
     inkscape:window-width="1920"
     inkscape:window-height="1007"
     id="namedview60"
     showgrid="false"
     inkscape:zoom="4.9062498"
     inkscape:cx="83.872615"
     inkscape:cy="46.471339"
     inkscape:window-x="0"
     inkscape:window-y="0"
     inkscape:window-maximized="1"
     inkscape:current-layer="svg58"
     inkscape:document-rotation="0"
     showguides="false"
     inkscape:lockguides="false"
     inkscape:pagecheckerboard="0"
     inkscape:showpageshadow="false">
    <inkscape:grid
       type="xygrid"
       id="grid933"
       originx="0"
       originy="22" />
  </sodipodi:namedview>
  <g
     id="disk-quota"
     transform="translate(0,22)">
    <rect
       style="opacity:0.00100002"
       width="32"
       height="32"
       x="0"
       y="0"
       id="rect35" />
    <path
       d="m 10.36,16.1392 v 2.1296 c 0.3792,0.4656 2.4576,1.4422 5.64,1.4422 3.1824,0 5.2608,-0.9764 5.64,-1.442 v -2.1298 c -1.2624,0.9984 -3.5712,1.4352 -5.64,1.4352 -2.0688,0 -4.3776,-0.4368 -5.64,-1.4352 z"
       id="path2"
       sodipodi:nodetypes="ccsccsc"
       style="fill:#d3dae3;fill-opacity:1;stroke-width:0.48" />
    <path
       d="m 10.36,19.064 v 1.5008 c 0,1.4736 2.8368,2.2464 5.64,2.2464 2.8032,0 5.64,-0.7728 5.64,-2.2464 V 19.064 c -1.3104,0.6 -3.4848,1.199 -5.64,1.199 -2.1552,0 -4.3296,-0.599 -5.64,-1.199 z"
       id="path4-6"
       sodipodi:nodetypes="cssscsc"
       style="fill:#d3dae3;fill-opacity:1;stroke-width:0.48" />
    <path
       d="m 16,12.0688 c -2.8032,0 -5.64,0.7728 -5.64,2.2464 0,1.4784 2.8368,2.2512 5.64,2.2512 2.8032,0 5.64,-0.7728 5.64,-2.2512 0,-1.4736 -2.8368,-2.2464 -5.64,-2.2464 z"
       id="path6"
       style="fill:#00b4b4;fill-opacity:1;stroke-width:0.48" />
    <path
       d="M 24.651999,3.2 H 7.348 C 6.6039999,3.2 6,4.0154 6,5.0198001 V 28.3802 C 6,29.3846 6.6039999,30.2 7.348,30.2 H 24.651999 C 25.396,30.2 26,29.3846 26,28.3802 V 5.0198001 C 26,4.0154 25.396,3.2 24.651999,3.2 Z m -8.892,2.7 H 23.152 c 0.219999,0 0.4,0.243 0.4,0.54 0,0.2970001 -0.180001,0.5400001 -0.4,0.5400001 H 15.759999 C 15.54,6.9800001 15.36,6.7370001 15.36,6.44 15.36,6.143 15.54,5.9 15.759999,5.9 Z M 12.128,6.2348 c 0.02,-0.0648 0.048,-0.1242 0.084,-0.1782 0.112002,-0.1512 0.288001,-0.1998 0.436,-0.1134 0.05199,0.027 0.092,0.0648 0.132001,0.1134 0.036,0.054 0.06399,0.1134 0.08399,0.1782 0.02,0.0648 0.032,0.1350001 0.032,0.2052 0,0.0378 -0.004,0.0702 -0.0079,0.108 -0.004,0.0324 -0.012,0.0648 -0.024,0.0972 -0.0079,0.0324 -0.02,0.0648 -0.036,0.0972 -0.016,0.027 -0.032,0.054 -0.048,0.081 -0.076,0.0972 -0.180001,0.1566001 -0.284001,0.1566001 -0.024,0 -0.05199,-0.0054 -0.076,-0.0108 -0.02801,-0.0054 -0.052,-0.0162 -0.076,-0.0324 -0.024,-0.0108 -0.048,-0.027 -0.068,-0.0486 -0.024,-0.0216 -0.044,-0.0432 -0.06399,-0.0648 -0.016,-0.027 -0.032,-0.054 -0.048,-0.081 -0.01599,-0.0324 -0.02799,-0.0648 -0.036,-0.0972 -0.012,-0.0324 -0.02,-0.0648 -0.024,-0.0972 -0.004,-0.0378 -0.0079,-0.0702 -0.0079,-0.108 0,-0.070199 0.012,-0.1404 0.032,-0.2052 z m -1.824,0 c 0.02,-0.0648 0.048,-0.1242 0.084,-0.1782 0.148,-0.1998 0.416,-0.1998 0.567999,0 0.036,0.054 0.064,0.1134 0.084,0.1782 0.02,0.0648 0.032,0.1350001 0.032,0.2052 0,0.1404 -0.044,0.2808 -0.116002,0.3834 -0.076,0.0972 -0.18,0.1566001 -0.284,0.1566001 -0.103999,0 -0.207999,-0.0594 -0.283999,-0.1566001 -0.072,-0.1026 -0.116001,-0.243 -0.116001,-0.3834 0,-0.070199 0.012,-0.1404 0.032,-0.2052 z M 8.564,6.0566 C 8.712,5.8568 8.98,5.8568 9.1320001,6.0566 9.2039991,6.1592 9.248,6.2996 9.248,6.44 9.248,6.4778 9.24399,6.5102 9.24,6.548 9.23599,6.5804 9.228001,6.6128 9.216,6.6452 9.208,6.6776 9.196,6.71 9.18,6.737 9.163997,6.7694 9.147998,6.7964 9.131997,6.8234 c -0.076,0.0972 -0.1800003,0.1566001 -0.2840003,0.1566001 -0.104,0 -0.208,-0.0594 -0.284,-0.1566001 C 8.4920001,6.7208 8.448,6.5804 8.448,6.44 8.448,6.2996 8.492,6.1592 8.564,6.0566 Z M 24.399999,27.5 c 0,0.297 -0.179999,0.54 -0.4,0.54 H 8 C 7.78,28.04 7.6,27.797 7.6,27.5 V 9.14 C 7.6,8.843 7.78,8.6 8,8.6 h 15.999999 c 0.220001,0 0.4,0.243 0.4,0.54 z"
       id="path8"
       style="fill:#d3dae3;fill-opacity:1;stroke-width:0.464757" />
  </g>
  <g
     id="disk-quota-low"
     transform="translate(0,22)">
    <g
       id="g1147">
      <rect
         style="opacity:0.00100002"
         width="32"
         height="32"
         x="32"
         y="5.0663951e-10"
         id="rect40" />
      <path
         d="m 42.36,16.139 v 1.9296 c 0.3792,0.4656 2.4576,1.4424 5.64,1.4424 3.1824,0 5.2608,-0.9768 5.64,-1.4424 V 16.139 c -1.2624,0.9984 -3.5712,1.4352 -5.64,1.4352 -2.0688,0 -4.3776,-0.4368 -5.64,-1.4352 z"
         id="path2-5"
         sodipodi:nodetypes="ccsccsc"
         style="fill:url(#linearGradient1092);fill-opacity:1;stroke-width:0.48" />
      <path
         d="m 42.36,19.264 v 1.3008 c 0,1.4736 2.8368,2.2464 5.64,2.2464 2.8032,0 5.64,-0.7728 5.64,-2.2464 V 19.264 c -1.3104,0.6 -3.4848,1.0992 -5.64,1.0992 -2.1552,0 -4.3296,-0.4992 -5.64,-1.0992 z"
         id="path4-6-3"
         sodipodi:nodetypes="cssscsc"
         style="fill:url(#linearGradient1124);fill-opacity:1;stroke-width:0.48" />
      <path
         d="m 48,12.0688 c -2.8032,0 -5.64,0.7728 -5.64,2.2464 0,1.4784 2.8368,2.2512 5.64,2.2512 2.8032,0 5.64,-0.7728 5.64,-2.2512 0,-1.4736 -2.8368,-2.2464 -5.64,-2.2464 z"
         id="path6-5"
         style="fill:url(#linearGradient1100);fill-opacity:1;stroke-width:0.48" />
      <path
         d="M 56.652,3.2 H 39.348 C 38.604,3.2 38,4.0154 38,5.0198 V 28.3802 C 38,29.3846 38.604,30.2 39.348,30.2 H 56.652 C 57.396,30.2 58,29.3846 58,28.3802 V 5.0198 C 58,4.0154 57.396,3.2 56.652,3.2 Z M 47.76,5.9 h 7.392 c 0.22,0 0.4,0.243 0.4,0.54 0,0.297 -0.18,0.54 -0.4,0.54 H 47.76 c -0.22,0 -0.4,-0.243 -0.4,-0.54 0,-0.297 0.18,-0.54 0.4,-0.54 z M 44.128,6.2348 C 44.148,6.17 44.176,6.1106 44.212,6.0566 44.324,5.9054 44.5,5.8568 44.648,5.9432 44.7,5.9702 44.74,6.008 44.78,6.0566 c 0.036,0.054 0.064,0.1134 0.084,0.1782 0.02,0.0648 0.032,0.135 0.032,0.2052 0,0.0378 -0.0048,0.0702 -0.009,0.108 -0.0048,0.0324 -0.012,0.0648 -0.024,0.0972 -0.009,0.0324 -0.02,0.0648 -0.036,0.0972 -0.016,0.027 -0.032,0.054 -0.048,0.081 C 44.704,6.9206 44.6,6.98 44.496,6.98 44.472,6.98 44.444,6.9746 44.42,6.9692 44.392,6.9638 44.368,6.953 44.344,6.9368 44.32,6.926 44.296,6.9098 44.276,6.8882 44.252,6.8666 44.232,6.845 44.212,6.8234 44.196,6.7964 44.18,6.7694 44.164,6.7424 44.148,6.71 44.136,6.6776 44.128,6.6452 44.116,6.6128 44.108,6.5804 44.104,6.548 44.1,6.5102 44.096,6.4778 44.096,6.44 c 0,-0.0702 0.012,-0.1404 0.032,-0.2052 z m -1.824,0 c 0.02,-0.0648 0.048,-0.1242 0.084,-0.1782 0.148,-0.1998 0.416,-0.1998 0.568,0 0.036,0.054 0.064,0.1134 0.084,0.1782 0.02,0.0648 0.032,0.135 0.032,0.2052 0,0.1404 -0.044,0.2808 -0.116,0.3834 C 42.88,6.9206 42.776,6.98 42.672,6.98 42.568,6.98 42.464,6.9206 42.388,6.8234 42.316,6.7208 42.272,6.5804 42.272,6.44 c 0,-0.0702 0.012,-0.1404 0.032,-0.2052 z m -1.74,-0.1782 c 0.148,-0.1998 0.416,-0.1998 0.568,0 0.072,0.1026 0.116,0.243 0.116,0.3834 0,0.0378 -0.0048,0.0702 -0.009,0.108 C 41.2344,6.5804 41.22708,6.6128 41.21508,6.6452 41.208,6.6776 41.196,6.71 41.18,6.737 41.164,6.7694 41.148,6.7964 41.132,6.8234 41.056,6.9206 40.952,6.98 40.848,6.98 40.744,6.98 40.64,6.9206 40.564,6.8234 40.492,6.7208 40.448,6.5804 40.448,6.44 c 0,-0.1404 0.044,-0.2808 0.116,-0.3834 z M 56.4,27.5 c 0,0.297 -0.18,0.54 -0.4,0.54 H 40 c -0.22,0 -0.4,-0.243 -0.4,-0.54 V 9.14 C 39.6,8.843 39.78,8.6 40,8.6 h 16 c 0.22,0 0.4,0.243 0.4,0.54 z"
         id="path8-6"
         style="fill:#d3dae3;fill-opacity:1;stroke-width:0.46476" />
    </g>
  </g>
  <g
     id="disk-quota-high"
     transform="translate(0,22)">
    <rect
       style="opacity:0.00100002"
       width="32"
       height="32"
       x="64"
       y="0.030999999"
       id="rect40-7" />
    <path
       d="m 74.36,16.1702 v 1.9296 c 0.3792,0.4656 2.4576,1.4422 5.64,1.4422 3.1824,0 5.2608,-0.9766 5.64,-1.4422 v -1.9296 c -1.2624,0.9984 -3.5712,1.4352 -5.64,1.4352 -2.0688,0 -4.3776,-0.4368 -5.64,-1.4352 z"
       id="path2-5-3"
       sodipodi:nodetypes="ccsccsc"
       style="fill:url(#linearGradient1116);fill-opacity:1;stroke-width:0.48" />
    <path
       d="m 74.36,19.295 v 1.3008 c 0,1.4736 2.8368,2.2464 5.64,2.2464 2.8032,0 5.64,-0.7728 5.64,-2.2464 V 19.295 c -1.3104,0.6 -3.4848,1.0992 -5.64,1.0992 -2.1552,0 -4.3296,-0.4992 -5.64,-1.0992 z"
       id="path4-6-3-5"
       sodipodi:nodetypes="cssscsc"
       style="fill:#d3dae3;fill-opacity:1;stroke-width:0.48" />
    <path
       d="m 80,12.0998 c -2.8032,0 -5.64,0.7728 -5.64,2.2464 0,1.4784 2.8368,2.2512 5.64,2.2512 2.8032,0 5.64,-0.7728 5.64,-2.2512 0,-1.4736 -2.8368,-2.2464 -5.64,-2.2464 z"
       id="path6-5-6"
       style="fill:url(#linearGradient1108);fill-opacity:1;stroke-width:0.48" />
    <path
       d="M 88.652,3.2 H 71.348 C 70.604,3.2 70,4.0154 70,5.0198 V 28.3802 C 70,29.3846 70.604,30.2 71.348,30.2 H 88.652 C 89.396,30.2 90,29.3846 90,28.3802 V 5.0198 C 90,4.0154 89.396,3.2 88.652,3.2 Z M 79.76,5.9 h 7.392 c 0.22,0 0.4,0.243 0.4,0.54 0,0.297 -0.18,0.54 -0.4,0.54 H 79.76 c -0.22,0 -0.4,-0.243 -0.4,-0.54 0,-0.297 0.18,-0.54 0.4,-0.54 z M 76.128,6.2348 C 76.148,6.17 76.176,6.1106 76.212,6.0566 76.324,5.9054 76.5,5.8568 76.648,5.9432 76.7,5.9702 76.74,6.008 76.78,6.0566 c 0.036,0.054 0.064,0.1134 0.084,0.1782 0.02,0.0648 0.032,0.135 0.032,0.2052 0,0.0378 -0.0045,0.0702 -0.0087,0.108 -0.0045,0.0324 -0.012,0.0648 -0.024,0.0972 -0.0087,0.0324 -0.02,0.0648 -0.036,0.0972 -0.016,0.027 -0.032,0.054 -0.048,0.081 C 76.704,6.9206 76.6,6.98 76.496,6.98 76.472,6.98 76.444,6.9746 76.42,6.9692 76.392,6.9638 76.368,6.953 76.344,6.9368 76.32,6.926 76.296,6.9098 76.276,6.8882 76.252,6.8666 76.232,6.845 76.212,6.8234 76.196,6.7964 76.18,6.7694 76.164,6.7424 76.148,6.71 76.136,6.6776 76.128,6.6452 76.116,6.6128 76.108,6.5804 76.104,6.548 76.1,6.5102 76.096,6.4778 76.096,6.44 c 0,-0.0702 0.012,-0.1404 0.032,-0.2052 z m -1.824,0 c 0.02,-0.0648 0.048,-0.1242 0.084,-0.1782 0.148,-0.1998 0.416,-0.1998 0.568,0 0.036,0.054 0.064,0.1134 0.084,0.1782 0.02,0.0648 0.032,0.135 0.032,0.2052 0,0.1404 -0.044,0.2808 -0.116,0.3834 C 74.88,6.9206 74.776,6.98 74.672,6.98 74.568,6.98 74.464,6.9206 74.388,6.8234 74.316,6.7208 74.272,6.5804 74.272,6.44 c 0,-0.0702 0.012,-0.1404 0.032,-0.2052 z m -1.74,-0.1782 c 0.148,-0.1998 0.416,-0.1998 0.568,0 0.072,0.1026 0.116,0.243 0.116,0.3834 0,0.0378 -0.0045,0.0702 -0.0087,0.108 C 73.235,6.5804 73.22738,6.6128 73.21538,6.6452 73.208,6.6776 73.196,6.71 73.18,6.737 73.164,6.7694 73.148,6.7964 73.132,6.8234 73.056,6.9206 72.952,6.98 72.848,6.98 72.744,6.98 72.64,6.9206 72.564,6.8234 72.492,6.7208 72.448,6.5804 72.448,6.44 c 0,-0.1404 0.044,-0.2808 0.116,-0.3834 z M 88.4,27.5 c 0,0.297 -0.18,0.54 -0.4,0.54 H 72 c -0.22,0 -0.4,-0.243 -0.4,-0.54 V 9.14 C 71.6,8.843 71.78,8.6 72,8.6 h 16 c 0.22,0 0.4,0.243 0.4,0.54 z"
       id="path8-6-2"
       style="fill:#d3dae3;fill-opacity:1;stroke-width:0.46476" />
  </g>
  <g
     id="disk-quota-critical"
     transform="translate(0,22)">
    <rect
       style="opacity:0.00100002"
       width="32"
       height="32"
       x="96"
       y="0"
       id="rect2" />
    <path
       d="m 121.152,3.2 h -17.304 c -0.744,0 -1.348,0.8154 -1.348,1.8198 v 23.3604 c 0,1.0044 0.604,1.8198 1.348,1.8198 h 17.304 c 0.744,0 1.348,-0.8154 1.348,-1.8198 V 5.0198 C 122.5,4.0154 121.896,3.2 121.152,3.2 Z m -8.892,2.7 h 7.392 c 0.22,0 0.4,0.243 0.4,0.54 0,0.297 -0.18,0.54 -0.4,0.54 h -7.392 c -0.22,0 -0.4,-0.243 -0.4,-0.54 0,-0.297 0.18,-0.54 0.4,-0.54 z m -3.632,0.3348 c 0.02,-0.0648 0.0489,-0.1242 0.0848,-0.1782 0.112,-0.1512 0.288,-0.1998 0.436,-0.1134 0.0511,0.027 0.0914,0.0648 0.132,0.1134 0.0353,0.054 0.0647,0.1134 0.0847,0.1782 0.02,0.0648 0.0316,0.135 0.0316,0.2052 0,0.0378 -0.005,0.0702 -0.01,0.108 -0.005,0.0324 -0.0114,0.0648 -0.0248,0.0972 -0.01,0.0324 -0.02,0.0648 -0.0352,0.0972 -0.0154,0.027 -0.0312,0.054 -0.048,0.081 -0.0752,0.0972 -0.18001,0.1566 -0.284,0.1566 -0.0248,0 -0.052,-0.0054 -0.0752,-0.0108 -0.0287,-0.0054 -0.0511,-0.0162 -0.0754,-0.0324 -0.0246,-0.0108 -0.0489,-0.027 -0.0689,-0.0486 -0.0247,-0.0216 -0.0447,-0.0432 -0.0647,-0.0648 -0.0153,-0.027 -0.0318,-0.054 -0.0486,-0.081 -0.0152,-0.0324 -0.0287,-0.0648 -0.0352,-0.0972 -0.011,-0.0324 -0.02,-0.0648 -0.0248,-0.0972 -0.005,-0.0378 -0.01,-0.0702 -0.01,-0.108 0,-0.0702 0.0114,-0.1404 0.0313,-0.2052 z m -1.824,0 c 0.02,-0.0648 0.0489,-0.1242 0.0848,-0.1782 0.148,-0.1998 0.416,-0.1998 0.568,0 0.0353,0.054 0.0647,0.1134 0.0847,0.1782 0.02,0.0648 0.0316,0.135 0.0316,0.2052 0,0.1404 -0.0448,0.2808 -0.116,0.3834 -0.0754,0.0972 -0.18,0.1566 -0.284,0.1566 -0.104,0 -0.208,-0.0594 -0.284,-0.1566 -0.0714,-0.1026 -0.116,-0.243 -0.116,-0.3834 0,-0.0702 0.0114,-0.1404 0.0314,-0.2052 z m -1.74,-0.1782 c 0.148,-0.1998 0.416,-0.1998 0.568,0 0.0711,0.1026 0.116,0.243 0.116,0.3834 0,0.0378 -0.005,0.0702 -0.0101,0.108 -0.005,0.0324 -0.0112,0.0648 -0.0248,0.0972 -0.0101,0.0324 -0.02,0.0648 -0.0353,0.0918 -0.0152,0.0324 -0.0312,0.0594 -0.0488,0.0864 -0.0753,0.0972 -0.18002,0.1566 -0.28402,0.1566 -0.104,0 -0.208,-0.0594 -0.284,-0.1566 -0.071,-0.1026 -0.116,-0.243 -0.116,-0.3834 0,-0.1404 0.0447,-0.2808 0.116,-0.3834 z M 120.9,27.5 c 0,0.297 -0.18,0.54 -0.4,0.54 h -16 c -0.22,0 -0.4,-0.243 -0.4,-0.54 V 9.14 c 0,-0.297 0.18,-0.54 0.4,-0.54 h 16 c 0.22,0 0.4,0.243 0.4,0.54 z"
       id="path8-6-2-9"
       style="fill:#d3dae3;fill-opacity:1;stroke-width:0.464761" />
    <path
       style="color:#eff0f1;fill:url(#linearGradient852);fill-opacity:1;stroke:none;stroke-width:0.4"
       d="m 106.28001,13.5 c -0.44183,0 -0.8,0.366695 -0.8,0.81875 0,0.452062 0.35817,4.78125 0.8,4.78125 0.44183,0 0.8,-4.329188 0.8,-4.78125 0,-0.452055 -0.35816,-0.818744 -0.8,-0.81875 z m 0.0203,6.360154 A 0.82000204,0.81999473 0 0 0 105.48,20.679687 0.82000204,0.81999473 0 0 0 106.30031,21.5 a 0.82000204,0.81999473 0 0 0 0.81953,-0.820313 0.82000204,0.81999473 0 0 0 -0.81953,-0.819533 z"
       class="ColorScheme-Background"
       id="path12" />
    <path
       style="color:#eff0f1;fill:url(#linearGradient852-1);fill-opacity:1;stroke:none;stroke-width:0.4"
       d="m 112.53643,15 c -0.44183,0 -0.79999,0.366695 -0.79999,0.81875 0,0.452062 0.35816,4.78125 0.79999,4.78125 0.44183,0 0.8,-4.329188 0.8,-4.78125 0,-0.452055 -0.35816,-0.818744 -0.8,-0.81875 z m 0.0203,6.360154 a 0.82000204,0.81999473 0 0 0 -0.82031,0.819533 0.82000204,0.81999473 0 0 0 0.82031,0.820313 0.82000204,0.81999473 0 0 0 0.81953,-0.820313 0.82000204,0.81999473 0 0 0 -0.81953,-0.819533 z"
       class="ColorScheme-Background"
       id="path12-0" />
    <path
       style="color:#eff0f1;fill:url(#linearGradient852-9);fill-opacity:1;stroke:none;stroke-width:0.4"
       d="m 118.70001,13.5 c -0.44183,0 -0.8,0.366695 -0.8,0.81875 0,0.452062 0.35817,4.78125 0.8,4.78125 0.44183,0 0.8,-4.329188 0.8,-4.78125 0,-0.452055 -0.35816,-0.818744 -0.8,-0.81875 z m 0.0203,6.360154 A 0.82000204,0.81999473 0 0 0 117.9,20.679687 0.82000204,0.81999473 0 0 0 118.72031,21.5 a 0.82000204,0.81999473 0 0 0 0.81953,-0.820313 0.82000204,0.81999473 0 0 0 -0.81953,-0.819533 z"
       class="ColorScheme-Background"
       id="path12-06" />
  </g>
  <g
     id="22-22-disk-quota">
    <rect
       style="opacity:0.00100002"
       width="22"
       height="22"
       x="0"
       y="0"
       id="rect12" />
    <path
       d="m 7.24,11.0928 v 1.419737 C 7.4928,12.822937 8.8784,13.474 11,13.474 c 2.1216,0 3.5072,-0.6846 3.76,-0.995 v -1.3862 c -0.8416,0.6656 -2.3808,0.9568 -3.76,0.9568 -1.3792,0 -2.9184,-0.2912 -3.76,-0.9568 z"
       id="path2-3"
       sodipodi:nodetypes="ccsccsc"
       style="fill:#d3dae3;fill-opacity:1;stroke-width:0.32" />
    <path
       d="m 7.24,13.076 v 0.9672 c 0,0.9824 1.8912,1.4976 3.76,1.4976 1.8688,0 3.76,-0.5152 3.76,-1.4976 V 13.076 c -0.8736,0.4 -2.3232,0.833 -3.76,0.833 -1.4368,0 -2.8864,-0.433 -3.76,-0.833 z"
       id="path4-6-6"
       sodipodi:nodetypes="cssscsc"
       style="fill:#d3dae3;fill-opacity:1;stroke-width:0.32" />
    <path
       d="m 11,8.3792 c -1.8688,0 -3.76,0.5152 -3.76,1.4976 0,0.9856 1.8912,1.5008 3.76,1.5008 1.8688,0 3.76,-0.5152 3.76,-1.5008 0,-0.9824 -1.8912,-1.4976 -3.76,-1.4976 z"
       id="path6-7"
       style="fill:#00b4b4;fill-opacity:1;stroke-width:0.32" />
    <path
       d="M 16.223454,3 H 5.6701162 C 5.2163666,3 4.848,3.4832 4.848,4.0784 V 17.9216 C 4.848,18.5168 5.2163666,19 5.6701162,19 H 16.223454 c 0.45375,0 0.822116,-0.4832 0.822116,-1.0784 V 4.0784 C 17.04557,3.4832 16.677204,3 16.223454,3 Z m -5.42304,1.6 h 4.508222 c 0.134173,0 0.243952,0.144 0.243952,0.32 0,0.176 -0.109779,0.32 -0.243952,0.32 h -4.508222 c -0.134173,0 -0.243951,-0.144 -0.243951,-0.32 0,-0.176 0.109778,-0.32 0.243951,-0.32 z M 8.5853353,4.7984 C 8.5975323,4.76 8.6146093,4.7248 8.6365643,4.6928 8.7048703,4.6032 8.8122092,4.5744 8.9024713,4.6256 c 0.031713,0.016 0.056108,0.0384 0.080503,0.0672 0.021956,0.032 0.039032,0.0672 0.051229,0.1056 0.012197,0.0384 0.019516,0.08 0.019516,0.1216 0,0.0224 -0.00244,0.0416 -0.00488,0.064 -0.00244,0.0192 -0.00732,0.0384 -0.014637,0.0576 -0.00488,0.0192 -0.012197,0.0384 -0.021955,0.0576 -0.00976,0.016 -0.019516,0.032 -0.029274,0.048 C 8.9366233,5.2048 8.8731951,5.24 8.8097678,5.24 8.7951308,5.24 8.7780538,5.2362 8.7634168,5.2327 8.7463408,5.2289 8.7317038,5.2232 8.7170668,5.2135 8.7024298,5.2062 8.6877928,5.1975 8.6755948,5.1847 8.6609578,5.1719 8.6487598,5.1591 8.6365628,5.1463 8.6268028,5.1303 8.6170468,5.1143 8.6072888,5.0983 8.5975288,5.0791 8.5902118,5.0599 8.5853338,5.0407 8.5780138,5.0215 8.5731358,5.0023 8.5706968,4.9831 c -0.00244,-0.0224 -0.00488,-0.0416 -0.00488,-0.064 0,-0.0416 0.00732,-0.0832 0.019516,-0.1216 z m -1.1124184,0 c 0.012198,-0.0384 0.029274,-0.0736 0.05123,-0.1056 0.090262,-0.1184 0.2537094,-0.1184 0.346411,0 0.021955,0.032 0.039032,0.0672 0.051229,0.1056 0.012197,0.0384 0.019516,0.08 0.019516,0.1216 0,0.0832 -0.026835,0.1664 -0.070745,0.2272 C 7.8242069,5.2048 7.7607797,5.24 7.6973523,5.24 7.6339253,5.24 7.5704977,5.2048 7.5241469,5.1472 7.4802359,5.0864 7.4534009,5.0032 7.4534009,4.92 c 0,-0.0416 0.00732,-0.0832 0.019516,-0.1216 z M 6.4117284,4.6928 c 0.090262,-0.1184 0.2537094,-0.1184 0.346411,0 0.043911,0.0608 0.070746,0.144 0.070746,0.2272 0,0.0224 -0.00244,0.0416 -0.00488,0.064 -0.00244,0.0192 -0.00732,0.0384 -0.014637,0.0576 C 6.8044884,5.0608 6.7971704,5.08 6.7874134,5.096 6.7776534,5.1152 6.7678974,5.1312 6.7581394,5.1472 6.7117894,5.2048 6.6483612,5.24 6.5849338,5.24 6.5215068,5.24 6.4580791,5.2048 6.4117284,5.1472 6.3678174,5.0864 6.3409824,5.0032 6.3409824,4.92 c 0,-0.0832 0.026835,-0.1664 0.070746,-0.2272 z M 16.069763,17.4 c 0,0.176 -0.109777,0.32 -0.24395,0.32 H 6.0677569 C 5.9335837,17.72 5.8238055,17.576 5.8238055,17.4 V 6.52 c 0,-0.176 0.1097782,-0.32 0.2439514,-0.32 h 9.7580561 c 0.134173,0 0.24395,0.144 0.24395,0.32 z"
       id="path8-5"
       style="fill:#d3dae3;fill-opacity:1;stroke-width:0.2794" />
  </g>
  <g
     id="22-22-disk-quota-low"
     transform="translate(96)">
    <rect
       style="opacity:0.00100002"
       width="22"
       height="22"
       x="-64"
       y="0"
       id="rect17" />
    <path
       d="m -56.76,11.0928 v 1.419737 c 0.2528,0.3104 1.6384,0.7616 3.76,0.7616 2.1216,0 3.5072,-0.584537 3.76,-0.894937 v -1.2864 c -0.8416,0.6656 -2.3808,0.9568 -3.76,0.9568 -1.3792,0 -2.9184,-0.2912 -3.76,-0.9568 z"
       id="path2-3-3"
       sodipodi:nodetypes="ccsccsc"
       style="fill:url(#linearGradient1211);fill-opacity:1;stroke-width:0.32" />
    <path
       d="m -56.76,13.176 v 0.8672 c 0,0.9824 1.8912,1.4976 3.76,1.4976 1.8688,0 3.76,-0.5152 3.76,-1.4976 V 13.176 c -0.8736,0.4 -2.3232,0.7328 -3.76,0.7328 -1.4368,0 -2.8864,-0.3328 -3.76,-0.7328 z"
       id="path4-6-6-5"
       sodipodi:nodetypes="cssscsc"
       style="fill:url(#linearGradient1203);fill-opacity:1;stroke-width:0.32" />
    <path
       d="m -53,8.3792 c -1.8688,0 -3.76,0.5152 -3.76,1.4976 0,0.9856 1.8912,1.5008 3.76,1.5008 1.8688,0 3.76,-0.5152 3.76,-1.5008 0,-0.9824 -1.8912,-1.4976 -3.76,-1.4976 z"
       id="path6-7-6"
       style="fill:url(#linearGradient904);fill-opacity:1;stroke-width:0.32" />
    <path
       d="M -47.593376,3 H -58.52217 c -0.469893,0 -0.851364,0.4832 -0.851364,1.0784 v 13.8432 c 0,0.5952 0.381471,1.0784 0.851364,1.0784 h 10.928794 c 0.469892,0 0.851364,-0.4832 0.851364,-1.0784 V 4.0784 C -46.742012,3.4832 -47.123484,3 -47.593376,3 Z m -5.615976,1.6 h 4.668612 c 0.138946,0 0.252629,0.144 0.252629,0.32 0,0.176 -0.113683,0.32 -0.252629,0.32 h -4.668612 c -0.138946,0 -0.25263,-0.144 -0.25263,-0.32 0,-0.176 0.113684,-0.32 0.25263,-0.32 z m -2.293883,0.1984 c 0.01263,-0.0384 0.03032,-0.0736 0.05305,-0.1056 0.07073,-0.0896 0.181894,-0.1184 0.275367,-0.0672 0.03284,0.016 0.05811,0.0384 0.08337,0.0672 0.02273,0.032 0.04042,0.0672 0.05305,0.1056 0.01263,0.0384 0.02021,0.08 0.02021,0.1216 0,0.0224 -0.0025,0.0416 -0.005,0.064 -0.0025,0.0192 -0.0076,0.0384 -0.01516,0.0576 -0.005,0.0192 -0.01263,0.0384 -0.02273,0.0576 -0.01011,0.016 -0.02021,0.032 -0.03032,0.048 -0.048,0.0576 -0.113684,0.0928 -0.179367,0.0928 -0.01516,0 -0.03284,-0.0038 -0.048,-0.0073 -0.01768,-0.0038 -0.03284,-0.0095 -0.048,-0.0192 -0.01516,-0.0073 -0.03032,-0.016 -0.04295,-0.0288 -0.01516,-0.0128 -0.02779,-0.0256 -0.04042,-0.0384 -0.01011,-0.016 -0.02021,-0.032 -0.03032,-0.048 -0.01011,-0.0192 -0.01768,-0.0384 -0.02273,-0.0576 -0.0076,-0.0192 -0.01263,-0.0384 -0.01516,-0.0576 -0.0025,-0.0224 -0.005,-0.0416 -0.005,-0.064 0,-0.0416 0.0076,-0.0832 0.02021,-0.1216 z m -1.151996,0 c 0.01263,-0.0384 0.03032,-0.0736 0.05305,-0.1056 0.09347,-0.1184 0.262736,-0.1184 0.358734,0 0.02273,0.032 0.04042,0.0672 0.05305,0.1056 0.01263,0.0384 0.02021,0.08 0.02021,0.1216 0,0.0832 -0.02779,0.1664 -0.07327,0.2272 -0.048,0.0576 -0.113683,0.0928 -0.179367,0.0928 -0.06568,0 -0.131367,-0.0352 -0.179367,-0.0928 -0.04548,-0.0608 -0.07327,-0.144 -0.07327,-0.2272 0,-0.0416 0.0076,-0.0832 0.02021,-0.1216 z m -1.098942,-0.1056 c 0.09347,-0.1184 0.262735,-0.1184 0.358735,0 0.04547,0.0608 0.07327,0.144 0.07327,0.2272 0,0.0224 -0.0025,0.0416 -0.0051,0.064 -0.0025,0.0192 -0.0076,0.0384 -0.01516,0.0576 -0.005,0.0192 -0.01263,0.0384 -0.02273,0.0544 -0.01011,0.0192 -0.02021,0.0352 -0.03032,0.0512 -0.048,0.0576 -0.113684,0.0928 -0.179367,0.0928 -0.06568,0 -0.131368,-0.0352 -0.179368,-0.0928 -0.04547,-0.0608 -0.07327,-0.144 -0.07327,-0.2272 0,-0.0832 0.02779,-0.1664 0.07327,-0.2272 z M -47.752534,17.4 c 0,0.176 -0.113684,0.32 -0.25263,0.32 h -10.105218 c -0.138947,0 -0.252631,-0.144 -0.252631,-0.32 V 6.52 c 0,-0.176 0.113684,-0.32 0.252631,-0.32 h 10.105218 c 0.138946,0 0.25263,0.144 0.25263,0.32 z"
       id="path8-5-2"
       style="fill:#d3dae3;fill-opacity:1;stroke-width:0.284327" />
  </g>
  <g
     id="22-22-disk-quota-high"
     transform="translate(96)">
    <rect
       style="opacity:0.00100002"
       width="22"
       height="22"
       x="-32"
       y="0"
       id="rect26" />
    <path
       d="m -24.76,11.0928 v 1.419737 c 0.2528,0.3104 1.6384,0.7616 3.76,0.7616 2.1216,0 3.5072,-0.584537 3.76,-0.894937 v -1.2864 c -0.8416,0.6656 -2.3808,0.9568 -3.76,0.9568 -1.3792,0 -2.9184,-0.2912 -3.76,-0.9568 z"
       id="path2-3-3-9"
       sodipodi:nodetypes="ccsccsc"
       style="fill:url(#linearGradient1227);fill-opacity:1;stroke-width:0.32" />
    <path
       d="m -24.76,13.176 v 0.8672 c 0,0.9824 1.8912,1.4976 3.76,1.4976 1.8688,0 3.76,-0.5152 3.76,-1.4976 V 13.176 c -0.8736,0.4 -2.3232,0.7328 -3.76,0.7328 -1.4368,0 -2.8864,-0.3328 -3.76,-0.7328 z"
       id="path4-6-6-5-1"
       sodipodi:nodetypes="cssscsc"
       style="fill:#d3dae3;fill-opacity:1;stroke-width:0.32" />
    <path
       d="m -21,8.3792 c -1.8688,0 -3.76,0.5152 -3.76,1.4976 0,0.9856 1.8912,1.5008 3.76,1.5008 1.8688,0 3.76,-0.5152 3.76,-1.5008 0,-0.9824 -1.8912,-1.4976 -3.76,-1.4976 z"
       id="path6-7-6-2"
       style="fill:url(#linearGradient912);fill-opacity:1;stroke-width:0.32" />
    <path
       d="m -15.518137,3 h -11.019751 c -0.473804,0 -0.85845,0.4832 -0.85845,1.0784 v 13.8432 c 0,0.5952 0.384646,1.0784 0.85845,1.0784 h 11.019751 c 0.473803,0 0.85845,-0.4832 0.85845,-1.0784 V 4.0784 C -14.659687,3.4832 -15.044334,3 -15.518137,3 Z m -5.662715,1.6 h 4.707465 c 0.140104,0 0.254733,0.144 0.254733,0.32 0,0.176 -0.114629,0.32 -0.254733,0.32 h -4.707465 c -0.140104,0 -0.254734,-0.144 -0.254734,-0.32 0,-0.176 0.11463,-0.32 0.254734,-0.32 z m -2.312976,0.1984 c 0.01274,-0.0384 0.03057,-0.0736 0.05349,-0.1056 0.07133,-0.0896 0.183407,-0.1184 0.277658,-0.0672 0.03311,0.016 0.05859,0.0384 0.08407,0.0672 0.02292,0.032 0.04076,0.0672 0.05349,0.1056 0.01274,0.0384 0.02038,0.08 0.02038,0.1216 0,0.0224 -0.0026,0.0416 -0.0051,0.064 -0.0026,0.0192 -0.0076,0.0384 -0.01529,0.0576 -0.0051,0.0192 -0.01274,0.0384 -0.02292,0.0576 -0.01019,0.016 -0.02038,0.032 -0.03057,0.048 -0.0484,0.0576 -0.11463,0.0928 -0.180861,0.0928 -0.01529,0 -0.03311,-0.0038 -0.0484,-0.0073 -0.01783,-0.0038 -0.03312,-0.0095 -0.0484,-0.0192 -0.01528,-0.0073 -0.03057,-0.016 -0.04331,-0.0288 -0.01529,-0.0128 -0.02802,-0.0256 -0.04076,-0.0384 -0.01019,-0.016 -0.02038,-0.032 -0.03057,-0.048 -0.01019,-0.0192 -0.01783,-0.0384 -0.02292,-0.0576 -0.0076,-0.0192 -0.01274,-0.0384 -0.01529,-0.0576 -0.0026,-0.0224 -0.0051,-0.0416 -0.0051,-0.064 0,-0.0416 0.0076,-0.0832 0.02037,-0.1216 z m -1.161583,0 c 0.01274,-0.0384 0.03057,-0.0736 0.0535,-0.1056 0.09425,-0.1184 0.264922,-0.1184 0.361721,0 0.02292,0.032 0.04076,0.0672 0.05349,0.1056 0.01274,0.0384 0.02038,0.08 0.02038,0.1216 0,0.0832 -0.02802,0.1664 -0.07387,0.2272 -0.0484,0.0576 -0.11463,0.0928 -0.18086,0.0928 -0.06623,0 -0.132462,-0.0352 -0.180861,-0.0928 -0.04585,-0.0608 -0.07387,-0.144 -0.07387,-0.2272 0,-0.0416 0.0076,-0.0832 0.02037,-0.1216 z m -1.108088,-0.1056 c 0.09425,-0.1184 0.264922,-0.1184 0.361721,0 0.04585,0.0608 0.07387,0.144 0.07387,0.2272 0,0.0224 -0.0026,0.0416 -0.0051,0.064 -0.0026,0.0192 -0.0076,0.0384 -0.01529,0.0576 -0.0051,0.0192 -0.01274,0.0384 -0.02292,0.0544 -0.01019,0.0192 -0.02038,0.0352 -0.03057,0.0512 -0.0484,0.0576 -0.11463,0.0928 -0.180861,0.0928 -0.06623,0 -0.132461,-0.0352 -0.18086,-0.0928 -0.04585,-0.0608 -0.07387,-0.144 -0.07387,-0.2272 0,-0.0832 0.02802,-0.1664 0.07387,-0.2272 z M -15.678619,17.4 c 0,0.176 -0.11463,0.32 -0.254734,0.32 h -10.18932 c -0.140103,0 -0.254733,-0.144 -0.254733,-0.32 V 6.52 c 0,-0.176 0.11463,-0.32 0.254733,-0.32 h 10.18932 c 0.140104,0 0.254734,0.144 0.254734,0.32 z"
       id="path8-5-2-7"
       style="fill:#d3dae3;fill-opacity:1;stroke-width:0.285508" />
  </g>
  <g
     id="22-22-disk-quota-critical"
     transform="translate(96)">
    <rect
       style="opacity:0.00100002"
       width="22"
       height="22"
       x="0"
       y="0"
       id="rect7" />
    <path
       d="M 17.120317,3 H 6.5385576 C 6.0835909,3 5.7142336,3.4832 5.7142336,4.0784 v 13.8432 c 0,0.5952 0.3693573,1.0784 0.824324,1.0784 H 17.120317 c 0.454976,0 0.824333,-0.4832 0.824333,-1.0784 V 4.0784 C 17.94465,3.4832 17.575293,3 17.120317,3 Z m -5.437641,1.6 h 4.520363 c 0.134535,0 0.244606,0.144 0.244606,0.32 0,0.176 -0.110071,0.32 -0.244606,0.32 h -4.520363 c -0.134534,0 -0.244606,-0.144 -0.244606,-0.32 0,-0.176 0.110072,-0.32 0.244606,-0.32 z M 9.4616274,4.7984 c 0.01224,-0.0384 0.029377,-0.0736 0.051409,-0.1056 0.068546,-0.0896 0.176115,-0.1184 0.2666205,-0.0672 0.031825,0.016 0.056215,0.0384 0.080695,0.0672 0.022032,0.032 0.039078,0.0672 0.051409,0.1056 0.01224,0.0384 0.019584,0.08 0.019584,0.1216 0,0.0224 -0.00272,0.0416 -0.00453,0.064 -0.00272,0.0192 -0.00725,0.0384 -0.014688,0.0576 -0.00453,0.0192 -0.01215,0.0384 -0.022032,0.0576 -0.00979,0.016 -0.019584,0.032 -0.029377,0.048 C 9.8142019,5.2048 9.7506341,5.24 9.6870299,5.24 9.6724323,5.24 9.6552959,5.2362 9.6405169,5.2327 9.6233805,5.2289 9.6086921,5.2232 9.5940038,5.2135 9.5793155,5.2062 9.5646271,5.1975 9.5523868,5.1847 9.5376985,5.1719 9.5254582,5.1591 9.5133086,5.1463 9.5035164,5.1303 9.4937242,5.1143 9.4839319,5.0983 9.4741397,5.0791 9.4667955,5.0599 9.4618994,5.0407 9.4546459,5.0215 9.4496592,5.0023 9.4472111,4.9831 c -0.00272,-0.0224 -0.00453,-0.0416 -0.00453,-0.064 0,-0.0416 0.00725,-0.0832 0.019584,-0.1216 z m -1.1154069,0 c 0.01224,-0.0384 0.029377,-0.0736 0.051409,-0.1056 0.090487,-0.1184 0.2543983,-0.1184 0.3473519,0 0.022033,0.032 0.039078,0.0672 0.051409,0.1056 0.01215,0.0384 0.019585,0.08 0.019585,0.1216 0,0.0832 -0.026929,0.1664 -0.070994,0.2272 C 8.6984686,5.2048 8.6349098,5.24 8.5713056,5.24 8.5077469,5.24 8.4441065,5.2048 8.3976297,5.1472 8.3535646,5.0864 8.326636,5.0032 8.326636,4.92 c 0,-0.0416 0.00725,-0.0832 0.019584,-0.1216 z M 7.2821683,4.6928 c 0.090487,-0.1184 0.2543893,-0.1184 0.3473429,0 0.044065,0.0608 0.070994,0.144 0.070994,0.2272 0,0.0224 -0.00272,0.0416 -0.00453,0.064 -0.00272,0.0192 -0.00725,0.0384 -0.014598,0.0576 C 7.6768403,5.0608 7.6692241,5.08 7.6593412,5.096 7.649549,5.1152 7.6397568,5.1312 7.6299646,5.1472 7.5834515,5.2048 7.5198836,5.24 7.4562886,5.24 7.3927298,5.24 7.3290984,5.2048 7.2826216,5.1472 7.2385566,5.0864 7.211628,5.0032 7.211628,4.92 c 0,-0.0832 0.026929,-0.1664 0.070994,-0.2272 z M 16.966216,17.4 c 0,0.176 -0.110081,0.32 -0.244615,0.32 H 6.9372734 C 6.8027301,17.72 6.6926582,17.576 6.6926582,17.4 V 6.52 c 0,-0.176 0.1100719,-0.32 0.2446152,-0.32 h 9.7843276 c 0.134534,0 0.244615,0.144 0.244615,0.32 z"
       id="path8-5-2-7-6"
       style="fill:#d3dae3;fill-opacity:1;stroke-width:0.279777" />
    <path
       style="color:#eff0f1;fill:url(#linearGradient852-02);fill-opacity:1;stroke:none;stroke-width:0.3"
       d="m 8.18303,9 c -0.33137,0 -0.6,0.275021 -0.6,0.614062 0,0.339047 0.26863,3.585938 0.6,3.585938 0.33137,0 0.6,-3.246891 0.6,-3.585938 0,-0.339041 -0.26862,-0.614058 -0.6,-0.614062 z m 0.0152,4.770114 A 0.61500146,0.61499601 0 0 0 7.583,14.384767 0.61500146,0.61499601 0 0 0 8.19823,15 0.61500146,0.61499601 0 0 0 8.81288,14.384767 0.61500146,0.61499601 0 0 0 8.19823,13.770114 Z"
       class="ColorScheme-Background"
       id="path12-5" />
    <path
       style="color:#eff0f1;fill:url(#linearGradient920);fill-opacity:1;stroke:none;stroke-width:0.3"
       d="m 11.61803,10.299 c -0.33137,0 -0.6,0.275021 -0.6,0.614062 0,0.339047 0.26863,3.585938 0.6,3.585938 0.33137,0 0.6,-3.246891 0.6,-3.585938 0,-0.339041 -0.26862,-0.614058 -0.6,-0.614062 z m 0.0152,4.770114 A 0.61500146,0.61499601 0 0 0 11.018,15.683767 0.61500146,0.61499601 0 0 0 11.63323,16.299 0.61500146,0.61499601 0 0 0 12.24788,15.683767 0.61500146,0.61499601 0 0 0 11.63323,15.069114 Z"
       class="ColorScheme-Background"
       id="path12-5-8" />
    <path
       style="color:#eff0f1;fill:url(#linearGradient852-02-97);fill-opacity:1;stroke:none;stroke-width:0.3"
       d="m 15.19203,9.025 c -0.33137,0 -0.6,0.275021 -0.6,0.614063 0,0.339046 0.26863,3.585938 0.6,3.585938 0.33138,0 0.6,-3.246892 0.6,-3.585938 0,-0.339042 -0.26862,-0.614059 -0.6,-0.614063 z m 0.0152,4.770115 A 0.61500169,0.61499624 0 0 0 14.592,14.409767 0.61500169,0.61499624 0 0 0 15.20723,15.025 0.61500169,0.61499624 0 0 0 15.82188,14.409767 0.61500169,0.61499624 0 0 0 15.20723,13.795115 Z"
       class="ColorScheme-Background"
       id="path12-5-1" />
  </g>
</svg>
