<?xml version="1.0" encoding="UTF-8" standalone="no"?>
<svg
   xmlns:dc="http://purl.org/dc/elements/1.1/"
   xmlns:cc="http://creativecommons.org/ns#"
   xmlns:rdf="http://www.w3.org/1999/02/22-rdf-syntax-ns#"
   xmlns:svg="http://www.w3.org/2000/svg"
   xmlns="http://www.w3.org/2000/svg"
   xmlns:sodipodi="http://sodipodi.sourceforge.net/DTD/sodipodi-0.dtd"
   xmlns:inkscape="http://www.inkscape.org/namespaces/inkscape"
   width="32"
   height="32"
   version="1"
   id="svg12"
   sodipodi:docname="knotes.svg"
   inkscape:version="1.0.1 (3bc2e813f5, 2020-09-07)">
  <metadata
     id="metadata18">
    <rdf:RDF>
      <cc:Work
         rdf:about="">
        <dc:format>image/svg+xml</dc:format>
        <dc:type
           rdf:resource="http://purl.org/dc/dcmitype/StillImage" />
      </cc:Work>
    </rdf:RDF>
  </metadata>
  <defs
     id="defs16" />
  <sodipodi:namedview
     pagecolor="#ffffff"
     bordercolor="#666666"
     borderopacity="1"
     objecttolerance="10"
     gridtolerance="10"
     guidetolerance="10"
     inkscape:pageopacity="0"
     inkscape:pageshadow="2"
     inkscape:window-width="1920"
     inkscape:window-height="1016"
     id="namedview14"
     showgrid="false"
     inkscape:zoom="9.8125"
     inkscape:cx="31.880215"
     inkscape:cy="15.584917"
     inkscape:window-x="0"
     inkscape:window-y="0"
     inkscape:window-maximized="1"
     inkscape:current-layer="svg12"
     inkscape:document-rotation="0">
    <inkscape:grid
       type="xygrid"
       id="grid857"
       originx="0"
       originy="0" />
  </sodipodi:namedview>
  <g
     id="knotes">
    <rect
       style="opacity:0.00100002"
       width="32"
       height="32"
       x="0"
       y="0"
       id="rect7" />
    <path
       style="fill:#00cccc;fill-opacity:1;stroke:none;stroke-width:1.33336"
       id="path3860"
       d="m 8.011955,5.333466 c 0.139801,0 2.666671,-1.324e-4 3.999993,-1.324e-4 C 13.345286,5.3333336 13.345286,4 16.011946,4 c 2.666676,0 2.666676,1.3333336 4.000012,1.3333336 3.999989,0 3.999989,0 3.999989,0 2.666676,0 2.666676,0 2.666676,2.6666666 0,0 0,8.7411988 0,13.3333318 C 26.678623,22.666666 21.338584,28 20.011958,28 17.216922,28 6.678623,28 6.678623,28 5.345287,28 5.345287,28 5.345287,25.333337 c 0,0 -0.101896,-10.449604 0,-17.3333368 0,-2.6666666 0,-2.6666666 2.666672,-2.6666666 2.666667,0 -2e-6,1.324e-4 -4e-6,1.324e-4 z" />
  </g>
  <g
     id="22-22-knotes">
    <rect
       style="opacity:0.00100002"
       width="22"
       height="22"
       x="32"
       y="10"
       id="rect2" />
    <path
       style="fill:#00cccc;fill-opacity:1;stroke:none;stroke-width:0.883325"
       id="path3860-5"
       d="m 37.796684,13.883422 c 0.09262,0 1.766665,-9.2e-5 2.649997,-9.2e-5 0.883337,0 0.883337,-0.88333 2.649996,-0.88333 1.766672,0 1.766672,0.88333 2.650009,0.88333 2.649995,0 2.649995,0 2.649995,0 1.76667,0 1.76667,0 1.76667,1.766669 0,0 0,5.791046 0,8.833335 0,0.883332 -3.537772,4.416666 -4.416665,4.416666 -1.851712,0 -8.833337,0 -8.833337,0 -0.883335,0 -0.883335,0 -0.883335,-1.766665 0,0 -0.06753,-6.922862 0,-11.483336 0,-1.766669 0,-1.766669 1.766673,-1.766669 1.766662,0 -2e-6,9.2e-5 -3e-6,9.2e-5 z" />
  </g>
</svg>
