<?xml version="1.0" encoding="UTF-8" standalone="no"?>
<svg
   xmlns:dc="http://purl.org/dc/elements/1.1/"
   xmlns:cc="http://creativecommons.org/ns#"
   xmlns:rdf="http://www.w3.org/1999/02/22-rdf-syntax-ns#"
   xmlns:svg="http://www.w3.org/2000/svg"
   xmlns="http://www.w3.org/2000/svg"
   xmlns:sodipodi="http://sodipodi.sourceforge.net/DTD/sodipodi-0.dtd"
   xmlns:inkscape="http://www.inkscape.org/namespaces/inkscape"
   sodipodi:docname="update.svg"
   inkscape:version="1.0.2 (e86c870879, 2021-01-15)"
   id="svg846"
   version="1.1"
   viewBox="0 0 8.4666665 8.4666699"
   height="32.000011"
   width="32">
  <defs
     id="defs840" />
  <sodipodi:namedview
     inkscape:document-rotation="0"
     inkscape:snap-midpoints="true"
     inkscape:object-paths="true"
     inkscape:snap-intersection-paths="true"
     inkscape:snap-smooth-nodes="true"
     inkscape:window-maximized="1"
     inkscape:window-y="0"
     inkscape:window-x="0"
     inkscape:window-height="1007"
     inkscape:window-width="1920"
     units="px"
     showgrid="false"
     inkscape:current-layer="update-low"
     inkscape:document-units="px"
     inkscape:cy="2.8007451"
     inkscape:cx="72.925183"
     inkscape:zoom="4.5431767"
     inkscape:pageshadow="2"
     inkscape:pageopacity="0.0"
     borderopacity="1.0"
     bordercolor="#666666"
     pagecolor="#ffffff"
     id="base"
     inkscape:lockguides="false">
    <inkscape:grid
       id="grid1394"
       type="xygrid"
       originx="4.9999999e-06"
       originy="-5.8208293" />
  </sodipodi:namedview>
  <metadata
     id="metadata843">
    <rdf:RDF>
      <cc:Work
         rdf:about="">
        <dc:format>image/svg+xml</dc:format>
        <dc:type
           rdf:resource="http://purl.org/dc/dcmitype/StillImage" />
        <dc:title />
      </cc:Work>
    </rdf:RDF>
  </metadata>
  <style
     type="text/css"
     id="current-color-scheme" />
  <g
     transform="translate(0,-297)"
     id="layer1"
     inkscape:groupmode="layer"
     inkscape:label="Layer 1">
    <g
       id="22-22-update-none">
      <rect
         style="opacity:0.003;fill:#000000;fill-opacity:1;stroke:none;stroke-width:0.10795;stroke-miterlimit:4;stroke-dasharray:none;stroke-opacity:1"
         id="rect1396"
         width="5.8208332"
         height="5.8208332"
         x="0"
         y="291.17914"
         ry="1.2988289e-06" />
      <path
         d="m 4.3357173,292.61835 0.9113638,0.46358 -0.2753727,0.13505 c 0.1135015,0.26819 0.1771964,0.56272 0.1771964,0.87257 0,1.24182 -1.0066667,2.24896 -2.2489567,2.24896 -0.3979734,0 -0.7715224,-0.1044 -1.0957438,-0.28591 l 0.2274818,-0.22748 c 0.2614843,0.13122 0.5555344,0.20689 0.868262,0.20689 1.0727562,0 1.941976,-0.8697 1.941976,-1.94198 0,-0.28782 -0.066568,-0.55888 -0.179112,-0.80456 z m -1.4665676,0.47724 z m 0,0 z m 0.031277,-0.94849 c -1.0727561,0 -1.94197598,0.8697 -1.94197598,1.94245 0,0.28783 0.0665684,0.55889 0.17911198,0.80457 l 0.3275737,0.66664 -0.91136378,-0.46358 0.27537268,-0.13505 c -0.11350144,-0.26819 -0.17719633,-0.56272 -0.17719633,-0.87258 -4.7891e-4,-1.24181 1.00666673,-2.24895 2.24847773,-2.24895 0.3979734,0 0.7715224,0.1044 1.0957438,0.28591 L 3.768689,292.35399 C 3.5072047,292.22277 3.2126757,292.1471 2.9004267,292.1471 Z"
         id="path4"
         sodipodi:nodetypes="cccssccsscccccccccccccccccccccccccccsscccccscc"
         style="fill:#d3dae3;fill-opacity:1;stroke-width:0.00478909" />
      <polygon
         points="16.1,7 10,0 3.9,7 7,7 7,14 13,14 13,7 "
         id="polygon4"
         transform="matrix(0.15397842,0,0,0.13229167,1.3838592,292.76664)"
         style="fill:#d3dae3;fill-opacity:1" />
      <rect
         x="2.4606249"
         y="294.75101"
         width="0.93926561"
         height="0.26458335"
         id="rect6"
         style="fill:#d3dae3;fill-opacity:1;stroke-width:0.143908" />
      <rect
         x="2.4606249"
         y="295.14786"
         width="0.93926561"
         height="0.26458335"
         id="rect8"
         style="fill:#d3dae3;fill-opacity:1;stroke-width:0.143908" />
    </g>
    <g
       id="update-none">
      <rect
         style="opacity:0.003;fill:#000000;fill-opacity:1;stroke:none;stroke-width:0.157018;stroke-miterlimit:4;stroke-dasharray:none;stroke-opacity:1"
         id="rect1396-6"
         width="8.4666672"
         height="8.46667"
         x="0"
         y="297"
         ry="1.8892064e-06" />
      <path
         d="m 6.2659992,299.14316 1.2866189,0.65436 -0.3887572,0.19074 c 0.1602356,0.37847 0.250157,0.79441 0.250157,1.23185 0,1.75301 -1.4211639,3.17497 -3.1749695,3.17497 -0.5618393,0 -1.0891979,-0.14751 -1.5469175,-0.40372 l 0.3211468,-0.32107 c 0.369152,0.1852 0.7842771,0.29208 1.2257707,0.29208 1.5144666,0 2.7415886,-1.22781 2.7415886,-2.74165 0,-0.40625 -0.093983,-0.78904 -0.2528606,-1.13579 z m -2.0704305,0.67362 z m 0,0 z m 0.04416,-1.33902 c -1.5144654,0 -2.7415884,1.22791 -2.7415884,2.74235 0,0.40626 0.093981,0.78898 0.2528617,1.13573 l 0.4624533,0.94116 -1.28661988,-0.65445 0.38875828,-0.1907 c -0.1602367,-0.37858 -0.2501582,-0.79442 -0.2501582,-1.23174 -6.763e-4,-1.75325 1.4211642,-3.17503 3.1742932,-3.17503 0.5618395,0 1.0891994,0.14734 1.5469189,0.40357 l -0.321148,0.32121 c -0.3691506,-0.18524 -0.7849526,-0.2921 -1.2257709,-0.2921 z"
         id="path4-9"
         sodipodi:nodetypes="cccssccsscccccccccccccccccccccccccccsscccccscc"
         style="fill:#d3dae3;fill-opacity:1;stroke-width:0.00676095" />
      <polygon
         points="16.1,7 10,0 3.9,7 7,7 7,14 13,14 13,7 "
         id="polygon4-7"
         style="fill:#d3dae3;fill-opacity:1"
         transform="matrix(0.19550959,0,0,0.17197917,2.2802209,299.50031)" />
      <rect
         x="3.6512501"
         y="302.07999"
         width="1.1641667"
         height="0.34395835"
         id="rect6-5"
         style="fill:#d3dae3;fill-opacity:1;stroke-width:0.18267" />
      <rect
         x="3.6512501"
         y="302.59595"
         width="1.1641667"
         height="0.34395835"
         id="rect8-3"
         style="fill:#d3dae3;fill-opacity:1;stroke-width:0.182671" />
    </g>
    <g
       id="update-high">
      <rect
         style="opacity:0.003;fill:#000000;fill-opacity:1;stroke:none;stroke-width:0.157018;stroke-miterlimit:4;stroke-dasharray:none;stroke-opacity:1"
         id="rect1396-6-9"
         width="8.4666672"
         height="8.46667"
         x="8.4666672"
         y="296.99997"
         ry="1.8892064e-06" />
      <ellipse
         ry="1.0583333"
         rx="0.92604166"
         cy="303.08539"
         cx="14.684375"
         id="path844"
         style="opacity:0;fill:#000000;fill-opacity:1;stroke:none;stroke-width:0.10795;stroke-miterlimit:4;stroke-dasharray:none;stroke-opacity:1" />
      <path
         d="m 14.739019,299.14316 1.286619,0.65436 -0.388757,0.19074 c 0.160235,0.37847 0.250157,0.79441 0.250157,1.23185 0,1.75301 -1.421164,3.17497 -3.17497,3.17497 -0.561839,0 -1.089198,-0.14751 -1.546917,-0.40372 l 0.321147,-0.32107 c 0.369152,0.1852 0.784277,0.29208 1.22577,0.29208 1.514467,0 2.741589,-1.22781 2.741589,-2.74165 0,-0.40625 -0.09398,-0.78904 -0.252861,-1.13579 z m -2.07043,0.67362 z m 0,0 z m 0.04416,-1.33902 c -1.514466,0 -2.7415887,1.22791 -2.7415887,2.74235 0,0.40626 0.09398,0.78898 0.2528617,1.13573 l 0.462453,0.94116 -1.2866224,-0.65445 0.3887587,-0.1907 c -0.1602371,-0.37858 -0.2501586,-0.79442 -0.2501586,-1.23174 -6.763e-4,-1.75325 1.4211663,-3.17503 3.1742963,-3.17503 0.561839,0 1.089199,0.14734 1.546918,0.40357 l -0.321147,0.32121 c -0.369151,-0.18524 -0.784953,-0.2921 -1.225771,-0.2921 z"
         id="path4-9-3"
         sodipodi:nodetypes="cccssccsscccccccccccccccccccccccccccsscccccscc"
         style="fill:#d3dae3;fill-opacity:1;stroke-width:0.00676095" />
      <polygon
         points="3.9,7 7,7 7,14 13,14 13,7 16.1,7 10,0 "
         id="polygon4-6"
         transform="matrix(0.19583504,0,0,0.17197917,10.745618,299.51354)"
         style="fill:#ff0066;fill-opacity:1" />
      <rect
         x="12.121885"
         y="302.0932"
         width="1.1641667"
         height="0.34395835"
         id="rect6-7"
         style="fill:#ff0066;fill-opacity:1;stroke-width:0.182671" />
      <rect
         x="12.121885"
         y="302.60913"
         width="1.1641667"
         height="0.34395835"
         id="rect8-5"
         style="fill:#ff0066;fill-opacity:1;stroke-width:0.182671" />
    </g>
    <g
       id="update-medium">
      <rect
         style="opacity:0.003;fill:#000000;fill-opacity:1;stroke:none;stroke-width:0.157018;stroke-miterlimit:4;stroke-dasharray:none;stroke-opacity:1"
         id="rect1396-6-9-5"
         width="8.4666672"
         height="8.46667"
         x="16.933332"
         y="296.99997"
         ry="1.8892064e-06" />
      <path
         d="m 23.192938,299.14316 1.286619,0.65436 -0.388757,0.19074 c 0.160235,0.37847 0.250157,0.79441 0.250157,1.23185 0,1.75301 -1.421164,3.17497 -3.17497,3.17497 -0.561839,0 -1.089198,-0.14751 -1.546917,-0.40372 l 0.321147,-0.32107 c 0.369152,0.1852 0.784277,0.29208 1.22577,0.29208 1.514467,0 2.741589,-1.22781 2.741589,-2.74165 0,-0.40625 -0.09398,-0.78904 -0.252861,-1.13579 z m -2.07043,0.67362 z m 0,0 z m 0.04416,-1.33902 c -1.514466,0 -2.741589,1.22791 -2.741589,2.74235 0,0.40626 0.09398,0.78898 0.252862,1.13573 l 0.462453,0.94116 -1.286622,-0.65445 0.388758,-0.1907 c -0.160237,-0.37858 -0.250158,-0.79442 -0.250158,-1.23174 -6.77e-4,-1.75325 1.421166,-3.17503 3.174296,-3.17503 0.561839,0 1.089199,0.14734 1.546918,0.40357 l -0.321147,0.32121 c -0.369151,-0.18524 -0.784953,-0.2921 -1.225771,-0.2921 z"
         id="path4-9-3-3"
         sodipodi:nodetypes="cccssccsscccccccccccccccccccccccccccsscccccscc"
         style="fill:#d3dae3;fill-opacity:1;stroke-width:0.00676095" />
      <polygon
         points="7,7 7,14 13,14 13,7 16.1,7 10,0 3.9,7 "
         id="polygon4-5"
         style="fill:#ff7f2a;fill-opacity:1"
         transform="matrix(0.19583504,0,0,0.17197917,19.212285,299.51351)" />
      <rect
         x="20.588552"
         y="302.0932"
         width="1.1641667"
         height="0.34395835"
         id="rect6-6"
         style="fill:#ff7f2a;fill-opacity:1;stroke-width:0.182671" />
      <rect
         x="20.588552"
         y="302.60913"
         width="1.1641667"
         height="0.34395835"
         id="rect8-2"
         style="fill:#ff7f2a;fill-opacity:1;stroke-width:0.182671" />
    </g>
    <g
       id="update-low">
      <rect
         style="opacity:0.003;fill:#000000;fill-opacity:1;stroke:none;stroke-width:0.157018;stroke-miterlimit:4;stroke-dasharray:none;stroke-opacity:1"
         id="rect1396-6-9-1"
         width="8.4666672"
         height="8.46667"
         x="25.4"
         y="296.99997"
         ry="1.8892064e-06" />
      <path
         d="m 31.659651,299.14316 1.286619,0.65436 -0.388757,0.19074 c 0.160235,0.37847 0.250157,0.79441 0.250157,1.23185 0,1.75301 -1.421164,3.17497 -3.17497,3.17497 -0.561839,0 -1.089198,-0.14751 -1.546917,-0.40372 l 0.321147,-0.32107 c 0.369152,0.1852 0.784277,0.29208 1.22577,0.29208 1.514467,0 2.741589,-1.22781 2.741589,-2.74165 0,-0.40625 -0.09398,-0.78904 -0.252861,-1.13579 z m -2.07043,0.67362 z m 0,0 z m 0.04416,-1.33902 c -1.514466,0 -2.741589,1.22791 -2.741589,2.74235 0,0.40626 0.09398,0.78898 0.252862,1.13573 l 0.462453,0.94116 -1.286622,-0.65445 0.388758,-0.1907 c -0.160237,-0.37858 -0.250158,-0.79442 -0.250158,-1.23174 -6.77e-4,-1.75325 1.421166,-3.17503 3.174296,-3.17503 0.561839,0 1.089199,0.14734 1.546918,0.40357 l -0.321147,0.32121 c -0.369151,-0.18524 -0.784953,-0.2921 -1.225771,-0.2921 z"
         id="path4-9-3-3-3"
         sodipodi:nodetypes="cccssccsscccccccccccccccccccccccccccsscccccscc"
         style="fill:#d3dae3;fill-opacity:1;stroke-width:0.00676095" />
      <polygon
         points="13,14 13,7 16.1,7 10,0 3.9,7 7,7 7,14 "
         id="polygon4-1"
         transform="matrix(0.19583504,0,0,0.17197917,27.678952,299.24893)"
         style="fill:#1b76ff;fill-opacity:1" />
      <rect
         x="29.05522"
         y="301.82861"
         width="1.1641667"
         height="0.34395835"
         id="rect6-2"
         style="fill:#1b76ff;fill-opacity:1;stroke-width:0.182671" />
      <rect
         x="29.05522"
         y="302.34457"
         width="1.1641667"
         height="0.34395835"
         id="rect8-7"
         style="fill:#1b76ff;fill-opacity:1;stroke-width:0.182671" />
    </g>
    <g
       id="22-22-update-high">
      <rect
         style="opacity:0.003;fill:#000000;fill-opacity:1;stroke:none;stroke-width:0.10795;stroke-miterlimit:4;stroke-dasharray:none;stroke-opacity:1"
         id="rect1396-3"
         width="5.8208332"
         height="5.8208332"
         x="5.8208332"
         y="291.17914"
         ry="1.2988288e-06" />
      <path
         d="m 10.16978,292.61835 0.911363,0.46358 -0.275372,0.13505 c 0.113501,0.26819 0.177196,0.56272 0.177196,0.87257 0,1.24182 -1.0066663,2.24896 -2.2489563,2.24896 -0.3979734,0 -0.7715223,-0.1044 -1.0957437,-0.28591 l 0.2274818,-0.22748 c 0.2614842,0.13122 0.5555344,0.20689 0.8682619,0.20689 1.0727562,0 1.9419763,-0.8697 1.9419763,-1.94198 0,-0.28782 -0.06657,-0.55888 -0.179112,-0.80456 z m -1.4665677,0.47724 z m 0,0 z m 0.031277,-0.94849 c -1.072756,0 -1.9419759,0.8697 -1.9419759,1.94245 0,0.28783 0.066568,0.55889 0.179112,0.80457 l 0.3275737,0.66664 -0.9113638,-0.46358 0.2753727,-0.13505 c -0.1135015,-0.26819 -0.1771964,-0.56272 -0.1771964,-0.87258 -4.789e-4,-1.24181 1.0066668,-2.24895 2.2484777,-2.24895 0.3979734,0 0.7715225,0.1044 1.0957437,0.28591 l -0.2274813,0.22748 C 9.3412674,292.22277 9.0467383,292.1471 8.7344893,292.1471 Z"
         id="path4-3"
         sodipodi:nodetypes="cccssccsscccccccccccccccccccccccccccsscccccscc"
         style="fill:#d3dae3;fill-opacity:1;stroke-width:0.00478909" />
      <polygon
         points="10,0 3.9,7 7,7 7,14 13,14 13,7 16.1,7 "
         id="polygon4-3"
         transform="matrix(0.15397841,0,0,0.13229167,7.2046926,292.76664)"
         style="fill:#ff0066;fill-opacity:1" />
      <rect
         x="8.2814579"
         y="294.75101"
         width="0.9392674"
         height="0.26458332"
         id="rect6-67"
         style="fill:#ff0066;fill-opacity:1;stroke-width:0.143908" />
      <rect
         x="8.2814579"
         y="295.14786"
         width="0.9392674"
         height="0.26458332"
         id="rect8-53"
         style="fill:#ff0066;fill-opacity:1;stroke-width:0.143908" />
    </g>
    <g
       id="22-22-update-medium">
      <rect
         style="opacity:0.003;fill:#000000;fill-opacity:1;stroke:none;stroke-width:0.10795;stroke-miterlimit:4;stroke-dasharray:none;stroke-opacity:1"
         id="rect1396-3-1"
         width="5.8208332"
         height="5.8208332"
         x="11.641666"
         y="291.17914"
         ry="1.2988288e-06" />
      <path
         d="m 16.00384,292.61835 0.911363,0.46358 -0.275372,0.13505 c 0.113501,0.26819 0.177196,0.56272 0.177196,0.87257 0,1.24182 -1.006667,2.24896 -2.248957,2.24896 -0.397973,0 -0.771522,-0.1044 -1.095743,-0.28591 l 0.227481,-0.22748 c 0.261485,0.13122 0.555535,0.20689 0.868262,0.20689 1.072757,0 1.941976,-0.8697 1.941976,-1.94198 0,-0.28782 -0.06657,-0.55888 -0.179111,-0.80456 z m -1.466568,0.47724 z m 0,0 z m 0.03128,-0.94849 c -1.072756,0 -1.941976,0.8697 -1.941976,1.94245 0,0.28783 0.06657,0.55889 0.179112,0.80457 l 0.327574,0.66664 -0.911364,-0.46358 0.275373,-0.13505 c -0.113502,-0.26819 -0.177197,-0.56272 -0.177197,-0.87258 -4.79e-4,-1.24181 1.006667,-2.24895 2.248478,-2.24895 0.397973,0 0.771523,0.1044 1.095744,0.28591 l -0.227482,0.22748 c -0.261484,-0.13122 -0.556013,-0.20689 -0.868262,-0.20689 z"
         id="path4-7"
         sodipodi:nodetypes="cccssccsscccccccccccccccccccccccccccsscccccscc"
         style="fill:#d3dae3;fill-opacity:1;stroke-width:0.00478909" />
      <polygon
         points="3.9,7 7,7 7,14 13,14 13,7 16.1,7 10,0 "
         id="polygon4-3-5"
         transform="matrix(0.15397835,0,0,0.13229167,13.025526,292.76664)"
         style="fill:#ff7f2a;fill-opacity:1" />
      <rect
         x="14.102292"
         y="294.75095"
         width="0.93926442"
         height="0.26458332"
         id="rect6-67-6"
         style="fill:#ff7f2a;fill-opacity:1;stroke-width:0.143908" />
      <rect
         x="14.102292"
         y="295.1478"
         width="0.93926442"
         height="0.26458332"
         id="rect8-53-2"
         style="fill:#ff7f2a;fill-opacity:1;stroke-width:0.143908" />
    </g>
    <g
       id="22-22-update-low">
      <rect
         style="opacity:0.003;fill:#000000;fill-opacity:1;stroke:none;stroke-width:0.10795;stroke-miterlimit:4;stroke-dasharray:none;stroke-opacity:1"
         id="rect1396-3-2"
         width="5.8208332"
         height="5.8208332"
         x="17.4625"
         y="291.17914"
         ry="1.2988288e-06" />
      <path
         d="m 21.824673,292.61835 0.911363,0.46358 -0.275372,0.13505 c 0.113501,0.26819 0.177196,0.56272 0.177196,0.87257 0,1.24182 -1.006667,2.24896 -2.248957,2.24896 -0.397973,0 -0.771522,-0.1044 -1.095743,-0.28591 l 0.227481,-0.22748 c 0.261485,0.13122 0.555535,0.20689 0.868262,0.20689 1.072757,0 1.941976,-0.8697 1.941976,-1.94198 0,-0.28782 -0.06657,-0.55888 -0.179111,-0.80456 z m -1.466568,0.47724 z m 0,0 z m 0.03128,-0.94849 c -1.072756,0 -1.941976,0.8697 -1.941976,1.94245 0,0.28783 0.06657,0.55889 0.179112,0.80457 l 0.327574,0.66664 -0.911364,-0.46358 0.275373,-0.13505 c -0.113502,-0.26819 -0.177197,-0.56272 -0.177197,-0.87258 -4.79e-4,-1.24181 1.006667,-2.24895 2.248478,-2.24895 0.397973,0 0.771523,0.1044 1.095744,0.28591 l -0.227482,0.22748 c -0.261484,-0.13122 -0.556013,-0.20689 -0.868262,-0.20689 z"
         id="path4-35"
         sodipodi:nodetypes="cccssccsscccccccccccccccccccccccccccsscccccscc"
         style="fill:#d3dae3;fill-opacity:1;stroke-width:0.00478909" />
      <polygon
         points="7,7 7,14 13,14 13,7 16.1,7 10,0 3.9,7 "
         id="polygon4-3-9"
         transform="matrix(0.1539784,0,0,0.13229167,18.846359,292.76664)"
         style="fill:#1b76ff;fill-opacity:1" />
      <rect
         x="19.923124"
         y="294.75101"
         width="0.93926424"
         height="0.26458332"
         id="rect6-67-1"
         style="fill:#1b76ff;fill-opacity:1;stroke-width:0.143908" />
      <rect
         x="19.923124"
         y="295.14786"
         width="0.93926424"
         height="0.26458332"
         id="rect8-53-27"
         style="fill:#1b76ff;fill-opacity:1;stroke-width:0.143908" />
    </g>
  </g>
</svg>
