<?xml version="1.0" encoding="UTF-8" standalone="no"?>
<svg
   xmlns:dc="http://purl.org/dc/elements/1.1/"
   xmlns:cc="http://creativecommons.org/ns#"
   xmlns:rdf="http://www.w3.org/1999/02/22-rdf-syntax-ns#"
   xmlns:svg="http://www.w3.org/2000/svg"
   xmlns="http://www.w3.org/2000/svg"
   xmlns:xlink="http://www.w3.org/1999/xlink"
   xmlns:sodipodi="http://sodipodi.sourceforge.net/DTD/sodipodi-0.dtd"
   xmlns:inkscape="http://www.inkscape.org/namespaces/inkscape"
   inkscape:version="1.0.1 (3bc2e813f5, 2020-09-07)"
   sodipodi:docname="view.svg"
   id="svg873"
   version="1.1"
   height="32"
   width="32">
  <metadata
     id="metadata879">
    <rdf:RDF>
      <cc:Work
         rdf:about="">
        <dc:format>image/svg+xml</dc:format>
        <dc:type
           rdf:resource="http://purl.org/dc/dcmitype/StillImage" />
      </cc:Work>
    </rdf:RDF>
  </metadata>
  <defs
     id="defs877">
    <linearGradient
       inkscape:collect="always"
       id="linearGradient864">
      <stop
         style="stop-color:#008080;stop-opacity:1"
         offset="0"
         id="stop859" />
      <stop
         style="stop-color:#00e5e5;stop-opacity:1"
         offset="1"
         id="stop861" />
    </linearGradient>
    <linearGradient
       id="_lgradient_0"
       x1="0"
       y1="0.5"
       x2="1"
       y2="0.5"
       gradientTransform="matrix(27.999994,0,0,27.999998,1.9766191,1.9139856)"
       gradientUnits="userSpaceOnUse">
      <stop
         offset="0%"
         stop-opacity="1"
         style="stop-color:rgb(105,227,255)"
         id="stop33" />
      <stop
         offset="100%"
         stop-opacity="1"
         style="stop-color:rgb(0,255,194)"
         id="stop35" />
    </linearGradient>
    <linearGradient
       y2="0.5"
       x2="1"
       y1="0.5"
       x1="0"
       gradientTransform="matrix(27.999994,0,0,27.999998,1.9766191,1.9139856)"
       gradientUnits="userSpaceOnUse"
       id="linearGradient888"
       xlink:href="#_lgradient_0"
       inkscape:collect="always" />
    <linearGradient
       gradientUnits="userSpaceOnUse"
       y2="499.98923"
       x2="990.013"
       y1="499.98923"
       x1="9.9975004"
       id="linearGradient920"
       xlink:href="#_lgradient_0-3"
       inkscape:collect="always" />
    <linearGradient
       id="_lgradient_0-3"
       x1="0"
       y1="0.5"
       x2="1"
       y2="0.5"
       gradientTransform="matrix(27.999994,0,0,27.999998,1.9766191,1.9139856)"
       gradientUnits="userSpaceOnUse">
      <stop
         offset="0%"
         stop-opacity="1"
         style="stop-color:#ff8fc3;stop-opacity:1"
         id="stop33-6" />
      <stop
         offset="100%"
         stop-opacity="1"
         style="stop-color:rgb(0,255,194)"
         id="stop35-7" />
    </linearGradient>
    <linearGradient
       inkscape:collect="always"
       xlink:href="#_lgradient_0-3"
       id="linearGradient870"
       gradientUnits="userSpaceOnUse"
       x1="9.9975004"
       y1="499.98923"
       x2="990.013"
       y2="499.98923" />
    <linearGradient
       inkscape:collect="always"
       xlink:href="#linearGradient864"
       id="linearGradient860"
       x1="13.065155"
       y1="14.764828"
       x2="23.597383"
       y2="14.764828"
       gradientUnits="userSpaceOnUse"
       gradientTransform="matrix(0.81012016,0,0,0.80698717,3.6446537,1.9919713)" />
    <linearGradient
       inkscape:collect="always"
       xlink:href="#linearGradient864"
       id="linearGradient863"
       x1="3"
       y1="15.999999"
       x2="28.999998"
       y2="15.999999"
       gradientUnits="userSpaceOnUse" />
  </defs>
  <sodipodi:namedview
     inkscape:current-layer="svg873"
     inkscape:window-maximized="1"
     inkscape:window-y="0"
     inkscape:window-x="0"
     inkscape:cy="18.56145"
     inkscape:cx="33.409395"
     inkscape:zoom="8.4800067"
     showgrid="false"
     id="namedview875"
     inkscape:window-height="1016"
     inkscape:window-width="1920"
     inkscape:pageshadow="2"
     inkscape:pageopacity="0"
     guidetolerance="10"
     gridtolerance="10"
     objecttolerance="10"
     borderopacity="1"
     inkscape:document-rotation="0"
     bordercolor="#666666"
     pagecolor="#ffffff"
     inkscape:lockguides="true">
    <inkscape:grid
       type="xygrid"
       id="grid938" />
  </sodipodi:namedview>
  <g
     transform="translate(-250.00021,54.000004)"
     id="view-refresh">
    <path
       id="path836"
       style="opacity:0.00100002"
       d="m 282.00021,-38.000004 h 16 v 16 h -16 z" />
    <g
       id="g841"
       transform="translate(281.97246,-37.000109)">
      <g
         transform="translate(-485.03396,-41.017475)"
         id="layer12-0">
        <path
           id="path838"
           style="fill:#d3dae3;fill-opacity:1"
           d="m 499.06185,49.01758 c 0,3.31371 -2.68629,6 -6,6 -3.28006,0 -5.94034,-2.63316 -5.99414,-5.90039 a 1,1 0 0 1 -0.006,-0.09961 1,1 0 0 1 1,-1 1,1 0 0 1 1,1 c 0,2.20914 1.79086,4 4,4 2.20914,0 4,-1.79086 4,-4 0,-2.20914 -1.79086,-4 -4,-4 v 2 l -4,-3 4,-3 v 2 c 3.31371,0 6,2.68629 6,6 z" />
      </g>
    </g>
  </g>
  <g
     style="clip-rule:evenodd;fill:url(#linearGradient920);fill-opacity:1;fill-rule:evenodd;stroke-linejoin:round;stroke-miterlimit:1.41420996"
     id="g10"
     transform="matrix(0.02856847,0,0,0.02856847,-24.124545,-5.0891493)">
    <g
       style="fill:url(#linearGradient870);fill-opacity:1"
       transform="matrix(0.1,0,0,-0.1,0,511)"
       id="g8" />
  </g>
  <g
     id="view-history">
    <rect
       ry="0.91472864"
       y="0"
       x="0"
       height="32"
       width="32"
       id="rect817-5"
       style="clip-rule:evenodd;fill:#ffff96;fill-opacity:0;fill-rule:evenodd;stroke-width:1.04154;stroke-linejoin:round;stroke-miterlimit:1.41421;stroke-dasharray:none" />
    <path
       inkscape:connector-curvature="0"
       style="clip-rule:evenodd;opacity:0;isolation:isolate;fill:url(#linearGradient888);fill-rule:evenodd;stroke-width:1.07692;stroke-linejoin:round;stroke-miterlimit:1.41421"
       d="m 16.58508,3.1578315 0.158302,0.00969 c 3.250158,0.1949228 6.306467,1.6240001 8.54,3.9910766 2.234618,2.3724617 3.476309,5.5063079 3.476309,8.7618459 0,3.389077 -1.346151,6.637076 -3.74446,9.034307 -2.397231,2.39723 -5.648462,3.742308 -9.038611,3.742308 -3.390158,0 -6.6413814,-1.345078 -9.0386167,-3.742308 -2.3983075,-2.397231 -3.744461,-5.64523 -3.744461,-9.034307 0,-2.263692 0.6030766,-4.490769 1.7478459,-6.4432304 C 6.0850803,7.5172158 7.7284647,5.8996776 9.7013816,4.786139 v 0 C 9.9932396,4.6213698 10.09662,4.2509089 9.9318486,3.9579856 v 0 C 9.7681596,3.6661389 9.3966196,3.5627543 9.1047746,3.7275235 v 0 C 6.9433883,4.9498315 5.1416955,6.7202928 3.8881574,8.8622926 2.6400031,11.004293 1.9766192,13.438138 1.9766192,15.920446 c 0,3.711076 1.4732301,7.270307 4.1030759,9.892614 2.6233854,2.62877 6.1836869,4.100923 9.8969249,4.100923 3.713229,0 7.27354,-1.472153 9.89692,-4.100923 2.629842,-2.622307 4.10308,-6.181538 4.10308,-9.892614 0,-3.565692 -1.363389,-6.9978454 -3.804771,-9.5953839 C 23.72508,3.7275235 20.378,2.1638314 16.81662,1.9506006 l -0.23154,-0.014 v -0.010769 h -0.17446 l -0.20246,-0.011848 -0.001,0.013997 c -0.469539,0.024771 -0.838921,0.2875384 -0.838921,0.6063078 v 0 13.3861536 c 0,0.670923 0.544921,1.216923 1.216921,1.216923 h 6.696308 v 0 c 0.336,0 0.60846,-0.273539 0.60846,-0.608462 v 0 c 0,-0.336 -0.27246,-0.608461 -0.60846,-0.608461 v 0 h -6.087847 c -0.336,0 -0.608461,-0.273539 -0.608461,-0.608462 z"
       id="path38" />
    <path
       d="m 15.752754,9.657 c 0.84112,0.0012 1.241484,0.679982 1.242485,1.51786 v 4.226897 h 4.243005 c 2.030832,8.02e-4 2.030832,2.756061 0,2.755243 H 15.143259 C 14.638322,18.157 14.229,17.74926 14.229,17.246281 V 11.17486 C 14.2302,10.336982 14.911617,9.6580011 15.752754,9.657 Z m 5.48549,7.892861 c 1.218364,-6.49e-4 1.218364,-1.542065 0,-1.541437 h -4.547521 c -0.168314,0 -0.305225,-0.205723 -0.305225,-0.373389 V 11.17486 c -6.82e-4,-1.2136102 -1.547677,-1.2136102 -1.547004,0 v 6.071421 c 0,0.167667 0.136441,0.30358 0.304765,0.30358 z"
       id="path2"
       style="fill:url(#linearGradient860);fill-opacity:1;stroke-width:0.304165"
       sodipodi:nodetypes="cccccssccccssccccc" />
    <path
       d="M 25.192358,6.807641 C 22.737085,4.352209 19.472326,3 16,3 12.527673,3 9.262915,4.352209 6.807641,6.807641 4.352209,9.263073 3,12.527673 3,16 c 0,3.472325 1.352209,6.736925 3.807641,9.192357 2.455274,2.455273 5.720032,3.807641 9.192359,3.807641 3.472326,0 6.737085,-1.352368 9.192358,-3.807641 2.455273,-2.455432 3.807641,-5.720032 3.807641,-9.192357 0,-3.472327 -1.352368,-6.737086 -3.807641,-9.192359 z M 24.465869,24.465868 C 22.204674,26.72722 19.197949,27.972789 16,27.972789 c -3.198108,0 -6.204675,-1.245569 -8.466028,-3.506921 C 5.27262,22.204673 4.027368,19.197948 4.027368,16 4.027368,12.801892 5.27262,9.795325 7.533972,7.533972 9.795325,5.27262 12.801892,4.027368 16,4.027368 c 3.197949,0 6.204674,1.245252 8.465869,3.506604 2.261352,2.261353 3.506762,5.26792 3.506762,8.466028 0,3.197948 -1.24541,6.204673 -3.506762,8.465868 z m 0,0"
       id="path2-36"
       style="fill:url(#linearGradient863);fill-opacity:1;stroke-width:0.0406249" />
  </g>
</svg>
