<?xml version="1.0" encoding="UTF-8" standalone="no"?>
<svg
   xmlns:dc="http://purl.org/dc/elements/1.1/"
   xmlns:cc="http://creativecommons.org/ns#"
   xmlns:rdf="http://www.w3.org/1999/02/22-rdf-syntax-ns#"
   xmlns:svg="http://www.w3.org/2000/svg"
   xmlns="http://www.w3.org/2000/svg"
   xmlns:xlink="http://www.w3.org/1999/xlink"
   xmlns:sodipodi="http://sodipodi.sourceforge.net/DTD/sodipodi-0.dtd"
   xmlns:inkscape="http://www.inkscape.org/namespaces/inkscape"
   inkscape:version="1.0.1 (3bc2e813f5, 2020-09-07)"
   sodipodi:docname="system-switch-user.svg"
   id="svg5"
   version="1.1"
   viewBox="0 0 32 32">
  <metadata
     id="metadata9">
    <rdf:RDF>
      <cc:Work
         rdf:about="">
        <dc:format>image/svg+xml</dc:format>
        <dc:type
           rdf:resource="http://purl.org/dc/dcmitype/StillImage" />
      </cc:Work>
    </rdf:RDF>
  </metadata>
  <sodipodi:namedview
     inkscape:document-rotation="0"
     inkscape:current-layer="svg5"
     inkscape:window-maximized="1"
     inkscape:window-y="0"
     inkscape:window-x="0"
     inkscape:cy="9.7788792"
     inkscape:cx="-1.299874"
     inkscape:zoom="14.182499"
     showgrid="false"
     id="namedview7"
     inkscape:window-height="1016"
     inkscape:window-width="1920"
     inkscape:pageshadow="2"
     inkscape:pageopacity="0"
     guidetolerance="10"
     gridtolerance="10"
     objecttolerance="10"
     borderopacity="1"
     bordercolor="#666666"
     pagecolor="#ffffff" />
  <defs
     id="defs3051">
    <style
       id="current-color-scheme"
       type="text/css">
      .ColorScheme-Text {
        color:#eff0f1;
      }
      </style>
    <linearGradient
       inkscape:collect="always"
       xlink:href="#linearGradient1065"
       id="linearGradient1079"
       x1="9.6000004"
       y1="18.3335"
       x2="18.131088"
       y2="18.3335"
       gradientUnits="userSpaceOnUse"
       gradientTransform="matrix(0.75724109,0,0,0.75724117,3.653566,3.194356)" />
    <linearGradient
       inkscape:collect="always"
       id="linearGradient1065">
      <stop
         style="stop-color:#008080;stop-opacity:1"
         offset="0"
         id="stop1061" />
      <stop
         style="stop-color:#00e5e5;stop-opacity:1"
         offset="1"
         id="stop1063" />
    </linearGradient>
    <linearGradient
       inkscape:collect="always"
       xlink:href="#linearGradient1065"
       id="linearGradient1071"
       x1="14"
       y1="14.2665"
       x2="22.531088"
       y2="14.2665"
       gradientUnits="userSpaceOnUse"
       gradientTransform="matrix(0.75724111,0,0,0.75724119,3.367774,3.719892)" />
    <linearGradient
       inkscape:collect="always"
       xlink:href="#linearGradient1065"
       id="linearGradient1090"
       x1="3"
       y1="15.999999"
       x2="28.999998"
       y2="15.999999"
       gradientUnits="userSpaceOnUse"
       gradientTransform="matrix(0.92307681,0,0,0.92307681,1.230772,1.230767)" />
  </defs>
  <path
     d="m 12.07693,13.846462 a 1.1552309,1.155231 0 0 1 1.15385,1.15385 v 2.999994 h 2.99999 a 1.1538474,1.1538475 0 0 1 0,2.307695 h -4.615386 a 0.69230752,0.69230766 0 0 1 -0.692306,-0.692309 v -4.61538 a 1.1552309,1.155231 0 0 1 1.153852,-1.15385 z m 4.15384,6.000003 a 0.69231206,0.69231209 0 0 0 0,-1.384622 H 13 a 0.2307692,0.23076921 0 0 1 -0.23077,-0.230762 v -3.230769 a 0.69231027,0.6923103 0 0 0 -1.384614,0 v 4.61538 a 0.2307692,0.23076921 0 0 0 0.230768,0.230773 z"
     id="path2-75356-5"
     style="fill:url(#linearGradient1079);fill-opacity:1;stroke-width:0.230775" />
  <path
     d="m 19.27539,17.753846 a 1.1552311,1.1552312 0 0 1 -1.153846,-1.15385 V 13.6 h -3 a 1.1538471,1.1538472 0 0 1 0,-2.307692 h 4.615386 a 0.6923075,0.69230752 0 0 1 0.692308,0.692306 v 4.615382 a 1.1552311,1.1552312 0 0 1 -1.153848,1.15385 z m -4.153846,-6.000003 a 0.6923126,0.69231263 0 0 0 0,1.384624 h 3.230766 a 0.2307692,0.23076921 0 0 1 0.230772,0.23076 v 3.230769 a 0.69231068,0.69231071 0 0 0 1.384618,0 v -4.615382 a 0.2307692,0.23076921 0 0 0 -0.23077,-0.230771 z"
     id="path2-75356-5-0"
     style="fill:url(#linearGradient1071);fill-opacity:1;stroke-width:0.230776" />
  <path
     d="M 24.485256,7.5147459 C 22.21885,5.2481927 19.20523,4 16,4 12.79477,4 9.78115,5.2481927 7.514744,7.5147459 5.248193,9.781298 4,12.794775 4,16 4,19.205224 5.248193,22.218702 7.514744,24.485258 9.78115,26.751662 12.79477,28 16,28 19.20523,28 22.21885,26.751662 24.485256,24.485258 26.75166,22.218702 28,19.205224 28,16 28,12.794775 26.75166,9.781151 24.485256,7.5147459 Z M 23.81465,23.814649 C 21.72739,25.902052 18.951954,27.051807 16,27.051807 c -2.9521,0 -5.72739,-1.149755 -7.8148,-3.237158 C 6.097802,21.727392 4.948338,18.951953 4.948338,16 4.948338,13.0479 6.097802,10.272608 8.1852,8.1852049 10.27261,6.0978027 13.0479,4.9483397 16,4.9483397 c 2.951954,0 5.72739,1.149463 7.81465,3.2368652 C 25.90205,10.272608 27.05166,13.0479 27.05166,16 c 0,2.951953 -1.14961,5.727392 -3.23701,7.814649 z m 0,0"
     id="path2-36-912709"
     style="fill:url(#linearGradient1090);fill-opacity:1;stroke-width:0.0375" />
</svg>
