<?xml version="1.0" encoding="UTF-8" standalone="no"?>
<svg
   xmlns:dc="http://purl.org/dc/elements/1.1/"
   xmlns:cc="http://creativecommons.org/ns#"
   xmlns:rdf="http://www.w3.org/1999/02/22-rdf-syntax-ns#"
   xmlns:svg="http://www.w3.org/2000/svg"
   xmlns="http://www.w3.org/2000/svg"
   xmlns:sodipodi="http://sodipodi.sourceforge.net/DTD/sodipodi-0.dtd"
   xmlns:inkscape="http://www.inkscape.org/namespaces/inkscape"
   width="35"
   height="35"
   id="svg2396"
   sodipodi:version="0.32"
   inkscape:version="1.0.1 (3bc2e813f5, 2020-09-07)"
   version="1.0"
   sodipodi:docname="scrollwidget.svg"
   inkscape:output_extension="org.inkscape.output.svg.inkscape">
  <sodipodi:namedview
     id="base"
     pagecolor="#ffffff"
     bordercolor="#000000"
     borderopacity="1"
     inkscape:pageopacity="1"
     inkscape:pageshadow="2"
     inkscape:zoom="11.313708"
     inkscape:cx="25.862479"
     inkscape:cy="22.995348"
     inkscape:current-layer="layer1"
     inkscape:document-units="px"
     showgrid="false"
     inkscape:window-width="1920"
     inkscape:window-height="1016"
     inkscape:window-x="0"
     inkscape:window-y="0"
     inkscape:window-maximized="1"
     inkscape:document-rotation="0"
     showguides="false">
    <inkscape:grid
       id="grid2860"
       type="xygrid"
       empspacing="5"
       visible="true"
       enabled="true"
       snapvisiblegridlinesonly="true" />
  </sodipodi:namedview>
  <defs
     id="defs2398">
    <inkscape:perspective
       id="perspective54"
       inkscape:persp3d-origin="64 : 42.666667 : 1"
       inkscape:vp_z="128 : 64 : 1"
       inkscape:vp_y="0 : 1000 : 0"
       inkscape:vp_x="0 : 64 : 1"
       sodipodi:type="inkscape:persp3d" />
    <linearGradient
       id="linearGradient3217">
      <stop
         id="stop3219"
         offset="0"
         style="stop-color:#000000;stop-opacity:1;" />
      <stop
         style="stop-color:#000000;stop-opacity:0.49803922;"
         offset="0.28070176"
         id="stop3173" />
      <stop
         id="stop3175"
         offset="0.55832565"
         style="stop-color:#000000;stop-opacity:0.24705882;" />
      <stop
         id="stop3221"
         offset="1"
         style="stop-color:#000000;stop-opacity:0;" />
    </linearGradient>
    <linearGradient
       id="linearGradient3205">
      <stop
         style="stop-color:#000000;stop-opacity:1;"
         offset="0"
         id="stop3207" />
      <stop
         style="stop-color:#000000;stop-opacity:0;"
         offset="1"
         id="stop3209" />
    </linearGradient>
    <linearGradient
       id="linearGradient3191">
      <stop
         id="stop3193"
         offset="0"
         style="stop-color:#ffffff;stop-opacity:1;" />
      <stop
         id="stop3195"
         offset="1"
         style="stop-color:#ffffff;stop-opacity:0;" />
    </linearGradient>
  </defs>
  <metadata
     id="metadata2401">
    <rdf:RDF>
      <cc:Work
         rdf:about="">
        <dc:format>image/svg+xml</dc:format>
        <dc:type
           rdf:resource="http://purl.org/dc/dcmitype/StillImage" />
        <dc:title />
      </cc:Work>
    </rdf:RDF>
  </metadata>
  <g
     inkscape:groupmode="layer"
     inkscape:label="Layer 1"
     id="layer1"
     transform="translate(0,-93)">
    <rect
       y="33.5"
       x="33.5"
       height="61.5"
       width="64.25"
       id="border-center"
       style="opacity:0.6;fill:#ffffff;fill-opacity:0;stroke:none" />
    <rect
       y="-126.8381"
       x="-10.872583"
       height="9.2106771"
       width="8.5819988"
       id="border-bottomleft"
       style="opacity:0.6;fill:#8b8b8b;fill-opacity:0;stroke:none"
       transform="scale(-1)" />
    <rect
       y="-11.226136"
       x="-126.13099"
       height="9.2106771"
       width="8.5819988"
       id="border-topright"
       style="opacity:0.6;fill:#ffffff;fill-opacity:0;stroke:none"
       transform="scale(-1)" />
    <rect
       transform="scale(-1)"
       style="opacity:0.6;fill:#8b8b8b;fill-opacity:0;stroke:none"
       id="border-bottomright"
       width="8.5819988"
       height="9.2106771"
       x="-126.13099"
       y="-126.8381" />
    <g
       transform="translate(0.03125,75)"
       id="g3794">
      <path
         style="opacity:0.7;fill:#00b4b4;fill-opacity:1;stroke:none"
         d="M 14,47 H 7 C 6.446,47 6,46.554 6,46 V 39 H 5 v 7 c 0,1.108 0.892,2 2,2 h 7 z"
         id="path3687" />
      <path
         style="opacity:0.7;fill:#1f252f;fill-opacity:0.25882354;stroke:none"
         d="M 14,46 H 6.96875 V 39 H 6 v 7 c 0,0.554 0.446,1 1,1 h 7 z"
         id="path3684" />
    </g>
    <g
       id="border-left"
       transform="translate(3,73)">
      <path
         style="opacity:0.7;fill:#00b4b4;fill-opacity:1;stroke:none"
         d="M 3,35 H 2 v 6 h 1 z"
         id="path3701" />
      <path
         style="opacity:0.7;fill:#1f252f;fill-opacity:0.25882354;stroke:none"
         d="M 3.96875,35 H 3 v 6 h 0.96875 z"
         id="path3698" />
      <rect
         style="opacity:0.7;fill:#000000;fill-opacity:0.00392157;stroke:none"
         id="rect3707"
         width="1"
         height="4"
         x="10"
         y="37" />
    </g>
    <g
       id="g3802"
       transform="matrix(1,0,0,-1,0.03125,147)">
      <path
         id="path3726"
         d="M 14,47 H 7 C 6.446,47 6,46.554 6,46 V 39 H 5 v 7 c 0,1.108 0.892,2 2,2 h 7 z"
         style="opacity:0.7;fill:#00b4b4;fill-opacity:1;stroke:none" />
      <path
         id="path3728"
         d="M 14,46 H 6.96875 V 39 H 6 v 7 c 0,0.554 0.446,1 1,1 h 7 z"
         style="opacity:0.7;fill:#1f252f;fill-opacity:0.25882354;stroke:none" />
    </g>
    <g
       transform="rotate(90,-21,76)"
       id="border-top">
      <path
         id="path3732"
         d="M 3,35 H 2 v 6 h 1 z"
         style="opacity:0.7;fill:#00b4b4;fill-opacity:1;stroke:none" />
      <path
         id="path3734"
         d="M 3.96875,35 H 3 v 6 h 0.96875 z"
         style="opacity:0.7;fill:#1f252f;fill-opacity:0.25882354;stroke:none" />
      <rect
         y="37"
         x="10"
         height="4"
         width="1"
         id="rect3736"
         style="opacity:0.7;fill:#000000;fill-opacity:0.00392157;stroke:none" />
    </g>
    <g
       id="border-bottom"
       transform="matrix(0,-1,-1,0,55,125)">
      <path
         style="opacity:0.7;fill:#00b4b4;fill-opacity:1;stroke:none"
         d="M 3,35 H 2 v 6 h 1 z"
         id="path3740" />
      <path
         style="opacity:0.7;fill:#1f252f;fill-opacity:0.25882354;stroke:none"
         d="M 3.96875,35 H 3 v 6 h 0.96875 z"
         id="path3742" />
      <rect
         style="opacity:0.7;fill:#000000;fill-opacity:0.00392157;stroke:none"
         id="rect3744"
         width="1"
         height="4"
         x="10"
         y="37" />
    </g>
    <g
       id="g3814"
       transform="matrix(-1,0,0,1,34,75)">
      <path
         id="path3748"
         d="M 14,47 H 7 C 6.446,47 6,46.554 6,46 V 39 H 5 v 7 c 0,1.108 0.892,2 2,2 h 7 z"
         style="opacity:0.7;fill:#00b4b4;fill-opacity:1;stroke:none" />
      <path
         id="path3750"
         d="M 14,46 H 6.96875 V 39 H 6 v 7 c 0,0.554 0.446,1 1,1 h 7 z"
         style="opacity:0.7;fill:#1f252f;fill-opacity:0.25882354;stroke:none" />
    </g>
    <g
       transform="matrix(-1,0,0,1,31.03125,73)"
       id="border-right">
      <path
         id="path3754"
         d="M 3,35 H 2 v 6 h 1 z"
         style="opacity:0.7;fill:#00b4b4;fill-opacity:1;stroke:none" />
      <path
         id="path3756"
         d="M 3.96875,35 H 3 v 6 h 0.96875 z"
         style="opacity:0.7;fill:#1f252f;fill-opacity:0.25882354;stroke:none" />
      <rect
         y="37"
         x="10"
         height="4"
         width="1"
         id="rect3758"
         style="opacity:0.7;fill:#000000;fill-opacity:0.00392157;stroke:none" />
    </g>
    <g
       transform="rotate(180,17,73.5)"
       id="g3822">
      <path
         style="opacity:0.7;fill:#00b4b4;fill-opacity:1;stroke:none"
         d="M 14,47 H 7 C 6.446,47 6,46.554 6,46 V 39 H 5 v 7 c 0,1.108 0.892,2 2,2 h 7 z"
         id="path3762" />
      <path
         style="opacity:0.7;fill:#1f252f;fill-opacity:0.25882354;stroke:none"
         d="M 14,46 H 6.96875 V 39 H 6 v 7 c 0,0.554 0.446,1 1,1 h 7 z"
         id="path3764" />
    </g>
  </g>
</svg>
