<?xml version="1.0" encoding="UTF-8" standalone="no"?>
<svg
   xmlns:dc="http://purl.org/dc/elements/1.1/"
   xmlns:cc="http://creativecommons.org/ns#"
   xmlns:rdf="http://www.w3.org/1999/02/22-rdf-syntax-ns#"
   xmlns:svg="http://www.w3.org/2000/svg"
   xmlns="http://www.w3.org/2000/svg"
   xmlns:xlink="http://www.w3.org/1999/xlink"
   xmlns:sodipodi="http://sodipodi.sourceforge.net/DTD/sodipodi-0.dtd"
   xmlns:inkscape="http://www.inkscape.org/namespaces/inkscape"
   width="32"
   height="32"
   version="1.1"
   id="svg12"
   sodipodi:docname="bookmarks.svg"
   inkscape:version="1.0.2 (e86c870879, 2021-01-15)">
  <g
     id="22-22-bookmarks"
     transform="translate(32,10)">
    <rect
       y="0"
       x="0"
       height="22"
       width="22"
       id="rect820-6"
       style="clip-rule:evenodd;fill:#2020ff;fill-opacity:0;fill-rule:evenodd;stroke-width:0.6875;stroke-linejoin:round;stroke-miterlimit:1.41421" />
    <path
       d="M 17.193234,4.606766 C 15.512308,2.925739 13.277215,2 10.900001,2 8.522785,2 6.287694,2.925739 4.606765,4.606766 2.925739,6.287798 2,8.522785 2,10.900001 2,13.277215 2.925739,15.512203 4.606765,17.193234 6.287694,18.874148 8.522785,19.8 10.900001,19.8 c 2.377214,0 4.612307,-0.925852 6.293233,-2.606766 1.68091,-1.681031 2.606767,-3.916019 2.606767,-6.293233 0,-2.377216 -0.925857,-4.612308 -2.606767,-6.293235 z M 16.596,16.596 c -1.548047,1.548154 -3.506638,2.300445 -5.695999,2.300445 -2.189479,0 -4.147854,-0.852737 -5.696001,-2.400891 C 3.655835,14.947507 2.903,13.089361 2.903,10.900001 2.903,8.710522 3.855835,6.652179 5.404,5.104032 6.952147,3.555867 8.710522,2.903 10.900001,2.903 c 2.189361,0 4.047952,0.752835 5.595999,2.301 1.548145,1.548147 2.400322,3.506522 2.400322,5.696001 0,2.18936 -0.752177,4.147952 -2.300322,5.695999 z"
       id="path2-36-5"
       style="fill:#009e9e;fill-opacity:1;stroke-width:0.0278125"
       sodipodi:nodetypes="cscscscsccscscscsc" />
    <path
       d="M 12.584027,10.610213 A 0.20494766,0.20494766 0 0 0 12.422122,10.472894 L 11.407622,10.321233 10.9588,9.409216 a 0.20494766,0.20494766 0 0 0 -0.360719,0 l -0.448829,0.912017 -1.010391,0.151661 a 0.20494766,0.20494766 0 0 0 -0.161904,0.137319 0.20494766,0.20494766 0 0 0 0.05124,0.204953 l 0.725514,0.711167 -0.176262,1.00833 a 0.20494766,0.20494766 0 0 0 0.0799,0.204951 0.20494766,0.20494766 0 0 0 0.204948,0.01644 l 0.91612,-0.487776 0.903813,0.479583 a 0.21929387,0.21929387 0 0 0 0.09428,0.02252 0.20494766,0.20494766 0 0 0 0.204941,-0.235688 l -0.178302,-1.008342 0.735752,-0.711169 a 0.20494766,0.20494766 0 0 0 0.04516,-0.204941 z m -1.141552,0.702972 a 0.20494766,0.20494766 0 0 0 -0.05947,0.178299 l 0.125021,0.709121 -0.635339,-0.338163 a 0.20494766,0.20494766 0 0 0 -0.188544,0 l -0.635339,0.338163 0.12503,-0.709121 a 0.20494766,0.20494766 0 0 0 -0.05947,-0.178299 l -0.516479,-0.50008 0.713221,-0.100417 a 0.20494766,0.20494766 0 0 0 0.151668,-0.110675 l 0.315615,-0.647635 0.315622,0.647635 a 0.20494766,0.20494766 0 0 0 0.153701,0.110675 l 0.711168,0.100417 z"
       id="path6-6"
       style="fill:#009e9e;fill-opacity:1;stroke-width:0.204951" />
    <path
       d="M 15.448479,9.670643 A 0.52499053,0.52499053 0 0 0 15.033738,9.318895 L 12.43503,8.930394 11.2853,6.594192 a 0.52499053,0.52499053 0 0 0 -0.923982,0 L 9.211583,8.930394 6.623392,9.318895 a 0.52499053,0.52499053 0 0 0 -0.414744,0.351748 0.52499053,0.52499053 0 0 0 0.131247,0.524979 l 1.858466,1.821724 -0.451498,2.582952 a 0.52499053,0.52499053 0 0 0 0.204762,0.524982 0.52499053,0.52499053 0 0 0 0.524984,0.042 l 2.346704,-1.249476 2.315202,1.228477 a 0.56173991,0.56173988 0 0 0 0.241496,0.05778 0.52499053,0.52499053 0 0 0 0.525002,-0.603746 l -0.456745,-2.582957 1.884714,-1.821725 a 0.52499053,0.52499053 0 0 0 0.115497,-0.524985 z m -2.924198,1.800706 a 0.52499053,0.52499053 0 0 0 -0.152252,0.456735 l 0.320244,1.816473 -1.627472,-0.866228 a 0.52499053,0.52499053 0 0 0 -0.482976,0 L 8.954347,13.744557 9.274593,11.928084 A 0.52499053,0.52499053 0 0 0 9.122345,11.471349 L 7.799362,10.190378 9.626327,9.933135 a 0.52499053,0.52499053 0 0 0 0.388504,-0.283496 l 0.808482,-1.658969 0.808488,1.658969 a 0.52499053,0.52499053 0 0 0 0.393738,0.283496 l 1.821714,0.257243 z"
       id="path6-3-2"
       style="fill:url(#linearGradient854);fill-opacity:1.0;stroke-width:0.524994" />
  </g>
  <metadata
     id="metadata18">
    <rdf:RDF>
      <cc:Work
         rdf:about="">
        <dc:format>image/svg+xml</dc:format>
        <dc:type
           rdf:resource="http://purl.org/dc/dcmitype/StillImage" />
      </cc:Work>
    </rdf:RDF>
  </metadata>
  <defs
     id="defs16">
    <linearGradient
       inkscape:collect="always"
       id="linearGradient864">
      <stop
         style="stop-color:#008080;stop-opacity:1"
         offset="0"
         id="stop859" />
      <stop
         style="stop-color:#00e5e5;stop-opacity:1"
         offset="1"
         id="stop861" />
    </linearGradient>
    <linearGradient
       inkscape:collect="always"
       xlink:href="#linearGradient864"
       id="linearGradient894"
       x1="8.5135155"
       y1="15.807999"
       x2="23.126282"
       y2="15.807999"
       gradientUnits="userSpaceOnUse"
       gradientTransform="matrix(0.92857096,0,0,0.92857093,1.2085966,1.1291456)" />
    <linearGradient
       inkscape:collect="always"
       xlink:href="#linearGradient864"
       id="linearGradient902"
       x1="13.177812"
       y1="16.202782"
       x2="18.47497"
       y2="16.202782"
       gradientUnits="userSpaceOnUse"
       gradientTransform="translate(1.8520079e-4)" />
    <linearGradient
       inkscape:collect="always"
       xlink:href="#linearGradient864"
       id="linearGradient861"
       x1="3"
       y1="15.999999"
       x2="28.999998"
       y2="15.999999"
       gradientUnits="userSpaceOnUse" />
    <linearGradient
       inkscape:collect="always"
       xlink:href="#linearGradient864"
       id="linearGradient854"
       x1="6.1857452"
       y1="10.768552"
       x2="15.475279"
       y2="10.768552"
       gradientUnits="userSpaceOnUse" />
  </defs>
  <sodipodi:namedview
     pagecolor="#ffffff"
     bordercolor="#666666"
     borderopacity="1"
     objecttolerance="10"
     gridtolerance="10"
     guidetolerance="10"
     inkscape:pageopacity="0"
     inkscape:pageshadow="2"
     inkscape:window-width="1920"
     inkscape:window-height="1007"
     id="namedview14"
     showgrid="true"
     inkscape:zoom="9.8125"
     inkscape:cx="47.31825"
     inkscape:cy="20.633021"
     inkscape:window-x="0"
     inkscape:window-y="0"
     inkscape:window-maximized="1"
     inkscape:current-layer="svg12"
     inkscape:document-rotation="0">
    <inkscape:grid
       type="xygrid"
       id="grid857"
       originx="0"
       originy="0" />
  </sodipodi:namedview>
  <g
     id="g997" />
  <g
     id="g999"
     transform="translate(32,10)" />
  <g
     id="bookmarks">
    <rect
       y="0"
       x="0"
       height="32"
       width="32"
       id="rect820"
       style="clip-rule:evenodd;fill:#2020ff;fill-opacity:0;fill-rule:evenodd;stroke-linejoin:round;stroke-miterlimit:1.41421" />
    <path
       d="M 25.192358,6.807641 C 22.737085,4.352209 19.472326,3 16,3 12.527673,3 9.262915,4.352209 6.807641,6.807641 4.352209,9.263073 3,12.527673 3,16 c 0,3.472325 1.352209,6.736925 3.807641,9.192357 2.455274,2.455273 5.720032,3.807641 9.192359,3.807641 3.472326,0 6.737085,-1.352368 9.192358,-3.807641 2.455273,-2.455432 3.807641,-5.720032 3.807641,-9.192357 0,-3.472327 -1.352368,-6.737086 -3.807641,-9.192359 z M 24.465869,24.465868 C 22.204674,26.72722 19.197949,27.972789 16,27.972789 c -3.198108,0 -6.204675,-1.245569 -8.466028,-3.506921 C 5.27262,22.204673 4.027368,19.197948 4.027368,16 4.027368,12.801892 5.27262,9.795325 7.533972,7.533972 9.795325,5.27262 12.801892,4.027368 16,4.027368 c 3.197949,0 6.204674,1.245252 8.465869,3.506604 2.261352,2.261353 3.506762,5.26792 3.506762,8.466028 0,3.197948 -1.24541,6.204673 -3.506762,8.465868 z m 0,0"
       id="path2-36"
       style="fill:url(#linearGradient861);fill-opacity:1;stroke-width:0.0406249" />
    <path
       d="m 18.459816,15.576716 a 0.29936162,0.29936162 0 0 0 -0.236492,-0.20057 l -1.481851,-0.22153 -0.65559,-1.332163 a 0.29936162,0.29936162 0 0 0 -0.526883,0 l -0.655601,1.332163 -1.475847,0.22153 a 0.29936162,0.29936162 0 0 0 -0.236497,0.20057 0.29936162,0.29936162 0 0 0 0.07487,0.299364 l 1.059732,1.038786 -0.257451,1.472853 a 0.29936162,0.29936162 0 0 0 0.116759,0.299364 0.29936162,0.29936162 0 0 0 0.299358,0.02399 l 1.338155,-0.712482 1.320178,0.700502 a 0.3203169,0.3203169 0 0 0 0.137709,0.03294 0.29936162,0.29936162 0 0 0 0.299364,-0.344266 l -0.260448,-1.472855 1.074705,-1.03879 a 0.29936162,0.29936162 0 0 0 0.0659,-0.299359 z m -1.667435,1.026814 a 0.29936162,0.29936162 0 0 0 -0.08683,0.260439 l 0.182614,1.035797 -0.928025,-0.493951 a 0.29936162,0.29936162 0 0 0 -0.275411,0 l -0.928022,0.493951 0.182624,-1.035797 a 0.29936162,0.29936162 0 0 0 -0.08682,-0.260439 l -0.754403,-0.730448 1.041782,-0.146683 a 0.29936162,0.29936162 0 0 0 0.221535,-0.161655 l 0.461019,-0.94598 0.461011,0.94598 a 0.29936162,0.29936162 0 0 0 0.224515,0.161655 l 1.038785,0.146683 z"
       id="path6"
       style="fill:url(#linearGradient902);fill-opacity:1;stroke-width:0.299362" />
    <path
       d="M 22.643846,14.204298 A 0.76684015,0.76684013 0 0 0 22.038045,13.690513 L 18.242185,13.123051 16.5628,9.7106116 a 0.76684015,0.76684013 0 0 0 -1.349639,0 l -1.679378,3.4124394 -3.7805231,0.567462 a 0.76684015,0.76684013 0 0 0 -0.6058035,0.513785 0.76684015,0.76684013 0 0 0 0.1917099,0.766837 l 2.7146127,2.660936 -0.659477,3.772855 a 0.76684015,0.76684013 0 0 0 0.299074,0.766837 0.76684015,0.76684013 0 0 0 0.766832,0.06136 l 3.42777,-1.825081 3.381768,1.794408 a 0.82051885,0.82051882 0 0 0 0.352745,0.08436 0.76684015,0.76684013 0 0 0 0.766845,-0.881867 l -0.667157,-3.772863 2.752959,-2.660934 a 0.76684015,0.76684013 0 0 0 0.168708,-0.76684 z m -4.271306,2.630259 a 0.76684015,0.76684013 0 0 0 -0.222379,0.667145 l 0.467769,2.653271 -2.377203,-1.265285 a 0.76684015,0.76684013 0 0 0 -0.705485,0 l -2.377213,1.265285 0.46778,-2.653271 A 0.76684015,0.76684013 0 0 0 13.40342,16.834557 l -1.932441,-1.87109 2.668608,-0.375751 a 0.76684015,0.76684013 0 0 0 0.56746,-0.414092 l 1.180931,-2.423215 1.180936,2.423215 a 0.76684015,0.76684013 0 0 0 0.575134,0.414092 l 2.66093,0.375751 z"
       id="path6-3"
       style="fill:url(#linearGradient894);fill-opacity:1;stroke-width:0.766841" />
  </g>
</svg>
