<?xml version="1.0" encoding="UTF-8" standalone="no"?>
<svg
   xmlns:dc="http://purl.org/dc/elements/1.1/"
   xmlns:cc="http://creativecommons.org/ns#"
   xmlns:rdf="http://www.w3.org/1999/02/22-rdf-syntax-ns#"
   xmlns:svg="http://www.w3.org/2000/svg"
   xmlns="http://www.w3.org/2000/svg"
   xmlns:sodipodi="http://sodipodi.sourceforge.net/DTD/sodipodi-0.dtd"
   xmlns:inkscape="http://www.inkscape.org/namespaces/inkscape"
   width="32"
   height="32"
   version="1.1"
   id="svg12"
   sodipodi:docname="device.svg"
   inkscape:version="1.0.1 (3bc2e813f5, 2020-09-07)">
  <metadata
     id="metadata18">
    <rdf:RDF>
      <cc:Work
         rdf:about="">
        <dc:format>image/svg+xml</dc:format>
        <dc:type
           rdf:resource="http://purl.org/dc/dcmitype/StillImage" />
      </cc:Work>
    </rdf:RDF>
  </metadata>
  <defs
     id="defs16" />
  <sodipodi:namedview
     pagecolor="#ffffff"
     bordercolor="#666666"
     borderopacity="1"
     objecttolerance="10"
     gridtolerance="10"
     guidetolerance="10"
     inkscape:pageopacity="0"
     inkscape:pageshadow="2"
     inkscape:window-width="1920"
     inkscape:window-height="1016"
     id="namedview14"
     showgrid="false"
     inkscape:zoom="9.8125"
     inkscape:cx="-5.0445845"
     inkscape:cy="7.427088"
     inkscape:window-x="0"
     inkscape:window-y="0"
     inkscape:window-maximized="1"
     inkscape:current-layer="svg12"
     inkscape:document-rotation="0">
    <inkscape:grid
       type="xygrid"
       id="grid865"
       originx="1.4440918e-06"
       originy="-2.6785889e-07" />
  </sodipodi:namedview>
  <g
     id="device-notifier">
    <rect
       style="opacity:0.00100002"
       width="32"
       height="32"
       x="0"
       y="0"
       id="rect7" />
    <path
       d="m 9.3450934,4.4077469 -0.670272,0.398441 V 7.5906213 10.37481 h -0.35632 -0.351666 l 0.01886,5.165528 c 0.0142,5.010756 0.01886,5.18414 0.112406,5.592132 0.239015,1.035897 0.674925,1.668701 1.486011,2.12812 0.9281436,0.534356 2.7748816,0.679578 4.1389356,0.33281 1.157854,-0.299994 1.964042,-1.064061 2.259383,-2.156283 0.178037,-0.656314 0.192241,-1.059407 0.192241,-6.126489 v -4.931165 l -0.337463,-0.01396 -0.342115,-0.01396 -0.01396,-2.7748826 -0.0093,-2.7702297 -0.684476,-0.4030938 -0.684476,-0.4033388 -2.043632,0.00465 -2.04853,0.00465 z m 4.9311646,0.6188447 0.421951,0.2671782 0.01396,2.5170103 0.0093,2.5172559 H 12.073201 9.4249284 V 7.8203309 5.3126266 l 0.43591,-0.2811372 0.4312556,-0.2811371 1.781107,0.00465 h 1.781107 z"
       id="path4-6"
       style="fill:#d3dae3;fill-opacity:1;stroke-width:0.00244893"
       inkscape:connector-curvature="0" />
    <path
       d="m 10.362378,9.2500162 v 0.3749312 h 0.374932 0.374931 V 9.2500162 8.8750851 H 10.73731 10.362378 Z"
       id="path6"
       style="fill:#d3dae3;fill-opacity:1;stroke-width:0.00244893"
       inkscape:connector-curvature="0" />
    <path
       d="m 13.034161,9.2500162 v 0.3749312 h 0.374931 0.374931 V 9.2500162 8.8750851 h -0.374931 -0.374931 z"
       id="path8"
       style="fill:#d3dae3;fill-opacity:1;stroke-width:0.00244893"
       inkscape:connector-curvature="0" />
    <path
       d="m 7.3531334,16.857618 c -0.09845,0.243668 -0.407747,0.932797 -0.693782,1.523479 -0.529703,1.106182 -0.820391,1.884207 -0.970266,2.587539 -0.121956,0.571826 -0.117058,2.062489 0.0046,2.625008 0.107753,0.496888 0.360973,1.232792 0.567172,1.640539 0.468726,0.928144 1.312382,1.884451 2.160936,2.451623 l 0.473378,0.314198 h 3.1826296 3.182874 L 15.7294,27.685806 c 1.143651,-0.768719 2.081101,-2.010816 2.526562,-3.342054 0.234362,-0.712394 0.286035,-1.078019 0.286035,-2.085754 0,-1.425032 -0.15012,-1.982654 -1.054755,-3.890615 -0.304646,-0.646762 -0.618844,-1.331238 -0.693781,-1.523479 l -0.140569,-0.351912 -0.02351,2.109264 c -0.01886,1.607722 -0.04212,2.193751 -0.09379,2.470235 -0.379584,1.940533 -1.528132,2.906146 -3.712333,3.131202 -1.284219,0.135916 -2.521908,-0.06098 -3.4547046,-0.543662 -0.670274,-0.347014 -1.303077,-1.106182 -1.560949,-1.870248 -0.215506,-0.642109 -0.225057,-0.745209 -0.25322,-3.107692 l -0.02816,-2.268689 z m 4.9497776,8.432645 c 0.06098,0.08424 0.07494,0.267178 0.07494,1.012388 0,0.899982 0,0.904635 -0.117304,1.017285 -0.145221,0.145222 -0.22971,0.145222 -0.374931,0 -0.117304,-0.112406 -0.117304,-0.117303 -0.117304,-1.017285 0,-1.031245 0.02351,-1.115488 0.304647,-1.115488 0.112896,0 0.18318,0.03282 0.229955,0.1031 z"
       id="path10"
       style="fill:#d3dae3;fill-opacity:1;stroke-width:0.00244893"
       inkscape:connector-curvature="0" />
    <path
       d="m 23.880962,17.026349 c -0.07959,0.04677 -0.168731,0.154772 -0.2062,0.234362 -0.09845,0.243669 -0.03282,0.440563 0.271831,0.792229 0.384482,0.450114 0.548316,0.698435 0.782678,1.195323 0.281137,0.599988 0.403094,1.106182 0.43591,1.804617 0.05167,1.326585 -0.360973,2.484439 -1.237445,3.435848 -0.140568,0.15012 -0.262525,0.328157 -0.281137,0.393788 -0.112406,0.449869 0.365625,0.867166 0.764066,0.660967 0.182691,-0.0938 0.599988,-0.552969 0.881125,-0.970267 1.307729,-1.950083 1.350096,-4.467093 0.107753,-6.445094 -0.267178,-0.426848 -0.721944,-0.975408 -0.923491,-1.106426 -0.159181,-0.107998 -0.4124,-0.107998 -0.59509,0.0047 z"
       id="path12"
       style="fill:#00cccc;fill-opacity:1;stroke-width:0.00244893"
       inkscape:connector-curvature="0" />
    <path
       d="m 22.287198,17.799721 c -0.220404,0.09845 -0.347013,0.290688 -0.347013,0.529704 0,0.168731 0.02816,0.234362 0.178037,0.403093 0.417298,0.464073 0.637457,0.820392 0.820392,1.321933 0.435909,1.214179 0.196894,2.493745 -0.660967,3.557805 -0.304647,0.374931 -0.337462,0.43591 -0.337462,0.623498 0,0.178037 0.02351,0.234362 0.164078,0.374931 0.154773,0.154772 0.182935,0.164078 0.403094,0.145222 0.2062,-0.02351 0.267178,-0.05143 0.468725,-0.252975 0.131263,-0.12661 0.351422,-0.403094 0.496888,-0.618844 0.942103,-1.406176 1.054754,-3.196834 0.295341,-4.720313 -0.22971,-0.468725 -0.745209,-1.176466 -0.951409,-1.307729 -0.159426,-0.107997 -0.365625,-0.131262 -0.529704,-0.05632 z"
       id="path14"
       style="fill:#00cccc;fill-opacity:1;stroke-width:0.00244893"
       inkscape:connector-curvature="0" />
    <path
       d="m 20.501194,18.812109 c -0.164079,0.09845 -0.281138,0.379584 -0.234363,0.571825 0.01886,0.06098 0.145221,0.257872 0.290688,0.435909 0.717047,0.904635 0.698435,2.034326 -0.05167,2.95292 -0.2062,0.248322 -0.22971,0.304647 -0.22971,0.506194 0,0.201547 0.01886,0.243668 0.173384,0.389135 0.145222,0.131263 0.215506,0.159425 0.374931,0.159425 0.187588,0 0.220404,-0.02351 0.510847,-0.31885 0.562519,-0.590682 0.853207,-1.354749 0.853207,-2.259383 0.0047,-0.782923 -0.210853,-1.410829 -0.698435,-2.057836 -0.121956,-0.164078 -0.286035,-0.337463 -0.365625,-0.384237 -0.187343,-0.112161 -0.435664,-0.112161 -0.623252,0.0049 z"
       id="path16"
       style="fill:#00cccc;fill-opacity:1;stroke-width:0.00244893"
       inkscape:connector-curvature="0" />
  </g>
  <g
     id="22-22-device-notifier"
     transform="translate(32.000011,9.9978151)">
    <rect
       style="opacity:0.00100002"
       width="22"
       height="22"
       x="0"
       y="-4.6484374e-06"
       id="rect2" />
    <path
       d="M 6.4968133,3.271229 6.0499506,3.536859 V 5.393212 7.249394 H 5.8123963 5.5779448 l 0.01257,3.443798 c 0.00946,3.340616 0.012567,3.456215 0.074944,3.728217 0.1593486,0.690621 0.4499646,1.112504 0.9907066,1.418795 0.6187827,0.356239 1.8499822,0.453061 2.7593816,0.221878 0.771928,-0.200001 1.309404,-0.709401 1.506304,-1.437575 0.118696,-0.437558 0.128166,-0.706287 0.128166,-4.084457 V 7.252498 l -0.224984,-0.009 -0.228083,-0.009 -0.0093,-1.849983 -0.0061,-1.84687 L 10.125217,3.268894 9.668885,3 8.306419,3.0036 6.9406877,3.0072 Z m 3.2875507,0.412577 0.28131,0.17812 0.0093,1.678064 0.0061,1.678221 H 8.3156124 6.5500393 V 5.546353 3.874503 L 6.8406553,3.687067 7.1281688,3.49964 8.3156124,3.50334 H 9.503056 Z"
       id="path4-6-3"
       style="fill:#d3dae3;fill-opacity:1;stroke-width:0.00163274"
       inkscape:connector-curvature="0" />
    <path
       d="M 7.1750252,6.499507 V 6.749476 H 7.4249884 7.6749509 V 6.499507 6.249548 H 7.4249884 7.1750252 Z"
       id="path6-6"
       style="fill:#d3dae3;fill-opacity:1;stroke-width:0.00163274"
       inkscape:connector-curvature="0" />
    <path
       d="M 8.9562724,6.499507 V 6.749476 H 9.2062347 9.456197 V 6.499507 6.249548 H 9.2062347 8.9562724 Z"
       id="path8-7"
       style="fill:#d3dae3;fill-opacity:1;stroke-width:0.00163274"
       inkscape:connector-curvature="0" />
    <path
       d="m 5.1687967,11.571413 c -0.065638,0.162444 -0.2718404,0.62188 -0.4625366,1.01569 -0.353147,0.737476 -0.5469453,1.256175 -0.6468652,1.725073 -0.081307,0.381237 -0.078041,1.375041 0.00307,1.75007 0.071837,0.331266 0.2406565,0.821883 0.378127,1.093724 0.3124943,0.618783 0.8749498,1.25634 1.4406718,1.634466 l 0.3155958,0.209476 h 2.121821 2.1219855 l 0.312494,-0.209476 c 0.762458,-0.512495 1.387446,-1.340578 1.68443,-2.228109 0.156245,-0.474941 0.1907,-0.718699 0.1907,-1.390549 0,-0.950046 -0.100089,-1.321811 -0.703199,-2.593822 -0.203106,-0.431186 -0.412578,-0.887519 -0.462533,-1.015683 l -0.09372,-0.234623 -0.01565,1.406226 c -0.01257,1.071852 -0.02806,1.462552 -0.06253,1.646882 -0.253063,1.293725 -1.018787,1.937491 -2.4749689,2.08753 -0.8561742,0.09059 -1.6813273,-0.0407 -2.3032122,-0.362456 C 6.0656123,15.874483 5.6437299,15.368359 5.4718095,14.858959 5.3281338,14.430879 5.3217661,14.362139 5.3029899,12.787105 l -0.018776,-1.512511 z m 3.2999599,5.62195 c 0.040661,0.05623 0.049965,0.178118 0.049965,0.674941 0,0.600007 0,0.603111 -0.078204,0.678219 -0.096817,0.09682 -0.1531448,0.09682 -0.2499623,0 -0.078202,-0.0749 -0.078202,-0.07818 -0.078202,-0.678219 0,-0.687519 0.015671,-0.743684 0.2031051,-0.743684 0.07527,0 0.1221239,0.02183 0.1533081,0.06871 z"
       id="path10-5"
       style="fill:#d3dae3;fill-opacity:1;stroke-width:0.00163274"
       inkscape:connector-curvature="0" />
    <path
       d="m 16.187705,11.683904 c -0.0531,0.03117 -0.112489,0.103187 -0.137468,0.156241 -0.06565,0.16246 -0.02183,0.293717 0.18123,0.528173 0.256328,0.300087 0.365551,0.465638 0.521803,0.796911 0.187422,0.400005 0.268738,0.737482 0.29061,1.203113 0.03438,0.884424 -0.240656,1.656355 -0.82499,2.29064 -0.09369,0.100088 -0.175022,0.218779 -0.187426,0.262543 -0.0749,0.299909 0.243753,0.578119 0.50939,0.440659 0.121804,-0.0626 0.400003,-0.368658 0.58744,-0.646872 0.871848,-1.300095 0.900089,-2.978159 0.07179,-4.296868 -0.178128,-0.284582 -0.481313,-0.650299 -0.61568,-0.737644 -0.106126,-0.072 -0.274947,-0.072 -0.396746,0.0037 z"
       id="path12-3"
       style="fill:#00cccc;fill-opacity:1;stroke-width:0.00163274"
       inkscape:connector-curvature="0" />
    <path
       d="m 15.12517,12.199502 c -0.14695,0.06565 -0.231355,0.193792 -0.231355,0.353144 0,0.112487 0.01876,0.15625 0.1187,0.268743 0.2782,0.309391 0.424985,0.546942 0.546948,0.881317 0.290608,0.809471 0.131257,1.662552 -0.440661,2.371944 -0.20311,0.249958 -0.224987,0.290615 -0.224987,0.415677 0,0.118703 0.01564,0.156251 0.109387,0.249963 0.103185,0.103187 0.121968,0.109398 0.268745,0.09681 0.137467,-0.01562 0.178117,-0.03433 0.312491,-0.168651 0.08749,-0.08436 0.234285,-0.268737 0.331264,-0.412572 0.628094,-0.937482 0.703194,-2.13129 0.196908,-3.146979 -0.153146,-0.312494 -0.496821,-0.784337 -0.634296,-0.871846 -0.106289,-0.072 -0.243761,-0.0875 -0.353144,-0.03759 z"
       id="path14-5"
       style="fill:#00cccc;fill-opacity:1;stroke-width:0.00163274"
       inkscape:connector-curvature="0" />
    <path
       d="m 13.934461,12.87445 c -0.109396,0.06565 -0.187433,0.253059 -0.156252,0.381224 0.01254,0.04072 0.09682,0.171927 0.193803,0.290615 0.478038,0.603118 0.465636,1.356267 -0.03447,1.968679 -0.137467,0.165562 -0.15314,0.20311 -0.15314,0.337473 0,0.134373 0.01254,0.162457 0.115597,0.259438 0.09682,0.08749 0.143676,0.106281 0.249964,0.106281 0.125057,0 0.146938,-0.01563 0.340567,-0.212567 0.375029,-0.39381 0.568828,-0.903198 0.568828,-1.506312 0.0037,-0.521962 -0.14057,-0.940579 -0.465639,-1.371935 -0.08127,-0.109389 -0.190697,-0.22498 -0.243754,-0.256167 -0.124903,-0.07477 -0.290453,-0.07477 -0.415515,0.0039 z"
       id="path16-6"
       style="fill:#00cccc;fill-opacity:1;stroke-width:0.00163274"
       inkscape:connector-curvature="0" />
  </g>
</svg>
