<?xml version="1.0" encoding="UTF-8" standalone="no"?>
<svg
   xmlns:dc="http://purl.org/dc/elements/1.1/"
   xmlns:cc="http://creativecommons.org/ns#"
   xmlns:rdf="http://www.w3.org/1999/02/22-rdf-syntax-ns#"
   xmlns:svg="http://www.w3.org/2000/svg"
   xmlns="http://www.w3.org/2000/svg"
   xmlns:sodipodi="http://sodipodi.sourceforge.net/DTD/sodipodi-0.dtd"
   xmlns:inkscape="http://www.inkscape.org/namespaces/inkscape"
   id="svg4153"
   version="1.1"
   inkscape:version="1.0.1 (3bc2e813f5, 2020-09-07)"
   width="32.000004"
   height="32"
   sodipodi:docname="klipper.svg"
   viewBox="0 0 32.000004 32">
  <metadata
     id="metadata4159">
    <rdf:RDF>
      <cc:Work
         rdf:about="">
        <dc:format>image/svg+xml</dc:format>
        <dc:type
           rdf:resource="http://purl.org/dc/dcmitype/StillImage" />
        <dc:title />
      </cc:Work>
    </rdf:RDF>
  </metadata>
  <defs
     id="defs4157">
    <style
       type="text/css"
       id="current-color-scheme" />
  </defs>
  <sodipodi:namedview
     pagecolor="#ffffff"
     bordercolor="#000000"
     borderopacity="1"
     objecttolerance="10"
     gridtolerance="10000"
     guidetolerance="10"
     inkscape:pageopacity="0"
     inkscape:pageshadow="2"
     inkscape:window-width="1920"
     inkscape:window-height="1016"
     id="namedview4155"
     inkscape:document-units="px"
     showgrid="false"
     inkscape:showpageshadow="false"
     borderlayer="true"
     inkscape:zoom="5.6568545"
     inkscape:cx="44.191898"
     inkscape:cy="7.3704653"
     inkscape:window-x="0"
     inkscape:window-y="0"
     inkscape:window-maximized="1"
     inkscape:current-layer="svg4153"
     fit-margin-top="0"
     fit-margin-left="0"
     fit-margin-right="0"
     fit-margin-bottom="0"
     inkscape:snap-bbox="true"
     inkscape:bbox-nodes="true"
     inkscape:document-rotation="0"
     showguides="false"
     inkscape:lockguides="false">
    <inkscape:grid
       type="xygrid"
       id="grid4140"
       originx="5"
       originy="5.000002" />
    <sodipodi:guide
       position="2,29.999999"
       orientation="28,0"
       id="guide4186"
       inkscape:locked="false" />
    <sodipodi:guide
       position="2,1.999999"
       orientation="0,28.000004"
       id="guide4188"
       inkscape:locked="false" />
    <sodipodi:guide
       position="30.000004,1.999999"
       orientation="-28,0"
       id="guide4190"
       inkscape:locked="false" />
    <sodipodi:guide
       position="30.000004,29.999999"
       orientation="0,-28.000004"
       id="guide4192"
       inkscape:locked="false" />
    <sodipodi:guide
       position="0,31.999999"
       orientation="32,0"
       id="guide4194"
       inkscape:locked="false" />
    <sodipodi:guide
       position="0,-1e-06"
       orientation="0,32.000004"
       id="guide4196"
       inkscape:locked="false" />
    <sodipodi:guide
       position="32.000004,-1e-06"
       orientation="-32,0"
       id="guide4198"
       inkscape:locked="false" />
    <sodipodi:guide
       position="32.000004,31.999999"
       orientation="0,-32.000004"
       id="guide4200"
       inkscape:locked="false" />
  </sodipodi:namedview>
  <inkscape:clipboard
     style="opacity:0.01000001;fill:#00000f;fill-opacity:0;stroke-width:1;stroke-linecap:butt;stroke-linejoin:miter;stroke-miterlimit:4;stroke-dasharray:none;stroke-dashoffset:0;stroke-opacity:1;stroke:none"
     min="0,0"
     max="22,22" />
  <g
     id="klipper">
    <rect
       y="0"
       x="0"
       height="32"
       width="32.000004"
       id="rect4230"
       style="fill:none;fill-opacity:1;stroke:none" />
    <path
       d="M 9.583023,11.623335 9.186416,12.020519 9.049017,11.88312 c -0.06754,-0.06754 -0.17723,-0.06754 -0.244775,0 -0.06754,0.06754 -0.06754,0.177233 0,0.244778 l 0.259785,0.259785 c 0.03404,0.03406 0.07794,0.05082 0.122389,0.05082 0.04447,0 0.08832,-0.01673 0.122389,-0.05082 l 0.51957,-0.519571 c 0.06755,-0.06754 0.06755,-0.177232 0,-0.244777 -0.06754,-0.06754 -0.177807,-0.06754 -0.245352,0 z"
       id="path8-3"
       style="fill:#d3dae3;fill-opacity:1;stroke-width:0.577321" />
    <path
       d="m 8.378193,13.131251 h 1.847364 c 0.09584,0 0.173193,-0.07736 0.173193,-0.173193 v -1.847364 c 0,-0.09584 -0.07736,-0.173193 -0.173193,-0.173193 H 8.378193 c -0.09526,0 -0.173193,0.07736 -0.173193,0.173193 v 1.847364 c 0,0.09584 0.07794,0.173193 0.173193,0.173193 z M 8.551379,11.28388 h 1.500992 v 1.500992 H 8.551379 Z"
       id="path10-6"
       style="fill:#d3dae3;fill-opacity:1;stroke-width:0.577321" />
    <path
       d="M 9.583023,22.456748 9.186416,22.853931 9.049017,22.716533 c -0.06754,-0.06754 -0.17723,-0.06754 -0.244775,0 -0.06754,0.06754 -0.06754,0.177232 0,0.244777 l 0.259785,0.259785 c 0.03404,0.03406 0.07794,0.05082 0.122389,0.05082 0.04447,0 0.08832,-0.01673 0.122389,-0.05082 l 0.51957,-0.51957 c 0.06755,-0.06754 0.06755,-0.177233 0,-0.244777 -0.06754,-0.06754 -0.177807,-0.06754 -0.245352,0 z"
       id="path8-3-7"
       style="fill:#d3dae3;fill-opacity:1;stroke-width:0.577321" />
    <path
       d="m 8.378193,23.964664 h 1.847364 c 0.09584,0 0.173193,-0.07736 0.173193,-0.173194 v -1.847363 c 0,-0.09584 -0.07736,-0.173193 -0.173193,-0.173193 H 8.378193 c -0.09526,0 -0.173193,0.07736 -0.173193,0.173193 v 1.847363 c 0,0.09584 0.07794,0.173194 0.173193,0.173194 z m 0.173186,-1.847371 h 1.500992 v 1.500991 H 8.551379 Z"
       id="path10-6-5"
       style="fill:#d3dae3;fill-opacity:1;stroke-width:0.577321" />
    <path
       d="M 9.583023,17.086544 9.186416,17.483728 9.049017,17.346329 c -0.06754,-0.06754 -0.17723,-0.06754 -0.244775,0 -0.06754,0.06754 -0.06754,0.177232 0,0.244777 l 0.259785,0.259786 c 0.03404,0.03406 0.07794,0.05082 0.122389,0.05082 0.04447,0 0.08832,-0.01673 0.122389,-0.05082 l 0.51957,-0.519571 c 0.06755,-0.06755 0.06755,-0.177232 0,-0.244777 -0.06754,-0.06754 -0.177807,-0.06754 -0.245352,0 z"
       id="path8-3-3"
       style="fill:#d3dae3;fill-opacity:1;stroke-width:0.577321" />
    <path
       d="m 8.378193,18.59446 h 1.847364 c 0.09584,0 0.173193,-0.07736 0.173193,-0.173194 v -1.847363 c 0,-0.09584 -0.07736,-0.173193 -0.173193,-0.173193 H 8.378193 c -0.09526,0 -0.173193,0.07736 -0.173193,0.173193 v 1.847363 c 0,0.09584 0.07794,0.173194 0.173193,0.173194 z m 0.173186,-1.847371 h 1.500992 V 18.24808 H 8.551379 Z"
       id="path10-6-56"
       style="fill:#d3dae3;fill-opacity:1;stroke-width:0.577321" />
    <path
       d="m 12.8625,11.983751 c 0,0.23625 0.2025,0.43875 0.4725,0.43875 h 7.32375 c 0.23625,0 0.4725,-0.2025 0.4725,-0.43875 0,-0.23625 -0.2025,-0.43875 -0.4725,-0.43875 h -7.3575 c -0.23625,0 -0.43875,0.2025 -0.43875,0.43875 z"
       id="path6"
       style="fill:#d3dae3;fill-opacity:1;stroke-width:0.3375" />
    <path
       d="m 21.0975,22.851251 c 0,-0.23625 -0.2025,-0.43875 -0.43875,-0.43875 h -7.3575 c -0.23625,0 -0.43875,0.2025 -0.43875,0.43875 v 0 c 0,0.23625 0.2025,0.43875 0.43875,0.43875 h 7.3575 c 0.23625,0 0.43875,-0.2025 0.43875,-0.43875 z"
       id="path10"
       style="fill:#00cccc;fill-opacity:1;stroke-width:0.3375" />
    <path
       d="m 16.60875,18.632501 -1.215,3.00375 3.00375,-1.24875 7.0875,-7.0875 -1.78875,-1.78875 z m -0.135,2.295 -0.37125,-0.37125 0.6075,-1.485 1.24875,1.24875 z"
       id="path12"
       style="fill:#00cccc;fill-opacity:1;stroke-width:0.3375" />
    <path
       d="m 26.565,11.140001 -0.70875,-0.70875 c -0.30375,-0.30375 -0.77625,-0.30375 -1.08,0 l -0.8775,0.8775 1.78875,1.78875 0.8775,-0.8775 c 0.30375,-0.30375 0.30375,-0.77625 0,-1.08 z"
       id="path14"
       style="fill:#d3dae3;fill-opacity:1;stroke-width:0.3375" />
    <path
       d="m 17.3175,16.945001 h -4.01625 c -0.23625,0 -0.4725,0.23625 -0.4725,0.4725 0,0.23625 0.2025,0.4725 0.4725,0.4725 h 3.105 z"
       id="path16"
       style="fill:#d3dae3;fill-opacity:1;stroke-width:0.3375" />
    <path
       d="m 22.00875,27.070001 c 0,0.54 -0.43875,1.0125 -0.945,1.0125 H 7.395 c -0.50625,0 -0.91125,-0.43875 -0.91125,-1.0125 V 7.731251 c 0,-0.54 0.405,-0.97875 0.91125,-0.97875 h 0.4725 c 0,-0.03375 0,-1.485 0,-1.485 h -1.35 c -0.77625,0 -1.4175,0.675 -1.4175,1.51875 v 21.22875 c 0,0.81 0.64125,1.485 1.4175,1.485 H 21.975 c 0.77625,0 1.4175,-0.675 1.4175,-1.485 v -11.61 l -1.35,1.38375 v 9.28125 z"
       id="path18"
       style="fill:#d3dae3;fill-opacity:1;stroke-width:0.3375" />
    <path
       d="m 20.65875,6.752501 h 0.405 c 0.50625,0 0.945,0.43875 0.945,0.97875 v 4.55625 l 1.35,-1.38375 v -4.1175 c 0,-0.81 -0.6075,-1.51875 -1.4175,-1.51875 H 20.625 c 0,0 0.03375,1.45125 0.03375,1.485 z"
       id="path20"
       style="fill:#d3dae3;fill-opacity:1;stroke-width:0.3375" />
    <path
       d="M 9.04875,7.157501 H 19.4775 c 0.27,0 0.50625,-0.23625 0.50625,-0.50625 L 19.95,5.065001 c 0,-0.135 -0.0675,-0.27 -0.16875,-0.37125 -1.4175,-1.31625 -3.40875,-2.19375 -5.535,-2.19375 v 0 c -2.16,0 -4.1175,0.8775 -5.56875,2.2275 -0.10125,0.10125 -0.16875,0.23625 -0.16875,0.37125 v 1.58625 c 0.03375,0.27 0.27,0.4725 0.54,0.4725 z m 5.1975,-3.9825 c 0.64125,0 1.1475,0.50625 1.1475,1.1475 0,0.64125 -0.50625,1.1475 -1.1475,1.1475 -0.64125,0 -1.1475,-0.50625 -1.1475,-1.1475 0,-0.64125 0.50625,-1.1475 1.1475,-1.1475 z"
       id="path22"
       style="fill:#00cccc;fill-opacity:1;stroke-width:0.3375" />
  </g>
  <g
     id="22-22-klipper">
    <rect
       style="fill:none;fill-opacity:1;stroke:none;stroke-width:0.1;stroke-linecap:square;stroke-linejoin:miter;stroke-miterlimit:4;stroke-dasharray:none;stroke-dashoffset:0;stroke-opacity:1"
       id="rect4148"
       width="22"
       height="22"
       x="49"
       y="5" />
    <path
       d="m 57.75,13.025 c 0,0.175 0.15,0.325 0.35,0.325 h 5.425 c 0.175,0 0.35,-0.15 0.35,-0.325 0,-0.175 -0.15,-0.325 -0.35,-0.325 h -5.45 c -0.175,0 -0.325,0.15 -0.325,0.325 z"
       id="path6-6"
       style="fill:#d3dae3;fill-opacity:1;stroke-width:0.25" />
    <path
       d="M 63.85,21.075 C 63.85,20.9 63.7,20.75 63.525,20.75 h -5.45 c -0.175,0 -0.325,0.15 -0.325,0.325 v 0 c 0,0.175 0.15,0.325 0.325,0.325 h 5.45 c 0.175,0 0.325,-0.15 0.325,-0.325 z"
       id="path10-7"
       style="fill:#00cccc;fill-opacity:1;stroke-width:0.25" />
    <path
       d="m 60.525,17.95 -0.9,2.225 L 61.85,19.25 67.1,14 65.775,12.675 Z m -0.1,1.7 -0.275,-0.275 0.45,-1.1 0.925,0.925 z"
       id="path12-5"
       style="fill:#00cccc;fill-opacity:1;stroke-width:0.25" />
    <path
       d="m 67.9,12.4 -0.525,-0.525 c -0.225,-0.225 -0.575,-0.225 -0.8,0 l -0.65,0.65 1.325,1.325 0.65,-0.65 c 0.225,-0.225 0.225,-0.575 0,-0.8 z"
       id="path14-3"
       style="fill:#d3dae3;fill-opacity:1;stroke-width:0.25" />
    <path
       d="m 61.05,16.7 h -2.975 c -0.175,0 -0.35,0.175 -0.35,0.35 0,0.175 0.15,0.35 0.35,0.35 h 2.3 z"
       id="path16-5"
       style="fill:#d3dae3;fill-opacity:1;stroke-width:0.25" />
    <path
       d="m 64.525,24.2 c 0,0.4 -0.325,0.75 -0.7,0.75 H 53.7 c -0.375,0 -0.675,-0.325 -0.675,-0.75 V 9.875 c 0,-0.4 0.3,-0.725 0.675,-0.725 h 0.35 c 0,-0.025 0,-1.1 0,-1.1 h -1 C 52.475,8.05 52,8.55 52,9.175 V 24.9 c 0,0.6 0.475,1.1 1.05,1.1 H 64.5 c 0.575,0 1.05,-0.5 1.05,-1.1 v -8.6 l -1,1.025 V 24.2 Z"
       id="path18-6"
       style="fill:#d3dae3;fill-opacity:1;stroke-width:0.25" />
    <path
       d="m 63.525,9.15 h 0.3 c 0.375,0 0.7,0.325 0.7,0.725 v 3.375 l 1,-1.025 v -3.05 c 0,-0.6 -0.45,-1.125 -1.05,-1.125 H 63.5 c 0,0 0.025,1.075 0.025,1.1 z"
       id="path20-2"
       style="fill:#d3dae3;fill-opacity:1;stroke-width:0.25" />
    <path
       d="m 54.925,9.45 h 7.725 c 0.2,0 0.375,-0.175 0.375,-0.375 L 63,7.9 C 63,7.8 62.95,7.7 62.875,7.625 61.825,6.65 60.35,6 58.775,6 v 0 c -1.6,0 -3.05,0.65 -4.125,1.65 -0.075,0.075 -0.125,0.175 -0.125,0.275 V 9.1 c 0.025,0.2 0.2,0.35 0.4,0.35 z m 3.85,-2.95 c 0.475,0 0.85,0.375 0.85,0.85 0,0.475 -0.375,0.85 -0.85,0.85 -0.475,0 -0.85,-0.375 -0.85,-0.85 0,-0.475 0.375,-0.85 0.85,-0.85 z"
       id="path22-9"
       style="fill:#00cccc;fill-opacity:1;stroke-width:0.25" />
    <path
       d="m 55.320756,12.758027 -0.293783,0.294208 -0.101776,-0.101775 c -0.05004,-0.05004 -0.131284,-0.05004 -0.181311,0 -0.05004,0.05004 -0.05004,0.131281 0,0.181314 l 0.192427,0.192438 c 0.0252,0.02521 0.05773,0.03763 0.09067,0.03763 0.03296,0 0.06541,-0.0124 0.09068,-0.03763 l 0.384866,-0.384872 c 0.05005,-0.05004 0.05005,-0.13128 0,-0.181313 -0.05004,-0.05004 -0.13171,-0.05004 -0.181741,0 z"
       id="path8-3-1"
       style="fill:#d3dae3;fill-opacity:1;stroke-width:0.427648" />
    <path
       d="m 54.428297,13.875 h 1.368406 c 0.071,0 0.128297,-0.05726 0.128297,-0.128297 V 12.378297 C 55.925,12.307267 55.86774,12.25 55.796703,12.25 H 54.428297 C 54.357727,12.25 54.3,12.30726 54.3,12.378297 v 1.368406 c 0,0.071 0.05772,0.128297 0.128297,0.128297 z m 0.128278,-1.368425 h 1.11185 v 1.11185 h -1.11185 z"
       id="path10-6-2"
       style="fill:#d3dae3;fill-opacity:1;stroke-width:0.427648" />
    <path
       d="m 55.320756,20.782775 -0.293783,0.29421 -0.101776,-0.101776 c -0.05004,-0.05003 -0.131284,-0.05003 -0.181311,0 -0.05004,0.05003 -0.05004,0.131283 0,0.181316 l 0.192427,0.192433 c 0.0252,0.02523 0.05773,0.03764 0.09067,0.03764 0.03296,0 0.06541,-0.01239 0.09068,-0.03764 l 0.384859,-0.384866 c 0.05005,-0.05003 0.05005,-0.131284 0,-0.181317 -0.05004,-0.05003 -0.13171,-0.05003 -0.181741,0 z"
       id="path8-3-7-7"
       style="fill:#d3dae3;fill-opacity:1;stroke-width:0.427648" />
    <path
       d="m 54.428297,21.89975 h 1.368406 c 0.071,0 0.128297,-0.0573 0.128297,-0.128292 v -1.368416 c 0,-0.07099 -0.05726,-0.128293 -0.128297,-0.128293 h -1.368406 c -0.07057,0 -0.128297,0.0573 -0.128297,0.128293 v 1.368416 c 0,0.07099 0.05772,0.128292 0.128297,0.128292 z m 0.128278,-1.368422 h 1.11185 v 1.111844 h -1.11185 z"
       id="path10-6-5-0"
       style="fill:#d3dae3;fill-opacity:1;stroke-width:0.427648" />
    <path
       d="m 55.320756,16.804849 -0.293783,0.294207 -0.101776,-0.101777 c -0.05004,-0.05004 -0.131284,-0.05004 -0.181311,0 -0.05004,0.05004 -0.05004,0.131286 0,0.181316 l 0.192427,0.192436 c 0.0252,0.02524 0.05773,0.03764 0.09067,0.03764 0.03296,0 0.06541,-0.01237 0.09068,-0.03764 l 0.384866,-0.384867 c 0.05005,-0.05005 0.05005,-0.131283 0,-0.181315 -0.05004,-0.05004 -0.13171,-0.05004 -0.181741,0 z"
       id="path8-3-3-9"
       style="fill:#d3dae3;fill-opacity:1;stroke-width:0.427648" />
    <path
       d="m 54.428297,17.921825 h 1.368406 c 0.071,0 0.128297,-0.05729 0.128297,-0.128298 v -1.368419 c 0,-0.071 -0.05726,-0.128283 -0.128297,-0.128283 h -1.368406 c -0.07057,0 -0.128297,0.05727 -0.128297,0.128283 v 1.368419 c 0,0.07099 0.05772,0.128298 0.128297,0.128298 z m 0.128278,-1.368427 h 1.11185 v 1.111844 h -1.11185 z"
       id="path10-6-56-3"
       style="fill:#d3dae3;fill-opacity:1;stroke-width:0.427648" />
  </g>
</svg>
