<?xml version="1.0" encoding="UTF-8" standalone="no"?>
<svg
   xmlns:dc="http://purl.org/dc/elements/1.1/"
   xmlns:cc="http://creativecommons.org/ns#"
   xmlns:rdf="http://www.w3.org/1999/02/22-rdf-syntax-ns#"
   xmlns:svg="http://www.w3.org/2000/svg"
   xmlns="http://www.w3.org/2000/svg"
   xmlns:xlink="http://www.w3.org/1999/xlink"
   xmlns:sodipodi="http://sodipodi.sourceforge.net/DTD/sodipodi-0.dtd"
   xmlns:inkscape="http://www.inkscape.org/namespaces/inkscape"
   width="32"
   height="32"
   version="1.1"
   id="svg122"
   sodipodi:docname="media.svg"
   inkscape:version="1.0.1 (3bc2e813f5, 2020-09-07)">
  <g
     id="22-22-media-eject"
     transform="translate(224,-22)">
    <g
       id="g1410">
      <path
         style="opacity:0.00100002"
         d="M 0,0 H 22 V 22 H 0 Z"
         id="path37" />
      <path
         d="M 16.742221,5.357803 C 15.221792,3.83732 13.200086,3 11.05,3 8.899925,3 6.87821,3.83732 5.357926,5.357803 3.837331,6.878287 3,8.899819 3,11.050001 3,13.200183 3.837331,15.221713 5.357926,16.742197 6.87821,18.262562 8.899925,19.1 11.05,19.1 c 2.150225,0 4.171791,-0.837438 5.692221,-2.357803 1.520336,-1.520484 2.357777,-3.542014 2.357777,-5.692196 0,-2.150181 -0.837441,-4.171802 -2.357777,-5.692198 z m -0.91924,10.934528 C 14.340757,17.549612 13.145345,18.143976 11.05,18.128627 8.825544,18.112247 8.000419,17.694389 6.277029,16.291899 4.876706,14.891701 3.971374,13.030263 3.971374,11.050002 3.971374,9.069626 4.905451,6.964345 6.277029,5.807438 7.815763,4.455319 9.098324,3.986159 11.05,3.971375 c 1.980213,-0.01506 3.305591,0.61681 4.772981,1.83621 1.400277,1.40028 2.305652,3.262041 2.305652,5.242417 0,1.980261 -0.905375,3.842136 -2.305652,5.242329 z"
         id="path2-36-912-3-3-35-3-75-2"
         style="fill:#d3dae3;fill-opacity:1;stroke-width:0.0251561"
         sodipodi:nodetypes="cscscscsccscscscsc" />
      <path
         d="m 11.05012,6.488329 a 0.48463335,0.48464113 0 0 1 0.343857,0.142263 l 3.868789,3.868868 a 0.85113123,0.8511454 0 0 1 -1.20368,1.203683 L 11.05012,8.693892 8.041156,11.703143 a 0.85278933,0.8528035 0 0 1 -1.203657,0 v 0 a 0.85108625,0.85110146 0 0 1 0,-1.203683 L 10.706298,6.630592 A 0.48463335,0.48464113 0 0 1 11.05012,6.488329 Z m 3.610804,4.977482 a 0.36475152,0.36475757 0 0 0 0.258001,-0.622505 L 11.05012,6.974433 7.18133,10.843306 a 0.36478264,0.36478849 0 1 0 0.515999,0.51575 l 3.180878,-3.180913 a 0.25021947,0.25022373 0 0 1 0.343831,0 l 3.180886,3.181172 a 0.36475152,0.36475757 0 0 0 0.258,0.106496 z"
         id="path4-3-2-9-8"
         style="fill:#d3dae3;fill-opacity:1;stroke-width:0.243181" />
      <path
         d="m 7.748268,12.247198 h 6.655869 a 1.2799796,0.92884824 0 0 1 0,1.857675 H 7.748268 a 1.2799796,0.92884824 0 0 1 0,-1.857675 z m 6.655869,1.48613 a 0.76801427,0.55732836 0 0 0 0,-1.114603 H 7.748268 a 0.76801427,0.55732836 0 0 0 0,1.114603 z"
         id="path8-6-7-36-2-9"
         style="fill:#d3dae3;fill-opacity:1;stroke-width:0.218075" />
    </g>
  </g>
  <g
     id="22-22-media-seek-forward"
     transform="translate(192,-22)">
    <path
       style="opacity:0.00100002"
       d="M 0,0 H 22 V 22 H 0 Z"
       id="path27" />
    <path
       d="M 16.65688,5.343158 C 15.145878,3.83212 13.136722,3 11.000001,3 8.863279,3 6.854121,3.83212 5.343279,5.343158 3.83213,6.854198 3,8.863179 3,10.999999 3,13.136818 3.83213,15.145797 5.343279,16.656836 6.854121,18.167774 8.863279,19 11.000001,19 c 2.136878,0 4.145877,-0.832226 5.656879,-2.343164 1.51088,-1.511039 2.343121,-3.520018 2.343121,-5.656837 0,-2.13682 -0.832241,-4.145889 -2.343121,-5.656841 z m -0.913553,10.866609 c -1.473007,1.249471 -2.661005,1.840148 -4.743326,1.8249 C 8.789359,18.018475 7.96936,17.603125 6.256674,16.209334 4.865052,14.817831 3.965339,12.967972 3.965339,10.999999 3.965339,9.031929 4.89362,6.939722 6.256674,5.79 7.785852,4.446279 9.060447,3.980033 11.000001,3.965339 c 1.967918,-0.01495 3.285051,0.612981 4.743326,1.824805 1.391595,1.391586 2.291336,3.241785 2.291336,5.209855 0,1.967972 -0.899741,3.818265 -2.291336,5.209768 z"
       id="path2-36-912-3-7-0"
       style="fill:#d3dae3;fill-opacity:1;stroke-width:0.0249999"
       sodipodi:nodetypes="cscscscsccscscscsc" />
    <path
       d="m 11.896705,11.100899 a 0.48163093,0.4816232 0 0 1 -0.141387,0.341702 L 7.91048,15.287371 A 0.84585974,0.8458456 0 0 1 6.714273,14.091167 L 9.70484,11.100899 6.714273,8.110638 a 0.84750666,0.84749216 0 0 1 0,-1.196204 v 0 a 0.84581478,0.8458 0 0 1 1.196207,0 l 3.844838,3.84476 a 0.48163093,0.4816232 0 0 1 0.141387,0.341705 z m -4.94657,3.588369 a 0.362492,0.36248598 0 0 0 0.618641,0.256399 L 11.413617,11.100899 7.568776,7.256122 A 0.36252367,0.36251768 0 1 0 7.056225,7.768919 l 3.161163,3.161127 a 0.24866954,0.24866531 0 0 1 0,0.341704 l -3.16142,3.161119 a 0.362492,0.36248598 0 0 0 -0.105833,0.256399 z"
       id="path4-3-9-2"
       style="fill:#d3dae3;fill-opacity:1;stroke-width:0.241669" />
    <path
       d="m 15.982163,11.100899 a 0.48163093,0.4816232 0 0 1 -0.141359,0.341702 l -3.844843,3.844771 a 0.84585882,0.84584436 0 0 1 -1.196203,-1.196205 l 2.990561,-2.990269 -2.990561,-2.99026 a 0.84750666,0.84749216 0 0 1 0,-1.196204 v 0 a 0.84581478,0.8458 0 0 1 1.196203,0 l 3.844843,3.844759 a 0.48163093,0.4816232 0 0 1 0.141359,0.341706 z M 11.0356,14.689268 a 0.362492,0.36248598 0 0 0 0.618671,0.256399 l 3.844825,-3.844768 -3.844825,-3.844776 a 0.36252914,0.36252332 0 1 0 -0.512583,0.512796 l 3.161175,3.161127 a 0.24866954,0.24866531 0 0 1 0,0.341704 l -3.161398,3.161119 A 0.362492,0.36248598 0 0 0 11.0356,14.689268 Z"
       id="path4-3-2-3"
       style="fill:#d3dae3;fill-opacity:1;stroke-width:0.241669" />
  </g>
  <g
     id="22-22-media-seek-backward"
     transform="translate(160,-22)">
    <path
       style="opacity:0.00100002"
       d="M 22,0 H 0 v 22 h 22 z"
       id="path32" />
    <path
       d="M 16.656868,5.343159 C 15.14588,3.832125 13.136733,3 11.000001,3 8.8632672,3 6.8541141,3.832125 5.3432672,5.343159 3.83214,6.8542 3,8.863176 3,11.000001 3,13.136825 3.83214,15.1458 5.3432672,16.65684 6.8541141,18.167771 8.8632672,19 11.000001,19 c 2.136867,0 4.145879,-0.832229 5.656867,-2.34316 1.510892,-1.511039 2.343131,-3.520015 2.343131,-5.656839 0,-2.136825 -0.832239,-4.145894 -2.343131,-5.656842 z M 15.743333,16.209771 C 14.27032,17.45924 13.082332,18.049915 11.000001,18.034663 8.7893492,18.018423 7.969364,17.60312 6.2566667,16.209336 4.8650601,14.817839 3.9653338,12.967967 3.9653338,11.000001 3.9653338,9.031933 4.8936106,6.93972 6.2566667,5.79 7.7858613,4.446274 9.0604548,3.980029 11.000001,3.965338 c 1.96791,-0.01493 3.285057,0.612982 4.743332,1.824805 1.391584,1.39159 2.291333,3.24179 2.291333,5.209859 0,1.967967 -0.899749,3.818267 -2.291333,5.209769 z"
       id="path2-36-912-3-3-35-3-3-6"
       style="fill:#d3dae3;fill-opacity:1;stroke-width:0.0249998"
       sodipodi:nodetypes="cscscscsccscscscsc" />
    <path
       d="m 10.200002,11.06676 a 0.48163093,0.4816232 0 0 1 0.141371,-0.341716 l 3.844832,-3.844765 a 0.84585961,0.84584619 0 0 1 1.196225,1.196208 l -2.990562,2.990273 2.990562,2.99027 a 0.8475064,0.84749231 0 0 1 0,1.196192 v 0 a 0.8458146,0.84580038 0 0 1 -1.196225,0 L 10.341373,11.408451 A 0.48163093,0.4816232 0 0 1 10.200002,11.06676 Z M 15.146567,7.478378 A 0.36249199,0.36248599 0 0 0 14.527916,7.221992 l -3.844832,3.844768 3.844832,3.844764 a 0.36252297,0.3625172 0 1 0 0.512562,-0.512796 l -3.161171,-3.161119 a 0.2486695,0.24866535 0 0 1 0,-0.3417 L 15.04072,7.734787 a 0.36249199,0.36248599 0 0 0 0.105847,-0.256409 z"
       id="path4-3-75-6-1"
       style="fill:#d3dae3;fill-opacity:1;stroke-width:0.241664" />
    <path
       d="M 6.2080015,11.06676 A 0.48163093,0.4816232 0 0 1 6.3493727,10.725043 L 10.194205,6.880279 a 0.84585952,0.84584537 0 0 1 1.196224,1.196208 l -2.9905608,2.990273 2.9905608,2.99027 a 0.8475064,0.84749231 0 0 1 0,1.196192 v 0 a 0.8458146,0.84580038 0 0 1 -1.196224,0 L 6.3493727,11.408451 A 0.48163093,0.4816232 0 0 1 6.2080015,11.06676 Z M 11.154566,7.478378 A 0.36249199,0.36248599 0 0 0 10.535913,7.221992 l -3.8448289,3.844768 3.8448289,3.844763 a 0.36252291,0.36251711 0 1 0 0.512564,-0.512796 L 7.8873068,11.237608 a 0.2486695,0.24866535 0 0 1 0,-0.341701 L 11.048719,7.734785 a 0.36249199,0.36248599 0 0 0 0.105847,-0.256407 z"
       id="path4-3-75-2-8"
       style="fill:#d3dae3;fill-opacity:1;stroke-width:0.241664" />
  </g>
  <g
     id="22-22-media-skip-forward"
     transform="translate(128,-22)">
    <path
       style="opacity:0.00100002"
       d="M 0,0 H 22 V 22 H 0 Z"
       id="path17" />
    <path
       d="M 16.656871,5.343161 C 15.145882,3.832127 13.136727,3 11,3 8.863274,3 6.854117,3.832127 5.343274,5.343161 3.832133,6.854201 3,8.863174 3,11 3,13.136827 3.832133,15.145798 5.343274,16.656839 6.854117,18.16777 8.863274,19 11,19 c 2.136874,0 4.145882,-0.83223 5.656871,-2.343161 1.510889,-1.51104 2.343127,-3.520012 2.343127,-5.656839 0,-2.136825 -0.832238,-4.145893 -2.343127,-5.656839 z M 15.743333,16.20977 C 14.27032,17.459238 13.082325,18.049914 11,18.034665 8.789357,18.018405 7.96936,17.60312 6.256667,16.209334 4.865056,14.817839 3.965335,12.96797 3.965335,11.000001 3.965335,9.031932 4.893616,6.939718 6.256667,5.79 7.785858,4.446272 9.060453,3.980027 11,3.965336 c 1.967919,-0.01491 3.285054,0.612984 4.743333,1.824805 1.391585,1.391592 2.291333,3.241791 2.291333,5.20986 0,1.96797 -0.899748,3.818266 -2.291333,5.209769 z"
       id="path2-36-912-3-3-35-3-7"
       style="fill:#d3dae3;fill-opacity:1;stroke-width:0.025"
       sodipodi:nodetypes="cscscscsccscscscsc" />
    <path
       d="M 12.466667,14.199968 V 7.585435 a 0.9230784,1.2720295 0 0 1 1.846132,0 v 6.614533 a 0.9230784,1.2720295 0 0 1 -1.846132,0 z m 1.476909,-6.614533 a 0.55386675,0.763244 0 0 0 -1.10768,0 v 6.614533 a 0.55386675,0.763244 0 0 0 1.10768,0 z"
       id="path8-6-7-36-6-0"
       style="fill:#d3dae3;fill-opacity:1;stroke-width:0.21672" />
    <path
       d="m 12.283093,10.933561 a 0.48163088,0.48162317 0 0 1 -0.141372,0.341715 L 8.29688,15.120038 A 0.84585828,0.84584412 0 0 1 7.100667,13.923832 l 2.99056,-2.990271 -2.99056,-2.990272 a 0.84750652,0.84749242 0 0 1 0,-1.196194 v 0 a 0.84581478,0.8458 0 0 1 1.196213,0 l 3.844841,3.844772 a 0.48163088,0.48162317 0 0 1 0.141372,0.341694 z m -4.946567,3.588381 a 0.36249197,0.36248601 0 0 0 0.618647,0.256385 l 3.84484,-3.844766 -3.84484,-3.844766 A 0.36252278,0.36251691 0 1 0 7.442618,7.60159 l 3.161167,3.161121 a 0.24866948,0.24866533 0 0 1 0,0.3417 l -3.161412,3.16112 a 0.36249197,0.36248601 0 0 0 -0.105847,0.256411 z"
       id="path4-3-753-9"
       style="fill:#d3dae3;fill-opacity:1;stroke-width:0.241664" />
  </g>
  <g
     id="22-22-media-skip-backward"
     transform="translate(96,-22)">
    <path
       style="opacity:0.00100002"
       d="M 22,0 H 0 v 22 h 22 z"
       id="path22" />
    <path
       d="M 7.326664,14.55784 V 7.9433 a 0.92307801,1.2720301 0 0 1 1.846133,0 v 6.61454 a 0.92307801,1.2720301 0 0 1 -1.846133,0 z M 8.803576,7.9433 a 0.5538667,0.76324403 0 0 0 -1.10768,0 v 6.61454 a 0.5538667,0.76324403 0 0 0 1.10768,0 z"
       id="path8-6-7-36-9"
       style="fill:#d3dae3;fill-opacity:1;stroke-width:0.216721" />
    <path
       d="M 9.351464,11.27663 A 0.48163089,0.4816231 0 0 1 9.49284,10.93501 l 3.844837,-3.8448 a 0.84585859,0.8458449 0 0 1 1.196218,1.19619 l -2.99056,2.99023 2.99056,2.99032 a 0.84750638,0.84749219 0 0 1 0,1.19625 v 0 a 0.8458145,0.84580017 0 0 1 -1.196218,0 L 9.49284,11.6184 A 0.48163089,0.4816231 0 0 1 9.351464,11.27663 Z M 14.298031,7.6883 A 0.36249191,0.362486 0 0 0 13.67938,7.43185 l -3.844835,3.84478 3.844835,3.84478 a 0.36252294,0.36251705 0 1 0 0.512559,-0.51275 l -3.161164,-3.16115 a 0.24866943,0.24866538 0 0 1 0,-0.34168 l 3.16141,-3.16109 A 0.36249191,0.362486 0 0 0 14.298031,7.6883 Z"
       id="path4-3-75-1"
       style="fill:#d3dae3;fill-opacity:1;stroke-width:0.241661" />
    <path
       d="M 16.656867,5.3432 C 15.145878,3.83216 13.13673,3 11,3 8.86327,3 6.854115,3.83216 5.34327,5.3432 3.832139,6.85419 3,8.8632 3,11 3,13.1368 3.832139,15.1458 5.34327,16.6568 6.854115,18.16775 8.86327,19 11,19 c 2.13687,0 4.145878,-0.83225 5.656867,-2.3432 1.510893,-1.511 2.34313,-3.52 2.34313,-5.6568 0,-2.1368 -0.832237,-4.1459 -2.34313,-5.6568 z M 15.743335,16.20979 C 14.27032,17.45926 13.082328,18.04992 11,18.03464 8.789353,18.01834 7.96936,17.60308 6.256665,16.20935 4.865059,14.81785 3.965336,12.96796 3.965336,11 c 0,-1.9681 0.92828,-4.06027 2.291329,-5.21 C 7.785859,4.44623 9.060455,3.98 11,3.96536 c 1.967915,-0.0144 3.285057,0.61301 4.743335,1.82479 1.39158,1.39156 2.291329,3.24175 2.291329,5.20985 0,1.96796 -0.899749,3.8183 -2.291329,5.20979 z"
       id="path2-36-912-3-3-35-2"
       style="fill:#d3dae3;fill-opacity:1;stroke-width:0.0249998"
       sodipodi:nodetypes="cscscscsccscscscsc" />
  </g>
  <g
     id="media-skip-backward"
     transform="translate(96)">
    <path
       style="opacity:0.00100002"
       d="M 32.000001,-5e-7 H 0 V 32 h 32.000001 z"
       id="path77" />
    <path
       d="M 10.39,21.336799 V 11.415 a 1.3846171,1.9080453 0 0 1 2.769197,0 v 9.921799 a 1.3846171,1.9080453 0 0 1 -2.769197,0 z M 12.60536,11.415 a 0.83080006,1.1448663 0 0 0 -1.66152,0 v 9.921799 a 0.83080006,1.1448663 0 0 0 1.66152,0 z"
       id="path8-6-7-36"
       style="fill:#d3dae3;fill-opacity:1;stroke-width:0.32508" />
    <path
       d="m 13.727001,16.415 a 0.7224463,0.7224346 0 0 1 0.212058,-0.512554 l 5.767249,-5.767155 a 1.2687868,1.2687662 0 0 1 1.794335,1.794305 l -4.485841,4.485404 4.485841,4.485405 a 1.2712591,1.2712385 0 0 1 0,1.794302 v 0 a 1.2687215,1.2687009 0 0 1 -1.794335,0 L 13.939059,16.927555 A 0.7224463,0.7224346 0 0 1 13.727001,16.415 Z m 7.419847,-5.382553 a 0.54373781,0.543729 0 0 0 -0.927978,-0.3846 L 14.451626,16.415 20.21887,22.182152 a 0.54378439,0.54377558 0 1 0 0.768846,-0.769196 L 16.24596,16.671277 a 0.37300413,0.37299809 0 0 1 0,-0.512554 l 4.742118,-4.741681 a 0.54373781,0.543729 0 0 0 0.15877,-0.384595 z"
       id="path4-3-75"
       style="fill:#d3dae3;fill-opacity:1;stroke-width:0.36249" />
    <path
       d="M 24.485297,7.514747 C 22.218817,5.248194 19.2051,4 16,4 12.7949,4 9.78117,5.248194 7.5149,7.514747 5.24821,9.781299 4,12.794773 4,16 c 0,3.205227 1.24821,6.218694 3.5149,8.485252 2.26627,2.266411 5.28,3.514747 8.4851,3.514747 3.2053,0 6.218817,-1.248336 8.485297,-3.514747 2.26634,-2.266558 3.5147,-5.280025 3.5147,-8.485252 0,-3.205226 -1.24836,-6.218849 -3.5147,-8.485253 z M 23.115,23.814649 c -2.209523,1.874207 -3.991502,2.760224 -7.115,2.73735 -3.315977,-0.02428 -4.545955,-0.647314 -7.115,-2.738 -2.08741,-2.087254 -3.437,-4.862043 -3.437,-7.813998 0,-2.952096 1.392416,-6.09043 3.437,-7.815 2.293791,-2.015596 4.205681,-2.714962 7.115,-2.737 2.951865,-0.02236 4.927587,0.91947 7.115,2.737205 2.08737,2.087403 3.437,4.862699 3.437,7.814795 0,2.951956 -1.34963,5.727395 -3.437,7.814648 z"
       id="path2-36-912-3-3-35"
       style="fill:#d3dae3;fill-opacity:1;stroke-width:0.0374999"
       sodipodi:nodetypes="cscscscsccscscscsc" />
  </g>
  <metadata
     id="metadata128">
    <rdf:RDF>
      <cc:Work
         rdf:about="">
        <dc:format>image/svg+xml</dc:format>
        <dc:type
           rdf:resource="http://purl.org/dc/dcmitype/StillImage" />
        <dc:title />
      </cc:Work>
    </rdf:RDF>
  </metadata>
  <defs
     id="defs126">
    <linearGradient
       inkscape:collect="always"
       id="linearGradient1065">
      <stop
         style="stop-color:#008080;stop-opacity:1"
         offset="0"
         id="stop1061" />
      <stop
         style="stop-color:#00e5e5;stop-opacity:1"
         offset="1"
         id="stop1063" />
    </linearGradient>
    <linearGradient
       inkscape:collect="always"
       xlink:href="#linearGradient1065"
       id="linearGradient1085"
       x1="3"
       y1="15.999999"
       x2="29"
       y2="15.999999"
       gradientUnits="userSpaceOnUse"
       gradientTransform="matrix(0.92307692,0,0,0.92307692,1.23079,-30.769231)" />
  </defs>
  <sodipodi:namedview
     pagecolor="#ffffff"
     bordercolor="#666666"
     borderopacity="1"
     objecttolerance="10"
     gridtolerance="10"
     guidetolerance="10"
     inkscape:pageopacity="0"
     inkscape:pageshadow="2"
     inkscape:window-width="1920"
     inkscape:window-height="1016"
     id="namedview124"
     showgrid="false"
     inkscape:zoom="2.453125"
     inkscape:cx="125.37593"
     inkscape:cy="20.314407"
     inkscape:window-x="0"
     inkscape:window-y="0"
     inkscape:window-maximized="1"
     inkscape:current-layer="svg122"
     inkscape:document-rotation="0"
     inkscape:lockguides="false"
     showguides="false">
    <inkscape:grid
       type="xygrid"
       id="grid956"
       originx="32"
       originy="1e-06" />
  </sodipodi:namedview>
  <g
     id="media-playback-pause"
     transform="translate(32)">
    <path
       style="opacity:0.00100002"
       d="M 0,0 H 32.000001 V 32.000001 H 0 Z"
       id="path67" />
    <path
       d="m 17.3754,20.399488 v -8.337302 a 1.3846171,1.603333 0 0 1 2.769197,0 v 8.337302 a 1.3846171,1.603333 0 0 1 -2.769197,0 z m 2.21536,-8.337302 a 0.83080006,0.96203274 0 0 0 -1.66152,0 v 8.337302 a 0.83080006,0.96203274 0 0 0 1.66152,0 z"
       id="path8-6-7"
       style="fill:#d3dae3;fill-opacity:1;stroke-width:0.297994" />
    <path
       d="m 12.1231,20.397438 v -8.333334 a 1.3847004,1.6026647 0 0 1 2.7694,0 v 8.333334 a 1.3847004,1.6026647 0 0 1 -2.7694,0 z m 2.2154,-8.333334 a 0.83081013,0.96158646 0 0 0 -1.6616,0 v 8.333334 a 0.83081013,0.96158646 0 0 0 1.6616,0 z"
       id="path8-6-6"
       style="fill:#d3dae3;fill-opacity:1;stroke-width:0.297919" />
    <path
       d="M 24.485297,7.514746 C 22.218817,5.248193 19.2051,4 16,4 12.7949,4 9.78117,5.248193 7.5148998,7.514746 5.24821,9.781298 4,12.794773 4,16 4,19.205227 5.24821,22.218695 7.5148998,24.485253 9.78117,26.751662 12.7949,28 16,28 c 3.2053,0 6.218817,-1.248338 8.485297,-3.514747 2.26634,-2.266558 3.5147,-5.280026 3.5147,-8.485253 0,-3.205227 -1.24836,-6.218849 -3.5147,-8.485254 z M 23.115,23.81465 C 20.905477,25.688857 19.123498,26.574873 16,26.552 12.684023,26.527717 11.454045,25.904686 8.885,23.814 6.7975902,21.726745 5.448,18.951956 5.448,16 5.448,13.047903 6.8404159,9.909571 8.885,8.185 11.178791,6.169405 13.090681,5.470038 16,5.448 c 2.951865,-0.02236 4.927587,0.91947 7.115,2.737205 2.08737,2.087403 3.437,4.862698 3.437,7.814795 0,2.951956 -1.34963,5.727395 -3.437,7.81465 z"
       id="path2-36-912"
       style="fill:#d3dae3;fill-opacity:1;stroke-width:0.0374999"
       sodipodi:nodetypes="cscscscsccscscscsc" />
  </g>
  <g
     id="media-playback-paused"
     transform="translate(32)">
    <path
       style="opacity:0.00100002"
       d="M 0,32 H 32.000001 V 64.000001 H 0 Z"
       id="path112" />
    <path
       d="m 17.3754,52.399488 v -8.337302 a 1.3846171,1.603333 0 0 1 2.769197,0 v 8.337302 a 1.3846171,1.603333 0 0 1 -2.769197,0 z m 2.21536,-8.337302 a 0.83080006,0.96203274 0 0 0 -1.66152,0 v 8.337302 a 0.83080006,0.96203274 0 0 0 1.66152,0 z"
       id="path8-6-7-5"
       style="fill:#d3dae3;fill-opacity:1;stroke-width:0.297994" />
    <path
       d="m 12.1231,52.397438 v -8.333334 a 1.3847004,1.6026647 0 0 1 2.7694,0 v 8.333334 a 1.3847004,1.6026647 0 0 1 -2.7694,0 z m 2.2154,-8.333334 a 0.83081013,0.96158646 0 0 0 -1.6616,0 v 8.333334 a 0.83081013,0.96158646 0 0 0 1.6616,0 z"
       id="path8-6-6-6"
       style="fill:#d3dae3;fill-opacity:1;stroke-width:0.297919" />
    <path
       d="M 24.485297,39.514746 C 22.218817,37.248193 19.2051,36 16,36 12.7949,36 9.78117,37.248193 7.5149,39.514746 5.24821,41.781298 4,44.794773 4,48 4,51.205227 5.24821,54.218695 7.5149,56.485253 9.78117,58.751662 12.7949,60 16,60 c 3.2053,0 6.218817,-1.248338 8.485297,-3.514747 2.26634,-2.266558 3.5147,-5.280026 3.5147,-8.485253 0,-3.205227 -1.24836,-6.218849 -3.5147,-8.485254 z M 23.115,55.81465 C 20.905477,57.688857 19.123498,58.574873 16,58.552 12.68402,58.52772 11.45404,57.904686 8.885,55.814 6.79759,53.726745 5.448,50.951956 5.448,48 c 0,-2.952097 1.39242,-6.090429 3.437,-7.815 2.29379,-2.015595 4.20568,-2.714962 7.115,-2.737 2.951865,-0.02236 4.927587,0.91947 7.115,2.737205 2.08737,2.087403 3.437,4.862698 3.437,7.814795 0,2.951956 -1.34963,5.727395 -3.437,7.81465 z"
       id="path2-36-912-2"
       style="fill:#d3dae3;fill-opacity:1;stroke-width:0.0374999"
       sodipodi:nodetypes="cscscscsccscscscsc" />
  </g>
  <g
     id="media-playback-start">
    <g
       id="g976">
      <path
         style="opacity:0.00100002"
         d="M 0,0 H 32.000001 V 32.000001 H 0 Z"
         id="path62" />
      <path
         d="M 24.485297,7.514746 C 22.218817,5.248193 19.2051,4 16,4 12.7949,4 9.78117,5.248193 7.5149,7.514746 5.24821,9.781298 4,12.794773 4,16 4,19.205227 5.24821,22.218695 7.5149,24.485253 9.78117,26.751662 12.7949,28 16,28 c 3.2053,0 6.218817,-1.248338 8.485297,-3.514747 2.26634,-2.266558 3.5147,-5.280026 3.5147,-8.485253 0,-3.205227 -1.24836,-6.218849 -3.5147,-8.485254 z M 23.115,23.81465 C 20.905477,25.688857 19.123498,26.574873 16,26.552 12.684023,26.52772 11.454045,25.904686 8.885,23.814 6.79759,21.726745 5.448,18.951956 5.448,16 5.448,13.047903 6.840416,9.909571 8.885,8.185 11.178791,6.169405 13.090681,5.470038 16,5.448 c 2.951865,-0.02236 4.927587,0.91947 7.115,2.737205 2.08737,2.087403 3.437,4.862698 3.437,7.814795 0,2.951956 -1.34963,5.727395 -3.437,7.81465 z"
         id="path2-36-912-3"
         style="fill:#d3dae3;fill-opacity:1;stroke-width:0.0374999"
         sodipodi:nodetypes="cscscscsccscscscsc" />
      <path
         d="m 20.144637,16.151347 a 0.7224463,0.7224346 0 0 1 -0.212058,0.512555 l -5.767249,5.767155 a 1.2687868,1.2687662 0 0 1 -1.794335,-1.794306 l 4.485841,-4.485404 -4.485841,-4.485405 a 1.2712591,1.2712385 0 0 1 0,-1.7943022 v 0 a 1.2687215,1.2687009 0 0 1 1.794335,0 l 5.767249,5.7671522 a 0.7224463,0.7224346 0 0 1 0.212058,0.512555 z m -7.419847,5.382554 a 0.54373781,0.543729 0 0 0 0.927978,0.384599 l 5.767244,-5.767153 -5.767244,-5.767152 a 0.5437841,0.54377529 0 1 0 -0.768846,0.769195 l 4.741756,4.74168 a 0.37300413,0.37299809 0 0 1 0,0.512554 l -4.742118,4.74168 a 0.54373781,0.543729 0 0 0 -0.15877,0.384597 z"
         id="path4-3"
         style="fill:#d3dae3;fill-opacity:1;stroke-width:0.36249" />
    </g>
  </g>
  <g
     id="media-playback-playing"
     transform="translate(0,32)">
    <path
       style="opacity:0.00100002"
       d="M 0,0 H 32.000001 V 32.000001 H 0 Z"
       id="path107" />
    <path
       d="M 24.485297,7.514746 C 22.218817,5.248193 19.2051,4 16,4 12.7949,4 9.78117,5.248193 7.5149,7.514746 5.24821,9.781298 4,12.794773 4,16 4,19.205227 5.24821,22.218695 7.5149,24.485253 9.78117,26.751662 12.7949,28 16,28 c 3.2053,0 6.218817,-1.248338 8.485297,-3.514747 2.26634,-2.266558 3.5147,-5.280026 3.5147,-8.485253 0,-3.205227 -1.24836,-6.218849 -3.5147,-8.485254 z M 23.115,23.81465 C 20.905477,25.688857 19.123498,26.574873 16,26.552 12.684023,26.52772 11.454045,25.904686 8.885,23.814 6.79759,21.726745 5.448,18.951956 5.448,16 5.448,13.047903 6.840416,9.909571 8.885,8.185 11.178791,6.169405 13.090681,5.470038 16,5.448 c 2.951865,-0.02236 4.927587,0.91947 7.115,2.737205 2.08737,2.087403 3.437,4.862698 3.437,7.814795 0,2.951956 -1.34963,5.727395 -3.437,7.81465 z"
       id="path2-36-912-3-5"
       style="fill:#d3dae3;fill-opacity:1;stroke-width:0.0374999"
       sodipodi:nodetypes="cscscscsccscscscsc" />
    <path
       d="m 20.144637,16.151347 a 0.7224463,0.7224346 0 0 1 -0.212058,0.512555 l -5.767249,5.767155 a 1.2687868,1.2687662 0 0 1 -1.794335,-1.794306 l 4.485841,-4.485404 -4.485841,-4.485405 a 1.2712591,1.2712385 0 0 1 0,-1.7943022 v 0 a 1.2687215,1.2687009 0 0 1 1.794335,0 l 5.767249,5.7671522 a 0.7224463,0.7224346 0 0 1 0.212058,0.512555 z m -7.419847,5.382554 a 0.54373781,0.543729 0 0 0 0.927978,0.384599 l 5.767244,-5.767153 -5.767244,-5.767151 a 0.5437841,0.54377529 0 1 0 -0.768846,0.769194 l 4.741756,4.74168 a 0.37300413,0.37299809 0 0 1 0,0.512554 l -4.742118,4.74168 a 0.54373781,0.543729 0 0 0 -0.15877,0.384597 z"
       id="path4-3-3"
       style="fill:#d3dae3;fill-opacity:1;stroke-width:0.36249" />
  </g>
  <g
     id="media-playback-stop"
     transform="translate(64)">
    <path
       style="opacity:0.00100002"
       d="M 0,0 H 32.000001 V 32.000001 H 0 Z"
       id="path72" />
    <path
       d="M 20.26666,21.739667 H 11.6 a 1.3,1.3 0 0 1 -1.3,-1.3 V 11.773 a 1.3,1.3 0 0 1 1.3,-1.3 h 8.66666 a 1.3,1.3 0 0 1 1.3,1.3 v 8.666667 a 1.3,1.3 0 0 1 -1.3,1.3 z M 11.6,11.339667 A 0.43333333,0.43333333 0 0 0 11.16666,11.773 v 8.666667 A 0.43333333,0.43333333 0 0 0 11.6,20.873 h 8.66666 A 0.43333333,0.43333333 0 0 0 20.7,20.439667 V 11.773 a 0.43333333,0.43333333 0 0 0 -0.43334,-0.433333 z"
       id="path8"
       style="fill:#d3dae3;fill-opacity:1;stroke-width:0.433333" />
    <path
       d="M 24.485297,7.514746 C 22.218817,5.248193 19.2051,4 16,4 12.7949,4 9.78117,5.248193 7.5149,7.514746 5.24821,9.781298 4,12.794773 4,16 4,19.205227 5.24821,22.218695 7.5149,24.485253 9.78117,26.751662 12.7949,28 16,28 c 3.2053,0 6.218817,-1.248338 8.485297,-3.514747 2.26634,-2.266558 3.5147,-5.280026 3.5147,-8.485253 0,-3.205227 -1.24836,-6.218849 -3.5147,-8.485254 z M 23.115,23.81465 C 20.905477,25.688857 19.123498,26.574873 16,26.552 12.684023,26.52772 11.454045,25.904686 8.885,23.814 6.79759,21.726745 5.448,18.951956 5.448,16 5.448,13.047903 6.840416,9.909571 8.885,8.185 11.178791,6.169405 13.090681,5.470038 16,5.448 c 2.951865,-0.02236 4.927587,0.91947 7.115,2.737205 2.08737,2.087403 3.437,4.862698 3.437,7.814795 0,2.951956 -1.34963,5.727395 -3.437,7.81465 z"
       id="path2-36-912-3-3"
       style="fill:#d3dae3;fill-opacity:1;stroke-width:0.0374999"
       sodipodi:nodetypes="cscscscsccscscscsc" />
  </g>
  <g
     id="media-playback-stopped"
     transform="translate(64,32)">
    <path
       style="opacity:0.00100002"
       d="M 0,0 H 32.000001 V 32.000001 H 0 Z"
       id="path117" />
    <path
       d="M 24.485297,7.514746 C 22.218817,5.248193 19.2051,4 16,4 12.7949,4 9.78117,5.248193 7.5149,7.514746 5.24821,9.781298 4,12.794773 4,16 4,19.205227 5.24821,22.218695 7.5149,24.485253 9.78117,26.751662 12.7949,28 16,28 c 3.2053,0 6.218817,-1.248338 8.485297,-3.514747 2.26634,-2.266558 3.5147,-5.280026 3.5147,-8.485253 0,-3.205227 -1.24836,-6.218849 -3.5147,-8.485254 z M 23.115,23.81465 C 20.905477,25.688857 19.123498,26.574873 16,26.552 12.684023,26.52772 11.454045,25.904686 8.885,23.814 6.79759,21.726745 5.448,18.951956 5.448,16 5.448,13.047903 6.840416,9.909571 8.885,8.185 11.178791,6.169405 13.090681,5.470038 16,5.448 c 2.951865,-0.02236 4.927587,0.91947 7.115,2.737205 2.08737,2.087403 3.437,4.862698 3.437,7.814795 0,2.951956 -1.34963,5.727395 -3.437,7.81465 z"
       id="path2-36-912-3-3-3"
       style="fill:#d3dae3;fill-opacity:1;stroke-width:0.0374999"
       sodipodi:nodetypes="cscscscsccscscscsc" />
    <path
       d="M 20.36666,21.799667 H 11.7 a 1.3,1.3 0 0 1 -1.3,-1.3 V 11.833 a 1.3,1.3 0 0 1 1.3,-1.3 h 8.66666 a 1.3,1.3 0 0 1 1.3,1.3 v 8.666667 a 1.3,1.3 0 0 1 -1.3,1.3 z M 11.7,11.399667 A 0.43333333,0.43333333 0 0 0 11.26666,11.833 v 8.666667 A 0.43333333,0.43333333 0 0 0 11.7,20.933 h 8.66666 A 0.43333333,0.43333333 0 0 0 20.8,20.499667 V 11.833 a 0.43333333,0.43333333 0 0 0 -0.43334,-0.433333 z"
       id="path8-7"
       style="fill:#d3dae3;fill-opacity:1;stroke-width:0.433333" />
  </g>
  <g
     id="22-22-media-playback-start"
     transform="translate(0,-22)">
    <path
       style="opacity:0.00100002"
       d="M 0,0 H 22 V 22 H 0 Z"
       id="path2" />
    <path
       d="M 16.65688,5.343156 C 15.145874,3.832116 13.13672,3 11,3 8.86328,3 6.854124,3.832116 5.34328,5.343156 3.83213,6.854195 3,8.863173 3,11 3,13.136827 3.83213,15.145804 5.34328,16.656844 6.854124,18.16776 8.86328,19 11,19 c 2.13688,0 4.145874,-0.83224 5.65688,-2.343156 1.51088,-1.51104 2.343117,-3.520017 2.343117,-5.656844 0,-2.136827 -0.832237,-4.145889 -2.343117,-5.656844 z M 15.743321,16.20977 C 14.27032,17.459244 13.08232,18.049913 11,18.034657 8.78936,18.018377 7.96936,17.60312 6.256679,16.209343 4.865047,14.81784 3.965343,12.967958 3.965343,11 3.965343,9.03192 4.893616,6.939724 6.256679,5.79 7.785848,4.446283 9.060442,3.980037 11,3.965343 12.96792,3.950353 14.285044,4.57832 15.743321,5.790148 17.134924,7.181728 18.034657,9.03192 18.034657,11 c 0,1.967958 -0.899733,3.818274 -2.291336,5.20977 z"
       id="path2-36-912-3-36"
       style="fill:#d3dae3;fill-opacity:1;stroke-width:0.0249998"
       sodipodi:nodetypes="cscscscsccscscscsc" />
    <path
       d="M 13.763504,11.100884 A 0.48163093,0.4816232 0 0 1 13.62212,11.442605 L 9.7772842,15.287377 A 0.8458584,0.84584404 0 0 1 8.5810782,14.091156 L 11.571639,11.100884 8.5810782,8.11064 a 0.84750656,0.84749236 0 0 1 0,-1.196201 v 0 a 0.84581496,0.8458 0 0 1 1.196206,0 l 3.8448358,3.844753 a 0.48163093,0.4816232 0 0 1 0.141384,0.341692 z m -4.9465668,3.588377 a 0.362492,0.36248596 0 0 0 0.618635,0.256419 L 13.280416,11.100884 9.4355722,7.256117 a 0.36252267,0.36251689 0 1 0 -0.512543,0.512799 l 3.1611498,3.16112 a 0.24866956,0.24866529 0 0 1 0,0.341724 l -3.1614138,3.16112 a 0.362492,0.36248596 0 0 0 -0.105828,0.256381 z"
       id="path4-3-7"
       style="fill:#d3dae3;fill-opacity:1;stroke-width:0.241673" />
  </g>
  <g
     id="22-22-media-playback-playing"
     transform="translate(0,64.000001)">
    <path
       style="opacity:0.00100002"
       d="M 0,0 H 22 V 22 H 0 Z"
       id="path47" />
    <path
       d="M 16.65688,5.343156 C 15.145874,3.832116 13.13672,3 11,3 8.86328,3 6.854124,3.832116 5.34328,5.343156 3.83213,6.854195 3,8.863173 3,11 c 0,2.136827 0.83213,4.145799 2.34328,5.656849 1.510844,1.51091 3.52,2.34315 5.65672,2.34315 2.13688,0 4.145874,-0.83224 5.65688,-2.34315 1.51088,-1.51105 2.343117,-3.520022 2.343117,-5.656849 0,-2.136827 -0.832237,-4.145889 -2.343117,-5.656844 z M 15.743321,16.209769 C 14.27032,17.459239 13.08232,18.049909 11,18.034659 8.78936,18.018359 7.96936,17.603119 6.256679,16.209339 4.865047,14.817839 3.965343,12.967958 3.965343,11 3.965343,9.03192 4.893616,6.939724 6.256679,5.79 7.785848,4.446283 9.060442,3.980037 11,3.965343 12.96792,3.950353 14.285044,4.57832 15.743321,5.790148 17.134924,7.181728 18.034657,9.03192 18.034657,11 c 0,1.967958 -0.899733,3.818279 -2.291336,5.209769 z"
       id="path2-36-912-3-36-3"
       style="fill:#d3dae3;fill-opacity:1;stroke-width:0.0249998"
       sodipodi:nodetypes="cscscscsccscscscsc" />
    <path
       d="m 13.76349,11.101196 a 0.48163093,0.4816232 0 0 1 -0.141384,0.341721 L 9.7772701,15.287686 A 0.8458584,0.84584404 0 0 1 8.5810641,14.091468 L 11.571625,11.101196 8.5810641,8.1109516 a 0.84750656,0.84749236 0 0 1 0,-1.196201 v 0 a 0.84581496,0.8458 0 0 1 1.196206,0 l 3.8448359,3.8447534 a 0.48163093,0.4816232 0 0 1 0.141384,0.341692 z m -4.9465669,3.58838 a 0.362492,0.36248596 0 0 0 0.618635,0.25642 l 3.8448439,-3.8448 -3.8448439,-3.8447674 a 0.36252267,0.36251689 0 1 0 -0.512543,0.512799 l 3.1611499,3.1611204 a 0.24866956,0.24866529 0 0 1 0,0.341724 l -3.1614139,3.161124 a 0.362492,0.36248596 0 0 0 -0.105828,0.25638 z"
       id="path4-3-7-6"
       style="fill:#d3dae3;fill-opacity:1;stroke-width:0.241673" />
  </g>
  <g
     id="22-22-media-playback-pause"
     transform="translate(32,-22)">
    <path
       style="opacity:0.00100002"
       d="M 0,0 H 22 V 22 H 0 Z"
       id="path12" />
    <path
       d="M 11.916933,13.932995 V 8.374799 a 0.92307799,1.068888 0 0 1 1.846134,0 v 5.558196 a 0.92307799,1.068888 0 0 1 -1.846134,0 z M 13.39384,8.374799 a 0.55386667,0.64135514 0 0 0 -1.10768,0 v 5.558196 a 0.55386667,0.64135514 0 0 0 1.10768,0 z"
       id="path8-6-7-3"
       style="fill:#d3dae3;fill-opacity:1;stroke-width:0.198656" />
    <path
       d="M 8.415401,13.931619 V 8.376077 a 0.923136,1.0684462 0 0 1 1.846272,0 v 5.555542 a 0.923136,1.0684462 0 0 1 -1.846272,0 z M 9.892339,8.376077 a 0.55387339,0.64105766 0 0 0 -1.10774,0 v 5.555542 a 0.55387339,0.64105766 0 0 0 1.10774,0 z"
       id="path8-6-6-67"
       style="fill:#d3dae3;fill-opacity:1;stroke-width:0.198618" />
    <path
       d="M 16.65687,5.343159 C 15.145877,3.832126 13.136727,3 11,3 8.863273,3 6.854117,3.832126 5.34327,5.343159 3.8321399,6.854198 3,8.863179 3,11 3,13.136821 3.8321399,15.145801 5.34327,16.65684 6.854117,18.167769 8.863273,19 11,19 c 2.136873,0 4.145877,-0.832231 5.65687,-2.34316 1.51089,-1.511039 2.343127,-3.520019 2.343127,-5.65684 0,-2.136821 -0.832237,-4.145896 -2.343127,-5.656841 z M 15.743333,16.20977 C 14.27032,17.459241 13.082325,18.049913 11,18.034661 8.789356,18.018443 7.96936,17.60312 6.256667,16.209339 4.8650601,14.817838 3.9653339,12.967969 3.9653339,11 3.9653339,9.03193 4.8936101,6.939718 6.256667,5.79 7.785856,4.446272 9.060453,3.980027 11,3.965339 12.967918,3.950389 14.285054,4.57832 15.743333,5.790144 17.134917,7.181735 18.034661,9.03193 18.034661,11 c 0,1.967969 -0.899744,3.818267 -2.291328,5.20977 z"
       id="path2-36-912-5"
       style="fill:#d3dae3;fill-opacity:1;stroke-width:0.0249998"
       sodipodi:nodetypes="cscscscsccscscscsc" />
  </g>
  <g
     id="22-22-media-playback-stop"
     transform="translate(64,-22)">
    <path
       style="opacity:0.00100002"
       d="M 0,0 H 22 V 22 H 0 Z"
       id="path7" />
    <path
       d="M 13.844436,14.82645 H 8.066657 A 0.86666615,0.86666615 0 0 1 7.2,13.959764 V 8.182 A 0.86666615,0.86666615 0 0 1 8.066657,7.315322 h 5.777779 A 0.86666615,0.86666615 0 0 1 14.71112,8.182 v 5.777764 A 0.86666615,0.86666615 0 0 1 13.844436,14.82645 Z M 8.066657,7.893107 A 0.2888888,0.2888888 0 0 0 7.77778,8.182 v 5.777764 a 0.2888888,0.2888888 0 0 0 0.288877,0.288914 h 5.777779 a 0.2888888,0.2888888 0 0 0 0.288907,-0.288914 V 8.182 A 0.2888888,0.2888888 0 0 0 13.844436,7.893107 Z"
       id="path8-3"
       style="fill:#d3dae3;fill-opacity:1;stroke-width:0.28888" />
    <path
       d="M 16.65688,5.343156 C 15.145874,3.832119 13.13672,3 11,3 8.86328,3 6.854122,3.832119 5.34328,5.343156 3.83213,6.854195 3,8.863173 3,11 3,13.136827 3.83213,15.145804 5.34328,16.656844 6.854122,18.16776 8.86328,19 11,19 c 2.13688,0 4.145874,-0.83224 5.65688,-2.343156 1.51088,-1.51104 2.343117,-3.520017 2.343117,-5.656844 0,-2.136827 -0.832237,-4.145889 -2.343117,-5.656844 z M 15.743322,16.20977 C 14.27032,17.459244 13.08232,18.049913 11,18.034657 8.78936,18.018389 7.96936,17.60312 6.256678,16.209343 4.865047,14.81784 3.965343,12.967959 3.965343,11 3.965343,9.03192 4.893616,6.939723 6.256678,5.79 7.785848,4.446281 9.060443,3.980036 11,3.965343 12.96792,3.950353 14.285044,4.57832 15.743322,5.790148 17.134923,7.181728 18.034657,9.03192 18.034657,11 c 0,1.967959 -0.899734,3.818275 -2.291335,5.20977 z"
       id="path2-36-912-3-3-6"
       style="fill:#d3dae3;fill-opacity:1;stroke-width:0.0249998"
       sodipodi:nodetypes="cscscscsccscscscsc" />
  </g>
  <g
     id="media-skip-forward"
     transform="translate(128)">
    <path
       style="opacity:0.00100002"
       d="M 0,-5e-7 H 32.000001 V 32 H 0 Z"
       id="path97" />
    <path
       d="M 24.485297,7.514747 C 22.218817,5.248194 19.2051,4 16,4 12.7949,4 9.78117,5.248194 7.5149,7.514747 5.24821,9.781299 4,12.794773 4,16 c 0,3.205227 1.24821,6.218694 3.5149,8.485252 2.26627,2.266411 5.28,3.514747 8.4851,3.514747 3.2053,0 6.218817,-1.248336 8.485297,-3.514747 2.26634,-2.266558 3.5147,-5.280025 3.5147,-8.485252 0,-3.205226 -1.24836,-6.218849 -3.5147,-8.485253 z M 23.115,23.814649 c -2.209523,1.874207 -3.991502,2.760224 -7.115,2.73735 -3.315977,-0.02428 -4.545955,-0.647314 -7.115,-2.738 -2.08741,-2.087254 -3.437,-4.862043 -3.437,-7.813998 0,-2.952096 1.392416,-6.09043 3.437,-7.815 2.293791,-2.015596 4.205681,-2.714962 7.115,-2.737 2.951865,-0.02236 4.927587,0.91947 7.115,2.737205 2.08737,2.087403 3.437,4.862699 3.437,7.814795 0,2.951956 -1.34963,5.727395 -3.437,7.814648 z"
       id="path2-36-912-3-3-35-3"
       style="fill:#d3dae3;fill-opacity:1;stroke-width:0.0374999"
       sodipodi:nodetypes="cscscscsccscscscsc" />
    <path
       d="m 18.5,20.799954 v -9.921799 a 1.3846171,1.9080453 0 0 1 2.769197,0 v 9.921799 a 1.3846171,1.9080453 0 0 1 -2.769197,0 z m 2.21536,-9.921799 a 0.83080006,1.1448663 0 0 0 -1.66152,0 v 9.921799 a 0.83080006,1.1448663 0 0 0 1.66152,0 z"
       id="path8-6-7-36-6"
       style="fill:#d3dae3;fill-opacity:1;stroke-width:0.32508" />
    <path
       d="m 18.024637,15.900347 a 0.7224463,0.7224346 0 0 1 -0.212058,0.512555 l -5.767249,5.767155 a 1.2687868,1.2687662 0 0 1 -1.794335,-1.794306 l 4.485841,-4.485404 -4.485841,-4.485405 a 1.2712591,1.2712385 0 0 1 0,-1.794302 v 0 a 1.2687215,1.2687009 0 0 1 1.794335,0 l 5.767249,5.767152 a 0.7224463,0.7224346 0 0 1 0.212058,0.512555 z m -7.419847,5.382554 a 0.54373781,0.543729 0 0 0 0.927978,0.384599 l 5.767244,-5.767153 -5.767244,-5.767152 a 0.5437841,0.54377529 0 1 0 -0.768846,0.769195 l 4.741756,4.74168 a 0.37300413,0.37299809 0 0 1 0,0.512554 l -4.742118,4.74168 a 0.54373781,0.543729 0 0 0 -0.15877,0.384597 z"
       id="path4-3-753"
       style="fill:#d3dae3;fill-opacity:1;stroke-width:0.36249" />
  </g>
  <g
     id="22-22-media-playback-paused"
     transform="translate(32,64.000001)">
    <path
       style="opacity:0.00100002"
       d="M 0,0 H 22 V 22 H 0 Z"
       id="path57" />
    <path
       d="m 11.916937,13.93298 v -5.5582 a 0.92307803,1.0688884 0 0 1 1.846126,0 v 5.5582 a 0.92307803,1.0688884 0 0 1 -1.846126,0 z m 1.476899,-5.5582 a 0.55386674,0.64135514 0 0 0 -1.10768,0 v 5.5582 a 0.55386674,0.64135514 0 0 0 1.10768,0 z"
       id="path8-6-7-367"
       style="fill:#d3dae3;fill-opacity:1;stroke-width:0.198663" />
    <path
       d="M 8.415398,13.93161 V 8.3761 a 0.9231354,1.0684458 0 0 1 1.846268,0 v 5.55551 a 0.9231354,1.0684458 0 0 1 -1.846268,0 z M 9.892335,8.3761 a 0.55387343,0.64105766 0 0 0 -1.107733,0 v 5.55551 a 0.55387343,0.64105766 0 0 0 1.107733,0 z"
       id="path8-6-6-5"
       style="fill:#d3dae3;fill-opacity:1;stroke-width:0.198611" />
    <path
       d="M 16.656863,5.34324 C 15.14588,3.83215 13.136734,3 11,3 8.863266,3 6.854113,3.83215 5.343266,5.34324 3.832141,6.85421 3,8.86324 3,11 3,13.13684 3.832141,15.14578 5.343266,16.65684 6.854113,18.16777 8.863266,19 11,19 c 2.136866,0 4.14588,-0.83223 5.656863,-2.34316 1.510893,-1.51106 2.343134,-3.52 2.343134,-5.65684 0,-2.13676 -0.832241,-4.14588 -2.343134,-5.65676 z M 15.743337,16.20977 C 14.270316,17.45926 13.082332,18.0499 11,18.03468 8.789349,18.01838 7.969356,17.60309 6.256663,16.20937 4.865063,14.81783 3.965332,12.96796 3.965332,11 3.965332,9.0319 4.893615,6.93969 6.256663,5.79002 7.785863,4.44625 9.060457,3.98004 11,3.96532 c 1.967911,-0.0145 3.285061,0.61301 4.743337,1.82485 1.391576,1.39158 2.291331,3.24173 2.291331,5.20983 0,1.96796 -0.899755,3.81825 -2.291331,5.20977 z"
       id="path2-36-912-35"
       style="fill:#d3dae3;fill-opacity:1;stroke-width:0.0250001"
       sodipodi:nodetypes="cscscscsccscscscsc" />
  </g>
  <g
     id="22-22-media-playback-stopped"
     transform="translate(64,64.000001)">
    <path
       style="opacity:0.00100002"
       d="M 0,0 H 22 V 22 H 0 Z"
       id="path52" />
    <path
       d="M 13.844443,14.82636 H 8.066668 A 0.86666652,0.86666652 0 0 1 7.2,13.95979 V 8.18203 A 0.86666652,0.86666652 0 0 1 8.066668,7.31535 h 5.777775 a 0.86666652,0.86666652 0 0 1 0.866663,0.86668 v 5.77776 a 0.86666652,0.86666652 0 0 1 -0.866663,0.86657 z M 8.066668,7.89309 A 0.28888887,0.28888887 0 0 0 7.777775,8.18203 v 5.77776 a 0.28888887,0.28888887 0 0 0 0.288893,0.28887 h 5.777775 a 0.28888887,0.28888887 0 0 0 0.288889,-0.28887 V 8.18203 A 0.28888887,0.28888887 0 0 0 13.844443,7.89309 Z"
       id="path8-6"
       style="fill:#d3dae3;fill-opacity:1;stroke-width:0.288887" />
    <path
       d="M 16.656863,5.34316 C 15.145879,3.83215 13.136734,3 11,3 8.863266,3 6.854112,3.83215 5.343266,5.34316 3.832142,6.85422 3,8.86324 3,11 3,13.13676 3.832142,15.14577 5.343266,16.65676 6.854112,18.16778 8.863266,19 11,19 c 2.136866,0 4.145879,-0.83222 5.656863,-2.34324 1.510901,-1.51099 2.343134,-3.52 2.343134,-5.65676 0,-2.13676 -0.832233,-4.14587 -2.343134,-5.65684 z m -0.913525,10.8666 C 14.270316,17.45926 13.082332,18.04989 11,18.03468 8.789349,18.01838 7.969364,17.60309 6.256662,16.20938 4.865063,14.81782 3.965332,12.96796 3.965332,11 c 0,-1.9681 0.928283,-4.06031 2.29133,-5.20997 C 7.785863,4.44625 9.060458,3.98004 11,3.96532 c 1.967911,-0.0146 3.285061,0.61301 4.743338,1.82486 1.391574,1.39157 2.29133,3.24172 2.29133,5.20982 0,1.96796 -0.899756,3.81825 -2.29133,5.20976 z"
       id="path2-36-912-3-3-2"
       style="fill:#d3dae3;fill-opacity:1;stroke-width:0.0250004"
       sodipodi:nodetypes="cscscscsccscscscsc" />
  </g>
  <g
     id="media-seek-backward"
     transform="translate(160)">
    <path
       style="opacity:0.00100002"
       d="M 32,-5e-7 H -1e-6 V 32 H 32 Z"
       id="path82" />
    <path
       d="M 24.485297,7.514747 C 22.218817,5.248194 19.2051,4 16,4 12.7949,4 9.78117,5.248194 7.5149,7.514747 5.24821,9.781299 4,12.794773 4,16 c 0,3.205227 1.24821,6.218694 3.5149,8.485251 2.26627,2.266412 5.28,3.514747 8.4851,3.514747 3.2053,0 6.218817,-1.248335 8.485297,-3.514747 2.26634,-2.266557 3.5147,-5.280024 3.5147,-8.485251 0,-3.205226 -1.24836,-6.218849 -3.5147,-8.485253 z M 23.115,23.814649 C 20.905477,25.688855 19.123498,26.574873 16,26.551998 12.684023,26.527718 11.454045,25.904684 8.885,23.813998 6.79759,21.726744 5.448,18.951955 5.448,16 c 0,-2.952094 1.392416,-6.090429 3.437,-7.814999 2.293791,-2.015596 4.205681,-2.714962 7.115,-2.737 2.951865,-0.02236 4.927587,0.91947 7.115,2.737205 2.08737,2.087403 3.437,4.8627 3.437,7.814795 0,2.951956 -1.34963,5.727395 -3.437,7.814648 z"
       id="path2-36-912-3-3-35-3-3"
       style="fill:#d3dae3;fill-opacity:1;stroke-width:0.0374999"
       sodipodi:nodetypes="cscscscsccscscscsc" />
    <path
       d="m 14.800001,16.100131 a 0.7224463,0.7224346 0 0 1 0.212058,-0.512554 l 5.767249,-5.7671547 a 1.2687868,1.2687662 0 0 1 1.794335,1.7943037 l -4.485841,4.485404 4.485841,4.485405 a 1.2712591,1.2712385 0 0 1 0,1.794302 v 0 a 1.2687215,1.2687009 0 0 1 -1.794335,0 l -5.767249,-5.767152 a 0.7224463,0.7224346 0 0 1 -0.212058,-0.512554 z m 7.419847,-5.382554 A 0.54373781,0.543729 0 0 0 21.29187,10.332978 l -5.767244,5.767153 5.767244,5.767152 a 0.54378439,0.54377558 0 1 0 0.768846,-0.769196 L 17.31896,16.356408 a 0.37300413,0.37299809 0 0 1 0,-0.512554 l 4.742118,-4.741681 a 0.54373781,0.543729 0 0 0 0.15877,-0.384596 z"
       id="path4-3-75-6"
       style="fill:#d3dae3;fill-opacity:1;stroke-width:0.36249" />
    <path
       d="m 8.8120011,16.10013 a 0.7224463,0.7224346 0 0 1 0.212058,-0.512554 L 14.791308,9.8204223 a 1.2687868,1.2687662 0 0 1 1.794335,1.7943037 l -4.485841,4.485404 4.485841,4.485405 a 1.2712591,1.2712385 0 0 1 0,1.794302 v 0 a 1.2687215,1.2687009 0 0 1 -1.794335,0 L 9.0240591,16.612685 A 0.7224463,0.7224346 0 0 1 8.8120011,16.10013 Z M 16.231848,10.717577 A 0.54373781,0.543729 0 0 0 15.30387,10.332978 L 9.5366261,16.10013 15.30387,21.867282 a 0.54378439,0.54377558 0 1 0 0.768846,-0.769196 L 11.33096,16.356407 a 0.37300413,0.37299809 0 0 1 0,-0.512555 l 4.742118,-4.741681 a 0.54373781,0.543729 0 0 0 0.15877,-0.384594 z"
       id="path4-3-75-2"
       style="fill:#d3dae3;fill-opacity:1;stroke-width:0.36249" />
  </g>
  <g
     id="media-seek-forward"
     transform="translate(192,-22)">
    <path
       style="opacity:0.00100002"
       d="M 0,22 H 32.000001 V 54 H 0 Z"
       id="path102" />
    <path
       d="M 24.4853,29.514746 C 22.21882,27.248193 19.2051,26 16,26 12.7949,26 9.78117,27.248193 7.5149,29.514746 5.24821,31.781298 4,34.794774 4,37.999999 c 0,3.205227 1.24821,6.218695 3.5149,8.485253 2.26627,2.266409 5.28,3.514747 8.4851,3.514747 3.2053,0 6.21882,-1.248338 8.4853,-3.514747 C 26.75164,44.218694 28,41.205226 28,37.999999 28,34.794774 26.75164,31.781151 24.4853,29.514746 Z M 23.115,45.814649 C 20.90548,47.688856 19.1235,48.574872 16,48.552 12.68402,48.52772 11.45405,47.904686 8.885,45.814 6.79759,43.726745 5.448,40.951956 5.448,37.999999 c 0,-2.952096 1.39242,-6.090428 3.437,-7.814999 2.29379,-2.015595 4.20568,-2.714962 7.115,-2.737 2.95186,-0.02236 4.92759,0.91947 7.115,2.737205 2.08737,2.087403 3.437,4.862698 3.437,7.814794 0,2.951956 -1.34963,5.727395 -3.437,7.81465 z"
       id="path2-36-912-3-7"
       style="fill:#d3dae3;fill-opacity:1;stroke-width:0.0374999"
       sodipodi:nodetypes="cscscscsccscscscsc" />
    <path
       d="m 17.345046,38.151347 a 0.7224463,0.7224346 0 0 1 -0.21206,0.512556 l -5.76725,5.767154 A 1.2687886,1.268768 0 0 1 9.571396,42.63675 l 4.48585,-4.485403 -4.48585,-4.485405 a 1.2712591,1.2712385 0 0 1 0,-1.794302 v 0 a 1.2687215,1.2687009 0 0 1 1.79434,0 l 5.76725,5.767152 a 0.7224463,0.7224346 0 0 1 0.21206,0.512555 z M 9.925196,43.5339 a 0.54373781,0.543729 0 0 0 0.92798,0.384599 l 5.76724,-5.767152 -5.76724,-5.767152 a 0.54378545,0.54377664 0 1 0 -0.76885,0.769195 l 4.74176,4.74168 a 0.37300413,0.37299809 0 0 1 0,0.512554 l -4.74212,4.741679 A 0.54373781,0.543729 0 0 0 9.925196,43.5339 Z"
       id="path4-3-9"
       style="fill:#d3dae3;fill-opacity:1;stroke-width:0.36249" />
    <path
       d="m 23.473261,38.151347 a 0.7224463,0.7224346 0 0 1 -0.212058,0.512556 l -5.767249,5.767155 A 1.2687872,1.2687666 0 0 1 15.699619,42.63675 l 4.485841,-4.485404 -4.485841,-4.485405 a 1.2712591,1.2712385 0 0 1 0,-1.794301 v 0 a 1.2687215,1.2687009 0 0 1 1.794335,0 l 5.767249,5.767151 a 0.7224463,0.7224346 0 0 1 0.212058,0.512556 z M 16.053414,43.5339 a 0.54373781,0.543729 0 0 0 0.927978,0.384599 l 5.767244,-5.767152 -5.767244,-5.767151 a 0.5437841,0.54377529 0 1 0 -0.768846,0.769194 l 4.741756,4.74168 a 0.37300413,0.37299809 0 0 1 0,0.512554 l -4.742118,4.741679 a 0.54373781,0.543729 0 0 0 -0.15877,0.384597 z"
       id="path4-3-2"
       style="fill:#d3dae3;fill-opacity:1;stroke-width:0.36249" />
  </g>
  <g
     id="media-eject"
     transform="translate(224)">
    <path
       style="opacity:0.00100002"
       d="M 32,-5e-7 H -1e-6 V 32 H 32 Z"
       id="path87" />
    <path
       d="M 24.485297,7.514747 C 22.218817,5.248194 19.2051,4 16,4 12.7949,4 9.78117,5.248194 7.5149,7.514747 5.24821,9.781299 4,12.794774 4,16.000001 c 0,3.205226 1.24821,6.218694 3.5149,8.485251 2.26627,2.266411 5.28,3.514747 8.4851,3.514747 3.2053,0 6.218817,-1.248336 8.485297,-3.514747 2.26634,-2.266558 3.5147,-5.280025 3.5147,-8.485251 0,-3.205226 -1.24836,-6.21885 -3.5147,-8.485254 z M 23.115,23.814649 C 20.905477,25.688855 19.123498,26.574873 16,26.552 12.684023,26.527719 11.454045,25.904685 8.885,23.814 6.79759,21.726745 5.448,18.951957 5.448,16.000002 c 0,-2.952096 1.392416,-6.090431 3.437,-7.815001 2.293791,-2.015596 4.205681,-2.714962 7.115,-2.737 2.951865,-0.02236 4.927587,0.91947 7.115,2.737205 2.08737,2.087403 3.437,4.8627 3.437,7.814796 0,2.951955 -1.34963,5.727395 -3.437,7.814647 z"
       id="path2-36-912-3-3-35-3-75"
       style="fill:#d3dae3;fill-opacity:1;stroke-width:0.0374999"
       sodipodi:nodetypes="cscscscsccscscscsc" />
    <path
       d="m 16.00019,9.2000011 a 0.7224346,0.7224463 0 0 1 0.512556,0.212058 l 5.767155,5.7672489 a 1.2687666,1.2687872 0 0 1 -1.794308,1.794335 l -4.485404,-4.485841 -4.485405,4.485841 a 1.2712385,1.2712591 0 0 1 -1.794301,0 v 0 a 1.2687009,1.2687215 0 0 1 0,-1.794335 l 5.767151,-5.7672489 a 0.7224346,0.7224463 0 0 1 0.512556,-0.212058 z m 5.382553,7.4198469 A 0.543729,0.54373781 0 0 0 21.767342,15.69187 L 16.00019,9.9246261 10.233039,15.69187 a 0.54377529,0.5437841 0 1 0 0.769194,0.768846 l 4.74168,-4.741756 a 0.37299809,0.37300413 0 0 1 0.512554,0 l 4.741679,4.742118 a 0.543729,0.54373781 0 0 0 0.384597,0.15877 z"
       id="path4-3-2-9"
       style="fill:#d3dae3;fill-opacity:1;stroke-width:0.36249" />
    <path
       d="m 11.078155,17.784641 h 9.921799 a 1.9080453,1.3846171 0 0 1 0,2.769197 h -9.921799 a 1.9080453,1.3846171 0 0 1 0,-2.769197 z m 9.921799,2.21536 a 1.1448663,0.83080006 0 0 0 0,-1.66152 h -9.921799 a 1.1448663,0.83080006 0 0 0 0,1.66152 z"
       id="path8-6-7-36-2"
       style="fill:#d3dae3;fill-opacity:1;stroke-width:0.32508" />
  </g>
  <g
     id="media-record"
     transform="translate(256)">
    <g
       id="g1448">
      <path
         style="opacity:0.00100002"
         d="M 0,0 H 32 V 32.000001 H 0 Z"
         id="path92" />
      <circle
         r="5.999907"
         cy="15.999641"
         cx="16"
         id="path904"
         style="fill:#d40055;fill-opacity:1;stroke:none;stroke-width:4.79995;stroke-linecap:round;stroke-linejoin:round;stroke-miterlimit:4;stroke-dasharray:none;stroke-opacity:1;paint-order:stroke fill markers" />
      <path
         d="M 24.485297,7.514747 C 22.218817,5.248194 19.2051,4 16,4 12.7949,4 9.78117,5.248194 7.5149,7.514747 5.24821,9.781299 4,12.794773 4,16 4,19.20523 5.24821,22.21869 7.5149,24.48525 9.78117,26.75166 12.7949,28 16,28 c 3.2053,0 6.218817,-1.24834 8.485297,-3.51475 2.26634,-2.26656 3.5147,-5.28002 3.5147,-8.48525 0,-3.205226 -1.24836,-6.218849 -3.5147,-8.485253 z M 23.115,23.81465 C 20.905477,25.68886 19.123498,26.57487 16,26.552 12.684023,26.52772 11.454045,25.90469 8.885,23.814 6.79759,21.72674 5.448,18.95196 5.448,16 c 0,-2.952095 1.392416,-6.090429 3.437,-7.814999 2.293791,-2.015596 4.205681,-2.714962 7.115,-2.737 2.951865,-0.02236 4.927587,0.91947 7.115,2.737205 2.08737,2.087403 3.437,4.862699 3.437,7.814794 0,2.95196 -1.34963,5.7274 -3.437,7.81465 z"
         id="path2-36-912-3-3-35-3-73"
         style="fill:#d40055;fill-opacity:1;stroke-width:0.0374999"
         sodipodi:nodetypes="cscscscsccscscscsc" />
    </g>
  </g>
  <g
     id="22-22-media-record"
     transform="translate(256,-22)">
    <path
       style="opacity:0.00100002"
       d="M 0,0 H 22 V 22 H 0 Z"
       id="path42" />
    <circle
       r="4"
       cy="10.999894"
       cx="11.000122"
       id="path904-8"
       style="fill:#d40055;fill-opacity:1;stroke:none;stroke-width:3.2;stroke-linecap:round;stroke-linejoin:round;stroke-miterlimit:4;stroke-dasharray:none;stroke-opacity:1;paint-order:stroke fill markers" />
    <path
       d="M 16.65688,5.343156 C 15.145874,3.832119 13.13672,3 11,3 8.86328,3 6.854122,3.832119 5.34328,5.343156 3.83213,6.854195 3,8.863173 3,11 3,13.136827 3.83213,15.145804 5.34328,16.656844 6.854122,18.16776 8.86328,19 11,19 c 2.13688,0 4.145874,-0.83224 5.65688,-2.343156 1.51088,-1.51104 2.343117,-3.520017 2.343117,-5.656844 0,-2.136827 -0.832237,-4.145889 -2.343117,-5.656844 z M 15.743322,16.20977 C 14.27032,17.459244 13.08232,18.049913 11,18.034657 8.78936,18.018387 7.96936,17.60312 6.256678,16.209343 4.865047,14.81784 3.965343,12.967959 3.965343,11 3.965343,9.03192 4.893616,6.939723 6.256678,5.79 7.785848,4.446281 9.060443,3.980036 11,3.965343 12.96792,3.950353 14.285044,4.57832 15.743322,5.790148 17.134923,7.181728 18.034657,9.03192 18.034657,11 c 0,1.967959 -0.899734,3.818275 -2.291335,5.20977 z"
       id="path2-36-912-3-3-6-6"
       style="fill:#d40055;fill-opacity:1;stroke-width:0.0249998"
       sodipodi:nodetypes="cscscscsccscscscsc" />
  </g>
</svg>
