<?xml version="1.0" encoding="UTF-8" standalone="no"?>
<svg
   xmlns:dc="http://purl.org/dc/elements/1.1/"
   xmlns:cc="http://creativecommons.org/ns#"
   xmlns:rdf="http://www.w3.org/1999/02/22-rdf-syntax-ns#"
   xmlns:svg="http://www.w3.org/2000/svg"
   xmlns="http://www.w3.org/2000/svg"
   xmlns:sodipodi="http://sodipodi.sourceforge.net/DTD/sodipodi-0.dtd"
   xmlns:inkscape="http://www.inkscape.org/namespaces/inkscape"
   width="32"
   height="32"
   viewBox="0 0 8.4666662 8.4666666"
   version="1.1"
   id="svg830"
   inkscape:version="1.0.2 (e86c870879, 2021-01-15)"
   sodipodi:docname="notifications.svg">
  <defs
     id="defs824" />
  <sodipodi:namedview
     id="base"
     pagecolor="#ffffff"
     bordercolor="#666666"
     borderopacity="1.0"
     inkscape:pageopacity="0.0"
     inkscape:pageshadow="2"
     inkscape:zoom="3.9999998"
     inkscape:cx="28.847689"
     inkscape:cy="72.545903"
     inkscape:document-units="px"
     inkscape:current-layer="layer1"
     showgrid="false"
     units="px"
     inkscape:snap-intersection-paths="true"
     inkscape:object-paths="true"
     inkscape:snap-smooth-nodes="true"
     inkscape:object-nodes="true"
     inkscape:window-width="1920"
     inkscape:window-height="1007"
     inkscape:window-x="0"
     inkscape:window-y="0"
     inkscape:window-maximized="1"
     inkscape:snap-global="true"
     showguides="true"
     inkscape:document-rotation="0"
     inkscape:lockguides="false">
    <inkscape:grid
       type="xygrid"
       id="grid1375"
       originx="-2.1166662"
       originy="16.945755" />
  </sodipodi:namedview>
  <metadata
     id="metadata827">
    <rdf:RDF>
      <cc:Work
         rdf:about="">
        <dc:format>image/svg+xml</dc:format>
        <dc:type
           rdf:resource="http://purl.org/dc/dcmitype/StillImage" />
        <dc:title />
      </cc:Work>
    </rdf:RDF>
  </metadata>
  <style
     type="text/css"
     id="current-color-scheme" />
  <g
     inkscape:label="Layer 1"
     inkscape:groupmode="layer"
     id="layer1"
     transform="translate(-2.1166668,-274.2334)">
    <g
       id="22-22-notifications">
      <rect
         ry="1.2988282e-06"
         y="297.10815"
         x="0.036665861"
         height="5.8208332"
         width="5.8208332"
         id="rect1383-2"
         style="opacity:0.003;fill:#ff1f1f;fill-opacity:1;stroke:none;stroke-width:0.10795;stroke-miterlimit:4;stroke-dasharray:none;stroke-opacity:1" />
      <path
         d="m 1.4771675,301.76154 h 0.812683 c 0.08177,0.29647 0.352677,0.50602 0.66446,0.50602 0.311785,0 0.582681,-0.21466 0.66446,-0.50602 h 0.81268 c 0.240232,0 0.434458,-0.19422 0.434458,-0.43443 0,-0.14311 -0.07155,-0.28112 -0.194226,-0.36291 -0.117555,-0.082 -0.311787,-0.34757 -0.311787,-1.24204 0,-0.85869 -0.506009,-1.22154 -0.899574,-1.37487 0.0048,-0.0254 0.0048,-0.0463 0.0048,-0.0665 0,-0.28117 -0.230004,-0.51116 -0.511122,-0.51116 -0.281118,0 -0.51112,0.22999 -0.51112,0.51116 0,0.0202 0,0.0463 0.0048,0.0665 -0.393565,0.15333 -0.899575,0.51618 -0.899575,1.37487 0,0.89447 -0.194228,1.16025 -0.311787,1.24204 -0.122677,0.082 -0.194235,0.2198 -0.194235,0.36291 0,0.24021 0.194226,0.43443 0.434454,0.43443 z m 1.477143,0.19934 c -0.143112,0 -0.270895,-0.082 -0.337339,-0.19934 h 0.669571 c -0.06133,0.11757 -0.189117,0.19934 -0.332232,0.19934 z m 0,-3.88454 c 0.107338,0 0.189118,0.082 0.20445,0.18406 -0.158446,-0.0252 -0.301565,-0.0154 -0.403786,0 0.01036,-0.10224 0.09199,-0.18406 0.199336,-0.18406 z m -1.098908,1.64582 c 0,-0.74114 0.460006,-1.02734 0.843348,-1.13466 l 0.01036,-0.005 c 0,0 0.107335,-0.0357 0.255562,-0.0357 0.07666,0 0.16356,0.011 0.25045,0.0357 h 0.0048 c 0.38334,0.10732 0.843353,0.39353 0.843353,1.13466 0,0.54182 0.07155,0.95069 0.209558,1.21648 h -2.63228 c 0.143114,-0.26068 0.214668,-0.66954 0.214668,-1.21136 z m -0.480456,1.52317 h 3.153618 c 0.02044,0.0256 0.03066,0.0511 0.03066,0.082 0,0.0713 -0.05622,0.12777 -0.127786,0.12777 h -2.954282 c -0.07155,0 -0.12778,-0.0559 -0.12778,-0.12777 0,-0.0309 0.01036,-0.0559 0.02555,-0.082 z"
         id="path4-3-1"
         style="fill:#d3dae3;fill-opacity:1;stroke-width:0.0511122" />
    </g>
    <g
       id="22-22-notifications-disabled">
      <rect
         ry="1.2988282e-06"
         y="291.17917"
         x="2.0799481e-08"
         height="5.8208332"
         width="5.8208332"
         id="rect1383"
         style="opacity:0.003;fill:#ff1f1f;fill-opacity:1;stroke:none;stroke-width:0.10795;stroke-miterlimit:4;stroke-dasharray:none;stroke-opacity:1" />
      <path
         d="m 1.4405016,295.83254 h 0.812683 c 0.08177,0.29647 0.352677,0.50602 0.66446,0.50602 0.311785,0 0.582681,-0.21466 0.66446,-0.50602 h 0.81268 c 0.240232,0 0.434458,-0.19422 0.434458,-0.43443 0,-0.14311 -0.07155,-0.28112 -0.194226,-0.36291 -0.117555,-0.082 -0.311787,-0.34757 -0.311787,-1.24204 0,-0.85869 -0.506009,-1.22154 -0.899574,-1.37487 0.0048,-0.0254 0.0048,-0.0463 0.0048,-0.0665 0,-0.28117 -0.230004,-0.51116 -0.511122,-0.51116 -0.281118,0 -0.51112,0.22999 -0.51112,0.51116 0,0.0202 0,0.0463 0.0048,0.0665 -0.393565,0.15333 -0.899575,0.51618 -0.899575,1.37487 0,0.89447 -0.194228,1.16025 -0.311787,1.24204 -0.122677,0.082 -0.1942349,0.2198 -0.1942349,0.36291 0,0.24021 0.1942259,0.43443 0.4344539,0.43443 z m 1.477143,0.19934 c -0.143112,0 -0.270895,-0.082 -0.337339,-0.19934 h 0.669571 c -0.06133,0.11757 -0.189117,0.19934 -0.332232,0.19934 z m 0,-3.88454 c 0.107338,0 0.189118,0.082 0.20445,0.18406 -0.158446,-0.0252 -0.301565,-0.0154 -0.403786,0 0.01036,-0.10224 0.09199,-0.18406 0.199336,-0.18406 z m -1.098908,1.64582 c 0,-0.74114 0.460006,-1.02734 0.843348,-1.13466 l 0.01036,-0.005 c 0,0 0.107335,-0.0357 0.255562,-0.0357 0.07666,0 0.16356,0.011 0.25045,0.0357 h 0.0048 c 0.38334,0.10732 0.843353,0.39353 0.843353,1.13466 0,0.54182 0.07155,0.95069 0.209558,1.21648 h -2.63228 c 0.143114,-0.26068 0.214668,-0.66954 0.214668,-1.21136 z m -0.480456,1.52317 h 3.153618 c 0.02044,0.0256 0.03066,0.0511 0.03066,0.082 0,0.0713 -0.05622,0.12777 -0.127786,0.12777 h -2.954282 c -0.07155,0 -0.12778,-0.0559 -0.12778,-0.12777 0,-0.0309 0.01036,-0.0559 0.02555,-0.082 z"
         id="path4-3"
         style="fill:#ff557f;fill-opacity:1;stroke-width:0.0511122" />
    </g>
    <g
       id="g1054">
      <g
         id="notifications"
         transform="translate(-8.4666664)">
        <rect
           ry="1.2988289e-06"
           y="282.71249"
           x="10.583333"
           height="8.4666662"
           width="8.4666662"
           id="rect891-7"
           style="opacity:0.003;fill:#050505;fill-opacity:1;stroke:none;stroke-width:0.10795;stroke-miterlimit:4;stroke-dasharray:none;stroke-opacity:1" />
      </g>
      <path
         d="m 4.1990805,289.52377 h 1.1710934 c 0.117793,0.42742 0.5082205,0.72935 0.9575085,0.72935 0.4492919,0 0.8396624,-0.30929 0.9575074,-0.72935 h 1.1710945 c 0.3461791,0 0.6260675,-0.27971 0.6260675,-0.62585 0,-0.2064 -0.1030489,-0.40516 -0.2798884,-0.52313 -0.1693985,-0.11876 -0.4492921,-0.50065 -0.4492921,-1.78963 0,-1.23749 -0.7291694,-1.76038 -1.2963084,-1.9812 0.0068,-0.0362 0.0068,-0.0673 0.0068,-0.0965 0,-0.40522 -0.3314439,-0.73664 -0.7365436,-0.73664 -0.4051015,0 -0.7365374,0.33142 -0.7365374,0.73664 0,0.0281 0,0.068 0.0068,0.0965 -0.567135,0.22082 -1.2963135,0.74371 -1.2963135,1.9812 0,1.28898 -0.2798886,1.67183 -0.449282,1.78963 -0.1767875,0.11896 -0.2799115,0.31673 -0.2799115,0.52313 0,0.34614 0.2798735,0.62585 0.6260646,0.62585 z m 2.1286019,0.28727 c -0.2062319,0 -0.3903685,-0.11884 -0.4861173,-0.28727 h 0.9648695 c -0.088321,0.1695 -0.2725214,0.28727 -0.4787522,0.28727 z m 0,-5.59765 c 0.1546794,0 0.2725274,0.11875 0.2946186,0.26543 -0.228328,-0.0371 -0.4345678,-0.0229 -0.5818702,0 0.014861,-0.14737 0.1325443,-0.26543 0.2872516,-0.26543 z m -1.583562,2.37177 c 0,-1.06799 0.6628838,-1.48051 1.2152906,-1.63514 l 0.01486,-0.005 c 0,0 0.1546744,-0.0507 0.3682763,-0.0507 0.1104209,0 0.2356911,0.0165 0.3609052,0.0507 h 0.0068 c 0.5524008,0.15471 1.2152957,0.56718 1.2152957,1.63515 0,0.78076 0.1030489,1.36997 0.3019817,1.75287 H 4.4344675 c 0.2062288,-0.37554 0.3093418,-0.96474 0.3093418,-1.74549 z m -0.6923523,2.19497 h 4.5444594 c 0.029441,0.0372 0.04416,0.0736 0.04416,0.11886 0,0.10168 -0.08096,0.18413 -0.1841416,0.18413 H 4.1990375 c -0.1030499,0 -0.1841367,-0.0802 -0.1841367,-0.18413 0,-0.0455 0.014861,-0.0796 0.0368,-0.11886 z"
         id="path4-3-7"
         style="fill:#d3dae3;fill-opacity:1;stroke-width:0.073654" />
    </g>
    <g
       id="notifications-disabled">
      <rect
         ry="1.2988289e-06"
         y="274.2334"
         x="2.1166668"
         height="8.4666662"
         width="8.4666662"
         id="rect891-7-2"
         style="opacity:0.003;fill:#050505;fill-opacity:1;stroke:none;stroke-width:0.10795;stroke-miterlimit:4;stroke-dasharray:none;stroke-opacity:1" />
      <path
         d="m 4.1990751,281.04468 h 1.171083 c 0.117792,0.42742 0.508216,0.72935 0.9575,0.72935 0.449288,0 0.839655,-0.30929 0.957499,-0.72935 h 1.171084 c 0.346176,0 0.626062,-0.27971 0.626062,-0.62585 0,-0.2064 -0.103048,-0.40516 -0.279886,-0.52313 -0.169397,-0.11876 -0.449288,-0.50065 -0.449288,-1.78963 0,-1.23749 -0.729163,-1.76038 -1.296297,-1.9812 0.0068,-0.0362 0.0068,-0.0673 0.0068,-0.0965 0,-0.40522 -0.33144,-0.73664 -0.736537,-0.73664 -0.405098,0 -0.736531,0.33142 -0.736531,0.73664 0,0.0281 0,0.068 0.0068,0.0965 -0.56713,0.22082 -1.296302,0.74371 -1.296302,1.9812 0,1.28898 -0.279886,1.67183 -0.449278,1.78963 -0.176786,0.11896 -0.279909,0.31673 -0.279909,0.52313 0,0.34614 0.279871,0.62585 0.626059,0.62585 z m 2.128583,0.28727 c -0.20623,0 -0.390365,-0.11884 -0.486113,-0.28727 h 0.964861 c -0.08832,0.1695 -0.272519,0.28727 -0.478748,0.28727 z m 0,-5.59765 c 0.154678,0 0.272525,0.11875 0.294616,0.26543 -0.228326,-0.0371 -0.434564,-0.0229 -0.581865,0 0.01486,-0.14737 0.132543,-0.26543 0.287249,-0.26543 z m -1.583548,2.37177 c 0,-1.06799 0.662878,-1.48051 1.21528,-1.63514 l 0.01486,-0.005 c 0,0 0.154673,-0.0507 0.368273,-0.0507 0.11042,0 0.235689,0.0165 0.360902,0.0507 h 0.0068 c 0.552396,0.15471 1.215285,0.56718 1.215285,1.63515 0,0.78076 0.103048,1.36997 0.301979,1.75287 h -3.793029 c 0.206227,-0.37554 0.309339,-0.96474 0.309339,-1.74549 z m -0.692346,2.19497 h 4.544419 c 0.02944,0.0372 0.04416,0.0736 0.04416,0.11886 0,0.0968 -0.073378,0.17617 -0.1694497,0.18357 -0.00484,3.7e-4 -0.00974,5.6e-4 -0.01469,5.6e-4 h -4.257171 c -0.103049,0 -0.184135,-0.0802 -0.184135,-0.18413 0,-0.0455 0.01486,-0.0796 0.0368,-0.11886 z"
         id="path4-3-7-3"
         style="fill:#ff557f;fill-opacity:1;stroke-width:0.0736537"
         sodipodi:nodetypes="ccscsscscssscscsscsccssccscccsccsccccccssssscc" />
    </g>
  </g>
</svg>
