<?xml version="1.0" encoding="UTF-8" standalone="no"?>
<svg
   xmlns:dc="http://purl.org/dc/elements/1.1/"
   xmlns:cc="http://creativecommons.org/ns#"
   xmlns:rdf="http://www.w3.org/1999/02/22-rdf-syntax-ns#"
   xmlns:svg="http://www.w3.org/2000/svg"
   xmlns="http://www.w3.org/2000/svg"
   xmlns:sodipodi="http://sodipodi.sourceforge.net/DTD/sodipodi-0.dtd"
   xmlns:inkscape="http://www.inkscape.org/namespaces/inkscape"
   width="5.8208332mm"
   height="5.8208332mm"
   viewBox="0 0 22 22"
   version="1.1"
   id="svg881"
   inkscape:version="1.0.2 (e86c870879, 2021-01-15)"
   sodipodi:docname="notification.svg">
  <defs
     id="defs875" />
  <sodipodi:namedview
     id="base"
     pagecolor="#ffffff"
     bordercolor="#666666"
     borderopacity="1.0"
     inkscape:pageopacity="0.0"
     inkscape:pageshadow="2"
     inkscape:zoom="2.828427"
     inkscape:cx="55.548143"
     inkscape:cy="-30.596364"
     inkscape:document-units="px"
     inkscape:current-layer="layer1"
     showgrid="false"
     inkscape:window-width="1920"
     inkscape:window-height="1007"
     inkscape:window-x="0"
     inkscape:window-y="0"
     inkscape:window-maximized="1"
     inkscape:lockguides="false"
     inkscape:document-rotation="0">
    <inkscape:grid
       type="xygrid"
       id="grid866"
       originx="0"
       originy="-40" />
  </sodipodi:namedview>
  <metadata
     id="metadata878">
    <rdf:RDF>
      <cc:Work
         rdf:about="">
        <dc:format>image/svg+xml</dc:format>
        <dc:type
           rdf:resource="http://purl.org/dc/dcmitype/StillImage" />
        <dc:title />
      </cc:Work>
    </rdf:RDF>
  </metadata>
  <g
     inkscape:label="Layer 1"
     inkscape:groupmode="layer"
     id="layer1"
     transform="translate(-209.82493,-726.24546)">
    <g
       id="notification-progress-active"
       transform="translate(248.82493,685.24546)">
      <path
         style="fill:none"
         inkscape:connector-curvature="0"
         id="empty-rectangle"
         d="M 1,1 H 23 V 23 H 1 Z" />
      <circle
         id="circle-blue"
         cx="12"
         cy="12"
         r="8"
         class="ColorScheme-ButtonFocus"
         style="fill:#008080;fill-opacity:1" />
    </g>
    <g
       id="notification-progress-inactive"
       transform="translate(248.82493,725.24546)">
      <path
         style="fill:none"
         inkscape:connector-curvature="0"
         id="path10"
         d="M 1,1 H 23 V 23 H 1 Z" />
      <circle
         id="circle-transparent"
         cx="12"
         cy="12"
         r="8"
         class="ColorScheme-Text"
         style="opacity:0.4;fill:#008080;fill-opacity:1" />
    </g>
    <path
       inkscape:connector-curvature="0"
       id="expander-bottom"
       d="m 191.82493,709.24546 2,-2 2,2 z"
       class="ColorScheme-Text"
       style="fill:#00cccc;fill-opacity:1" />
    <path
       inkscape:connector-curvature="0"
       id="expander-top"
       d="m 191.82493,703.24546 2,2 2,-2 z"
       class="ColorScheme-Text"
       style="fill:#00cccc;fill-opacity:1" />
    <path
       inkscape:connector-curvature="0"
       id="expander-right"
       d="m 196.82493,704.24546 -2,2 2,2 z"
       class="ColorScheme-Text"
       style="fill:#00cccc;fill-opacity:1" />
    <path
       inkscape:connector-curvature="0"
       id="expander-left"
       d="m 190.82493,704.24546 2,2 -2,2 z"
       class="ColorScheme-Text"
       style="fill:#00cccc;fill-opacity:1" />
    <g
       id="notification-empty"
       transform="translate(248.82493,645.24546)">
      <path
         style="fill:none"
         inkscape:connector-curvature="0"
         id="path31"
         d="M 1,1 H 23 V 23 H 1 Z" />
      <path
         inkscape:connector-curvature="0"
         id="circle-outline"
         d="m 12,4 a 8,8 0 0 0 -8,8 8,8 0 0 0 8,8 8,8 0 0 0 8,-8 8,8 0 0 0 -8,-8 z m 0,1 a 7,7 0 0 1 7,7 7,7 0 0 1 -7,7 7,7 0 0 1 -7,-7 7,7 0 0 1 7,-7 z"
         class="ColorScheme-Text"
         style="fill:#d3dae3;fill-opacity:1" />
    </g>
    <g
       id="notification-inactive">
      <path
         style="fill:none"
         inkscape:connector-curvature="0"
         d="m 209.82493,686.24546 h 22 v 22 h -22 z"
         id="path6" />
      <path
         d="m 215.16716,704.03296 h 3.07161 c 0.3091,1.12044 1.33295,1.9125 2.51134,1.9125 1.17839,0 2.20224,-0.81135 2.51135,-1.9125 h 3.07159 c 0.90795,0 1.64206,-0.73411 1.64206,-1.64206 0,-0.54089 -0.27045,-1.0625 -0.73411,-1.37159 -0.44428,-0.30911 -1.17839,-1.31359 -1.17839,-4.69429 0,-3.24545 -1.9125,-4.61706 -3.4,-5.19661 0.0192,-0.0968 0.0192,-0.17384 0.0192,-0.25116 0,-1.0625 -0.86929,-1.93179 -1.93179,-1.93179 -1.0625,0 -1.93179,0.86929 -1.93179,1.93179 0,0.0776 0,0.17392 0.0192,0.25116 -1.4875,0.57955 -3.4,1.95116 -3.4,5.19661 0,3.3807 -0.73411,4.38518 -1.17839,4.69429 -0.46367,0.30909 -0.73411,0.8307 -0.73411,1.37159 0,0.90795 0.73411,1.64206 1.64205,1.64206 z m 5.58295,0.75339 c -0.54089,0 -1.02384,-0.3091 -1.275,-0.75339 h 2.53071 c -0.23186,0.44429 -0.71482,0.75339 -1.25571,0.75339 z m 0,-14.68178 c 0.40571,0 0.71474,0.3091 0.77276,0.69544 -0.59891,-0.0968 -1.13982,-0.0576 -1.52615,0 0.0385,-0.38634 0.34768,-0.69544 0.75339,-0.69544 z m -4.15339,6.22045 c 0,-2.80117 1.73865,-3.88295 3.1875,-4.28867 l 0.0385,-0.0192 c 0,0 0.40563,-0.13526 0.96589,-0.13526 0.28974,0 0.61814,0.0385 0.94661,0.13526 h 0.0192 c 1.44883,0.40563 3.1875,1.4875 3.1875,4.28865 0,2.04768 0.27044,3.59313 0.79204,4.59768 h -9.94884 c 0.5409,-0.98518 0.81134,-2.5307 0.81134,-4.57838 z m -1.8159,5.75679 h 11.91929 c 0.0768,0.0968 0.11589,0.1932 0.11589,0.30909 0,0.27045 -0.2125,0.48295 -0.48295,0.48295 h -11.16589 c -0.27044,0 -0.48294,-0.2125 -0.48294,-0.48295 0,-0.11589 0.0385,-0.21249 0.0968,-0.30909 z"
         id="path4"
         style="fill:#d3dae3;fill-opacity:1;stroke-width:0.193179" />
    </g>
    <g
       id="notification-disabled">
      <path
         style="fill:none"
         inkscape:connector-curvature="0"
         d="m 209.82493,646.24546 h 22 v 22 h -22 z"
         id="path25" />
      <path
         d="m 215.16714,664.03296 h 3.07161 c 0.30911,1.12044 1.33295,1.9125 2.51134,1.9125 1.17839,0 2.20225,-0.81134 2.51134,-1.9125 h 3.0716 c 0.90795,0 1.64206,-0.73411 1.64206,-1.64206 0,-0.54089 -0.27045,-1.0625 -0.73411,-1.3716 -0.44428,-0.30911 -1.17839,-1.31357 -1.17839,-4.69428 0,-3.24545 -1.9125,-4.61706 -3.4,-5.19661 0.0192,-0.0969 0.0192,-0.17384 0.0192,-0.25117 0,-1.0625 -0.86928,-1.93178 -1.93178,-1.93178 -1.0625,0 -1.93178,0.86928 -1.93178,1.93178 0,0.0777 0,0.17394 0.0192,0.25117 -1.4875,0.57955 -3.4,1.95116 -3.4,5.19661 0,3.38071 -0.73411,4.38517 -1.17839,4.69428 -0.46367,0.3091 -0.73411,0.83071 -0.73411,1.3716 0,0.90795 0.73411,1.64206 1.64205,1.64206 z m 5.58295,0.75339 c -0.54089,0 -1.02384,-0.30911 -1.275,-0.75339 h 2.53072 c -0.23188,0.44428 -0.71483,0.75339 -1.25572,0.75339 z m 0,-14.68178 c 0.40572,0 0.71475,0.30911 0.77277,0.69544 -0.59893,-0.0969 -1.13983,-0.0575 -1.52616,0 0.0384,-0.38633 0.34767,-0.69544 0.75339,-0.69544 z m -4.15339,6.22045 c 0,-2.80117 1.73866,-3.88295 3.1875,-4.28867 l 0.0384,-0.0192 c 0,0 0.40562,-0.13527 0.96589,-0.13527 0.28973,0 0.61812,0.0384 0.94661,0.13527 h 0.0192 c 1.44883,0.40562 3.1875,1.4875 3.1875,4.28866 0,2.04767 0.27044,3.59312 0.79205,4.59767 h -9.94886 c 0.54092,-0.98517 0.81136,-2.53071 0.81136,-4.57838 z m -1.81589,5.75678 h 11.91928 c 0.0767,0.0969 0.11589,0.19321 0.11589,0.3091 0,0.27045 -0.2125,0.48295 -0.48295,0.48295 h -11.16589 c -0.27044,0 -0.48294,-0.2125 -0.48294,-0.48295 0,-0.11589 0.0384,-0.21249 0.0969,-0.3091 z"
         id="path4-3"
         style="fill:#ff557f;fill-opacity:1;stroke-width:0.193178" />
    </g>
    <g
       id="notification-active">
      <g
         id="g867">
        <path
           style="fill:none"
           inkscape:connector-curvature="0"
           d="m 209.82493,726.24546 h 22 v 22 h -22 z"
           id="path14" />
        <path
           d="m 215.26714,744.03296 h 3.07161 c 0.30911,1.12044 1.33295,1.9125 2.51134,1.9125 1.17839,0 2.20225,-0.81134 2.51134,-1.9125 h 3.0716 c 0.90795,0 1.64206,-0.73411 1.64206,-1.64206 0,-0.54089 -0.27045,-1.0625 -0.73411,-1.3716 -0.44428,-0.30911 -1.17839,-1.31357 -1.17839,-4.69428 0,-3.24545 -1.9125,-4.61706 -3.4,-5.19661 0.0192,-0.0969 0.0192,-0.17384 0.0192,-0.25117 0,-1.0625 -0.86928,-1.93178 -1.93178,-1.93178 -1.0625,0 -1.93178,0.86928 -1.93178,1.93178 0,0.0777 0,0.17394 0.0192,0.25117 -1.4875,0.57955 -3.4,1.95116 -3.4,5.19661 0,3.38071 -0.73411,4.38517 -1.17839,4.69428 -0.46367,0.3091 -0.73411,0.83071 -0.73411,1.3716 0,0.90795 0.73411,1.64206 1.64205,1.64206 z m 5.58295,0.75339 c -0.54089,0 -1.02384,-0.30911 -1.275,-0.75339 h 2.53072 c -0.23188,0.44428 -0.71483,0.75339 -1.25572,0.75339 z m 0,-14.68178 c 0.40572,0 0.71475,0.30911 0.77277,0.69544 -0.59893,-0.0969 -1.13983,-0.0575 -1.52616,0 0.0384,-0.38633 0.34767,-0.69544 0.75339,-0.69544 z m -4.15339,6.22045 c 0,-2.80117 1.73866,-3.88295 3.1875,-4.28867 l 0.0384,-0.0192 c 0,0 0.40562,-0.13527 0.96589,-0.13527 0.28973,0 0.61812,0.0384 0.94661,0.13527 h 0.0192 c 1.44883,0.40562 3.1875,1.4875 3.1875,4.28866 0,2.04767 0.27044,3.59312 0.79205,4.59767 h -9.94886 c 0.54092,-0.98517 0.81136,-2.53071 0.81136,-4.57838 z m -1.81589,5.75678 h 11.91928 c 0.0767,0.0969 0.11589,0.19321 0.11589,0.3091 0,0.27045 -0.2125,0.48295 -0.48295,0.48295 h -11.16589 c -0.27044,0 -0.48294,-0.2125 -0.48294,-0.48295 0,-0.11589 0.0384,-0.21249 0.0969,-0.3091 z"
           id="path4-6"
           style="fill:#d3dae3;fill-opacity:1;stroke-width:0.193178" />
        <path
           style="fill:#00cccc;fill-opacity:1;fill-rule:evenodd;stroke-width:1.336"
           id="path16"
           class="ColorScheme-Text"
           d="m 213.25879,728.08946 c -2.00479,2.00299 -3.13204,4.72017 -3.13386,7.5541 h 1.336 c 8.2e-4,-1.12721 0.20512,-2.23328 0.59253,-3.26914 0.46479,-1.24278 1.19317,-2.38447 2.14993,-3.34027 z m 15.10829,0 -0.9446,0.94469 c 1.75421,1.75245 2.74066,4.12981 2.74245,6.60941 h 1.336 c -0.002,-2.83393 -1.12906,-5.55111 -3.13385,-7.5541 z m -1.8918,1.89207 -0.94721,0.94669 c 1.25381,1.2494 1.96049,2.94531 1.96486,4.71534 h 1.336 c -0.001,-0.80062 -0.12214,-1.58872 -0.35289,-2.34036 -0.38162,-1.24305 -1.06354,-2.38635 -2.00076,-3.32167 z m -11.31947,0.004 c -0.5465,0.54436 -1.00643,1.15944 -1.37085,1.82377 -0.63896,1.16481 -0.98434,2.48115 -0.98803,3.83361 h 1.336 c 0.002,-1.77105 0.70649,-3.46896 1.95964,-4.72048 z"
           inkscape:connector-curvature="0"
           sodipodi:nodetypes="cccscccccccccccsccscccc" />
      </g>
    </g>
  </g>
</svg>
