<?xml version="1.0" encoding="UTF-8" standalone="no"?>
<svg
   xmlns:dc="http://purl.org/dc/elements/1.1/"
   xmlns:cc="http://creativecommons.org/ns#"
   xmlns:rdf="http://www.w3.org/1999/02/22-rdf-syntax-ns#"
   xmlns:svg="http://www.w3.org/2000/svg"
   xmlns="http://www.w3.org/2000/svg"
   xmlns:xlink="http://www.w3.org/1999/xlink"
   xmlns:sodipodi="http://sodipodi.sourceforge.net/DTD/sodipodi-0.dtd"
   xmlns:inkscape="http://www.inkscape.org/namespaces/inkscape"
   id="svg12"
   width="32"
   height="32"
   version="1.1"
   sodipodi:docname="start.svg"
   inkscape:version="1.0.1 (3bc2e813f5, 2020-09-07)">
  <g
     id="22-22-start-here-kde"
     transform="translate(-22,10)">
    <rect
       id="rect2"
       style="opacity:0.00100002"
       width="22"
       height="22"
       x="0"
       y="0" />
    <path
       d="m 14.048767,3.3336261 v 4.666526 c 0,0.183995 -0.136151,0.333324 -0.303918,0.333324 H 8.343206 c -0.378039,0 -0.431321,-0.02105 -0.431321,0.333324 v 9.9997059 c 0,0.183996 -0.0038,0.333324 -0.170664,0.333324 H 2.803919 C 2.636153,18.99983 2.5,18.850502 2.5,18.666506 V 3.4003101 c 0,-0.183995 0.136153,-0.400009 0.303919,-0.400009 h 10.94093 c 0.167767,0 0.303918,0.149327 0.303918,0.333325 z m -0.607828,4.333205 V 3.6669431 H 3.107828 V 18.333183 h 4.196068 l 0.008,-9.2997549 c 0.0021,-1.560215 -0.160064,-1.366597 1.577426,-1.366597 z"
       id="path2-2"
       sodipodi:nodetypes="ssssssssssssscccccssc"
       style="fill:url(#linearGradient848-3);fill-opacity:1;stroke-width:0.636558" />
    <path
       class="fil0"
       d="m 14.020514,10.504067 v 8.495868 H 12.533184 10.408429 8.89986 V 9.7004271 c 0,0 0.67991,-0.0116 1.508569,-0.0116 h 3.589047 c 0,0 0.02309,0.3726869 0.02309,0.8152519 z m -0.610085,0 v 7.709944 0.169582 H 9.47918 v -0.169582 l 6.69e-4,-7.880552 h 0.928441 3.002139 l -6.7e-4,0.170612 z"
       id="path6-9"
       style="fill:url(#linearGradient866);fill-opacity:1.0;fill-rule:evenodd;stroke-width:0.0157313;image-rendering:optimizeQuality;shape-rendering:geometricPrecision;text-rendering:geometricPrecision"
       sodipodi:nodetypes="scssccscssscccscsccs" />
    <path
       class="fil0"
       d="M 19.499797,4.4077081 V 18.734837 c 0,0.170755 -0.18576,0.265113 -0.42183,0.265113 h -4.103804 c 0,0 -0.0173,-0.645866 -0.0173,-1.421769 V 4.4077081 c 0,-0.755998 0.0043,-1.399807 0.0043,-1.399807 l 4.126429,-0.0079 c 0.249839,-4.43e-4 0.414769,0.13182 0.412784,0.271759 z m -0.661475,-0.05735 -0.008,13.9827669 H 18.168135 15.632572 L 15.632273,17.57825 V 4.4077141 c 0,-0.378003 3.29e-4,-0.740501 3.29e-4,-0.740501 h 3.199404 v 0 z"
       id="path6-7-1"
       style="fill:url(#linearGradient857-6);fill-opacity:1;fill-rule:evenodd;stroke-width:0.0193318;image-rendering:optimizeQuality;shape-rendering:geometricPrecision;text-rendering:geometricPrecision"
       sodipodi:nodetypes="ssscsscsssscsccscccs" />
  </g>
  <metadata
     id="metadata19">
    <rdf:RDF>
      <cc:Work
         rdf:about="">
        <dc:format>image/svg+xml</dc:format>
        <dc:type
           rdf:resource="http://purl.org/dc/dcmitype/StillImage" />
        <dc:title />
      </cc:Work>
    </rdf:RDF>
  </metadata>
  <defs
     id="g17">
    <linearGradient
       inkscape:collect="always"
       id="linearGradient855">
      <stop
         style="stop-color:#00cccc;stop-opacity:1"
         offset="0"
         id="stop851" />
      <stop
         style="stop-color:#00e5e5;stop-opacity:1"
         offset="1"
         id="stop853" />
    </linearGradient>
    <linearGradient
       inkscape:collect="always"
       id="linearGradient846">
      <stop
         style="stop-color:#009999;stop-opacity:1"
         offset="0"
         id="stop842" />
      <stop
         style="stop-color:#00e5e5;stop-opacity:1"
         offset="1"
         id="stop844" />
    </linearGradient>
    <linearGradient
       inkscape:collect="always"
       xlink:href="#linearGradient846"
       id="linearGradient848"
       x1="3.3"
       y1="15.999909"
       x2="20.623528"
       y2="15.999909"
       gradientUnits="userSpaceOnUse" />
    <linearGradient
       inkscape:collect="always"
       xlink:href="#linearGradient855"
       id="linearGradient857"
       x1="23.300999"
       y1="16.000113"
       x2="28.800251"
       y2="16.000113"
       gradientUnits="userSpaceOnUse"
       gradientTransform="matrix(1.2392036,0,0,1,-6.889124,0)" />
    <linearGradient
       inkscape:collect="always"
       xlink:href="#linearGradient846"
       id="linearGradient848-3"
       x1="3.3"
       y1="15.999909"
       x2="20.623528"
       y2="15.999909"
       gradientUnits="userSpaceOnUse"
       gradientTransform="matrix(0.66665215,0,0,0.66665215,0.300051,0.33369214)" />
    <linearGradient
       inkscape:collect="always"
       xlink:href="#linearGradient855"
       id="linearGradient857-6"
       x1="23.300999"
       y1="16.000113"
       x2="28.800251"
       y2="16.000113"
       gradientUnits="userSpaceOnUse"
       gradientTransform="matrix(0.8261179,0,0,0.66665215,-4.292601,0.33369214)" />
    <linearGradient
       inkscape:collect="always"
       xlink:href="#linearGradient855"
       id="linearGradient858"
       x1="12.9"
       y1="21.016487"
       x2="20.581148"
       y2="21.016487"
       gradientUnits="userSpaceOnUse" />
    <linearGradient
       inkscape:collect="always"
       xlink:href="#linearGradient855"
       id="linearGradient866"
       x1="8.8998604"
       y1="14.344381"
       x2="14.020566"
       y2="14.344381"
       gradientUnits="userSpaceOnUse" />
  </defs>
  <sodipodi:namedview
     pagecolor="#ffffff"
     bordercolor="#666666"
     borderopacity="1"
     objecttolerance="10"
     gridtolerance="10"
     guidetolerance="10"
     inkscape:pageopacity="0"
     inkscape:pageshadow="2"
     inkscape:window-width="1920"
     inkscape:window-height="1016"
     id="namedview15"
     showgrid="false"
     inkscape:zoom="11.313709"
     inkscape:cx="20.500319"
     inkscape:cy="18.493141"
     inkscape:window-x="0"
     inkscape:window-y="0"
     inkscape:window-maximized="1"
     inkscape:current-layer="svg12"
     inkscape:document-rotation="0"
     inkscape:lockguides="false">
    <inkscape:grid
       type="xygrid"
       id="grid1122"
       originx="0"
       originy="0" />
  </sodipodi:namedview>
  <g
     id="g16"
     transform="matrix(0.046875,0,0,0.046875,-59.692605,-9.860676)">
    <g
       id="g882" />
  </g>
  <g
     id="start-here-kde">
    <rect
       id="rect7"
       style="opacity:0.00100002"
       width="32"
       height="32"
       x="0"
       y="0" />
    <path
       d="m 20.623528,4.499996 v 6.999947 c 0,0.275998 -0.204235,0.499996 -0.455882,0.499996 H 12.065 c -0.567074,0 -0.647,-0.03159 -0.647,0.499997 v 14.999887 c 0,0.275998 -0.0044,0.499996 -0.256,0.499996 H 3.755882 C 3.504235,27.999819 3.3,27.775821 3.3,27.499823 V 4.600025 C 3.3,4.324027 3.504235,4 3.755882,4 h 16.411764 c 0.251647,0 0.455882,0.223998 0.455882,0.499996 z m -0.911764,6.499951 V 4.999992 H 4.211765 V 26.999826 H 10.506 l 0.01281,-13.949935 c 0.0021,-2.340374 -0.240104,-2.049944 2.366191,-2.049944 z"
       id="path2"
       sodipodi:nodetypes="ssssssssssssscccccssc"
       style="fill:url(#linearGradient848);fill-opacity:1;stroke-width:0.95486" />
    <path
       class="fil0"
       d="M 20.581149,15.255897 V 27.999976 H 18.350107 15.162905 12.9 V 14.05041 c 0,0 1.019896,-0.01741 2.262905,-0.01741 h 5.383685 c 0,0 0.03451,0.559041 0.03451,1.222903 z m -0.915149,0 v 11.565169 0.254379 H 13.769 V 26.821066 L 13.77,14.999978 h 1.3927 4.5033 l -0.001,0.255925 z"
       id="path6"
       style="fill:url(#linearGradient858);fill-opacity:1.0;fill-rule:evenodd;stroke-width:0.0235967;image-rendering:optimizeQuality;shape-rendering:geometricPrecision;text-rendering:geometricPrecision"
       sodipodi:nodetypes="scssccscssscccscsccs" />
    <path
       class="fil0"
       d="M 28.80025,6.111167 V 27.60232 c 0,0.256141 -0.278647,0.397679 -0.632746,0.397679 h -6.155849 c 0,0 -0.0261,-0.96882 -0.0261,-2.132701 V 6.111169 c 0,-1.134037 0.0057,-2.09977 0.0057,-2.09977 l 6.18978,-0.01117 c 0.374764,-6.75e-4 0.62217,0.197738 0.619187,0.407662 z m -0.992234,-0.08615 -0.01128,20.974604 H 26.803433 23 l -4.97e-4,-1.132322 V 6.111165 C 22.999503,5.544145 23,5.000375 23,5.000375 h 4.799214 v 0 z"
       id="path6-7"
       style="fill:url(#linearGradient857);fill-opacity:1;fill-rule:evenodd;stroke-width:0.0289976;image-rendering:optimizeQuality;shape-rendering:geometricPrecision;text-rendering:geometricPrecision"
       sodipodi:nodetypes="ssscsscsssscsccscccs" />
  </g>
</svg>
