<?xml version="1.0" encoding="UTF-8" standalone="no"?>
<svg
   xmlns:dc="http://purl.org/dc/elements/1.1/"
   xmlns:cc="http://creativecommons.org/ns#"
   xmlns:rdf="http://www.w3.org/1999/02/22-rdf-syntax-ns#"
   xmlns:svg="http://www.w3.org/2000/svg"
   xmlns="http://www.w3.org/2000/svg"
   xmlns:xlink="http://www.w3.org/1999/xlink"
   xmlns:sodipodi="http://sodipodi.sourceforge.net/DTD/sodipodi-0.dtd"
   xmlns:inkscape="http://www.inkscape.org/namespaces/inkscape"
   width="136"
   height="136"
   viewBox="0 0 35.983333 35.983334"
   id="svg2"
   version="1.1"
   inkscape:version="1.0.1 (3bc2e813f5, 2020-09-07)"
   sodipodi:docname="busywidget.svg">
  <defs
     id="defs4">
    <linearGradient
       inkscape:collect="always"
       id="linearGradient869">
      <stop
         style="stop-color:#008080;stop-opacity:1"
         offset="0"
         id="stop865" />
      <stop
         style="stop-color:#00ffff;stop-opacity:1"
         offset="1"
         id="stop867" />
    </linearGradient>
    <style
       type="text/css"
       id="current-color-scheme">
      </style>
    <linearGradient
       inkscape:collect="always"
       xlink:href="#linearGradient869"
       id="linearGradient879"
       x1="146"
       y1="68"
       x2="263.125"
       y2="68"
       gradientUnits="userSpaceOnUse"
       gradientTransform="matrix(0.26458334,0,0,0.26458334,-37.306251,249.37498)" />
    <linearGradient
       inkscape:collect="always"
       xlink:href="#linearGradient869"
       id="linearGradient887"
       x1="197"
       y1="125.00002"
       x2="215.3297"
       y2="125.00002"
       gradientUnits="userSpaceOnUse" />
    <linearGradient
       inkscape:collect="always"
       xlink:href="#linearGradient869"
       id="linearGradient895"
       x1="58.737499"
       y1="283.23718"
       x2="62.14006"
       y2="283.23718"
       gradientUnits="userSpaceOnUse" />
  </defs>
  <sodipodi:namedview
     id="base"
     pagecolor="#ffffff"
     bordercolor="#000000"
     borderopacity="1"
     inkscape:pageopacity="0"
     inkscape:pageshadow="2"
     inkscape:zoom="1.3658089"
     inkscape:cx="164.98945"
     inkscape:cy="45.094197"
     inkscape:document-units="px"
     inkscape:current-layer="layer1"
     showgrid="false"
     units="px"
     inkscape:showpageshadow="false"
     borderlayer="true"
     inkscape:window-width="1920"
     inkscape:window-height="1007"
     inkscape:window-x="0"
     inkscape:window-y="0"
     inkscape:window-maximized="1"
     fit-margin-top="0"
     fit-margin-left="0"
     fit-margin-right="0"
     fit-margin-bottom="0"
     inkscape:document-rotation="0"
     showguides="false">
    <inkscape:grid
       type="xygrid"
       id="grid4160"
       empspacing="2"
       originx="0"
       originy="0"
       visible="true"
       enabled="true"
       snapvisiblegridlinesonly="true"
       spacingx="1"
       spacingy="1" />
    <sodipodi:guide
       position="-5.8455811e-08,35.983344"
       orientation="136.00001,0"
       id="guide4155" />
    <sodipodi:guide
       position="-5.8455811e-08,6.6152344e-06"
       orientation="0,136"
       id="guide4157" />
    <sodipodi:guide
       position="35.983333,6.6152344e-06"
       orientation="-136.00001,0"
       id="guide4159" />
    <sodipodi:guide
       position="35.983333,35.983344"
       orientation="0,-136"
       id="guide4161" />
    <sodipodi:guide
       position="1.1488343e-09,17.991675"
       orientation="68.000007,0"
       id="guide4165" />
    <sodipodi:guide
       position="1.1488343e-09,6.6152344e-06"
       orientation="0,67.999998"
       id="guide4167" />
    <sodipodi:guide
       position="17.991666,6.6152344e-06"
       orientation="-68.000007,0"
       id="guide4169" />
    <sodipodi:guide
       position="17.991666,17.991675"
       orientation="0,-67.999998"
       id="guide4171" />
    <sodipodi:guide
       position="1.8520831,34.131232"
       orientation="122.00003,0"
       id="guide4199" />
    <sodipodi:guide
       position="1.8520831,1.8520574"
       orientation="0,121.99999"
       id="guide4201" />
    <sodipodi:guide
       position="34.131248,1.8520574"
       orientation="-122.00003,0"
       id="guide4203" />
    <sodipodi:guide
       position="34.131248,34.131232"
       orientation="0,-121.99999"
       id="guide4205" />
  </sodipodi:namedview>
  <metadata
     id="metadata7">
    <rdf:RDF>
      <cc:Work
         rdf:about="">
        <dc:format>image/svg+xml</dc:format>
        <dc:type
           rdf:resource="http://purl.org/dc/dcmitype/StillImage" />
        <dc:title />
      </cc:Work>
    </rdf:RDF>
  </metadata>
  <g
     inkscape:label="Capa 1"
     inkscape:groupmode="layer"
     id="layer1"
     transform="translate(0.52916664,-249.37498)">
    <g
       id="stopped">
      <rect
         style="opacity:1;fill:none;fill-opacity:1;stroke:none;stroke-width:0.0264583;stroke-linecap:square;stroke-linejoin:miter;stroke-miterlimit:4;stroke-dasharray:none;stroke-dashoffset:0;stroke-opacity:1"
         id="rect4234"
         width="35.983334"
         height="35.983334"
         x="-42.862503"
         y="249.37497" />
      <ellipse
         ry="1.3229166"
         rx="1.322917"
         cy="38.364582"
         cx="267.36664"
         id="ellipse4238"
         style="opacity:0.9;fill:#008080;fill-opacity:1;stroke:none;stroke-width:0.0132292;stroke-linecap:square;stroke-linejoin:miter;stroke-miterlimit:4;stroke-dasharray:none;stroke-dashoffset:0;stroke-opacity:1"
         transform="rotate(90)" />
      <ellipse
         transform="rotate(90)"
         style="opacity:0.9;fill:#008080;fill-opacity:1;stroke:none;stroke-width:0.0105833;stroke-linecap:square;stroke-linejoin:miter;stroke-miterlimit:4;stroke-dasharray:none;stroke-dashoffset:0;stroke-opacity:1"
         id="ellipse4261"
         cx="267.36664"
         cy="11.377067"
         rx="1.0583339"
         ry="1.0583336" />
      <ellipse
         ry="2.1166663"
         rx="2.116667"
         cy="24.870825"
         cx="267.36664"
         id="ellipse4263"
         style="opacity:0.9;fill:#008080;fill-opacity:1;stroke:none;stroke-width:0.0211667;stroke-linecap:square;stroke-linejoin:miter;stroke-miterlimit:4;stroke-dasharray:none;stroke-dashoffset:0;stroke-opacity:1"
         transform="rotate(90)" />
    </g>
    <rect
       style="opacity:0.01;fill:#00cccc;fill-opacity:1;fill-rule:nonzero;stroke:none;stroke-width:0.264583"
       id="hint-rotation-angle"
       width="3.7041671"
       height="3.7041693"
       x="-0.52916706"
       y="285.35831" />
    <g
       id="22-22-busywidget">
      <rect
         y="279.53748"
         x="51.329166"
         height="5.8208337"
         width="5.8208337"
         id="rect3007"
         style="fill:none;stroke:none" />
      <path
         sodipodi:nodetypes="sccccccccccccccccsssss"
         inkscape:connector-curvature="0"
         id="path3009"
         transform="matrix(0.26458334,0,0,0.26458334,-0.52916714,249.37498)"
         d="m 206.90625,115 c -5.68285,0 -9.90626,4.76331 -9.90625,10 0,5.11064 3.86041,9.24196 8.53125,9.90625 0.007,0.001 0.0245,-0.001 0.0313,0 0.1869,0.0265 0.37435,0.0459 0.5625,0.0625 0.0726,0.008 0.11478,-0.004 0.1875,0 h 0.0313 c 0.0253,0.002 0.0371,0 0.0625,0 0.16207,0.008 0.3377,0.0313 0.5,0.0313 0.0253,-1.1e-4 0.0373,0 0.0625,0 0.22673,-0.003 0.46154,-0.0123 0.6875,-0.0313 0.0336,-0.003 0.06,0.002 0.0937,0 2.08268,-0.2143 4.08105,-1.19024 5.5625,-2.6875 2.29078,-2.85585 2.42433,-5.2927 1.42433,-9.29269 1.22819,5.24703 -2.45297,9.87167 -7.86188,10.0102 -4.24948,0 -7.87455,-3.58819 -7.87457,-7.99871 0.0682,-4.85133 3.99957,-7.98861 7.93707,-8.00652 h 0.15625 c 0.16789,0 0.31534,-0.15426 0.3125,-0.32394 -0.006,-0.3677 -0.0216,-0.97956 -0.0313,-1.32579 C 207.36994,115.1624 207.24222,115 207.0625,115 Z"
         style="fill:url(#linearGradient887);fill-opacity:1;stroke:none"
         class="ColorScheme-ButtonFocus" />
    </g>
    <g
       id="16-16-busywidget">
      <rect
         style="fill:none;stroke:none"
         id="rect3792"
         width="4.2333336"
         height="4.2333336"
         x="58.472801"
         y="281.12497" />
      <path
         style="fill:url(#linearGradient895);fill-opacity:1;stroke:none"
         d="m 60.57642,281.3808 c -1.05492,0 -1.838921,0.88423 -1.838919,1.85633 0,0.9487 0.716617,1.71561 1.583674,1.83892 0.0013,1.8e-4 0.0045,-1.8e-4 0.0058,0 0.03469,0.005 0.06949,0.008 0.104418,0.0115 0.01348,9.5e-4 0.02132,-7.1e-4 0.03481,0 h 0.0058 c 0.0047,3.7e-4 0.0068,0 0.0116,0 0.03009,9.5e-4 0.06269,0.006 0.09281,0.006 0.0047,-10e-6 0.007,0 0.01161,0 0.04209,-5.5e-4 0.08568,-0.002 0.127622,-0.006 0.0062,-5.5e-4 0.01115,3.7e-4 0.01739,0 0.386612,-0.0397 0.757573,-0.22096 1.032578,-0.49889 0.425244,-0.53014 0.450034,-0.98249 0.264402,-1.72502 0.227992,0.97402 -0.455349,1.8325 -1.459418,1.85821 -0.788838,0 -1.461768,-0.66608 -1.461773,-1.48481 0.01267,-0.90056 0.74245,-1.48294 1.473376,-1.48626 h 0.029 c 0.03117,0 0.05855,-0.0288 0.05801,-0.0601 -0.0011,-0.0683 -0.0039,-0.18183 -0.0058,-0.2461 -9.11e-4,-0.0337 -0.02464,-0.0638 -0.058,-0.0638 z"
         id="path3794"
         inkscape:connector-curvature="0"
         sodipodi:nodetypes="sccccccccccccccccsssss"
         class="ColorScheme-ButtonFocus" />
    </g>
    <g
       id="busywidget">
      <rect
         style="fill:none;stroke:none"
         id="rect3016"
         width="35.983334"
         height="35.983334"
         x="-0.52916682"
         y="249.37498" />
      <path
         inkscape:connector-curvature="0"
         class="ColorScheme-ButtonFocus"
         id="path3018"
         d="m 17.4625,251.22706 a 16.139583,16.139587 0 0 0 -16.1395834,16.13959 16.139583,16.139587 0 0 0 13.8906254,15.96595 16.139583,16.139587 0 0 0 0.01654,0 16.139583,16.139587 0 0 0 0.03307,0.008 16.139583,16.139587 0 0 0 0.917774,0.10749 16.139583,16.139587 0 0 0 0.355534,0.0248 16.139583,16.139587 0 0 0 0.0083,0 c 0.0415,0.002 0.0825,0.006 0.124024,0.008 a 16.139583,16.139587 0 0 0 0.793736,0.0248 c 0.04118,-1.9e-4 0.08285,-0.008 0.124024,-0.008 a 16.139583,16.139587 0 0 0 1.107943,-0.0579 c 0.05514,-0.005 0.110288,-0.003 0.165364,-0.008 3.396835,-0.34547 6.670546,-1.88325 9.086784,-4.29948 2.761414,-2.76141 4.365623,-6.64503 4.365625,-10.55026 0,-1.46446 -0.224978,-2.92437 -0.65319,-4.32428 a 14.552081,14.552085 0 0 1 0.355534,3.10888 A 14.552081,14.552085 0 0 1 17.4625,281.91873 14.552081,14.552084 0 0 1 2.9104167,267.36665 14.552081,14.552084 0 0 1 3.5636068,263.06717 14.552081,14.552084 0 0 1 17.4625,252.81456 h 0.264584 c 0.293155,0 0.529166,-0.23601 0.529166,-0.52916 v -0.52917 c 0,-0.29315 -0.236011,-0.52917 -0.529166,-0.52917 z"
         style="fill:url(#linearGradient879);fill-opacity:1;stroke:none;stroke-width:0.264583" />
      <path
         id="path4"
         d="m 20.82436,267.32011 c 0,1.82097 -1.476948,3.2983 -3.298328,3.2983 -1.821967,0 -3.298328,-1.47733 -3.298328,-3.2983 0,-1.82174 1.476361,-3.29859 3.298328,-3.29859 1.82138,0 3.298328,1.47686 3.298328,3.29859"
         style="fill:#00cccc;fill-opacity:1;stroke-width:0.0773068" />
    </g>
  </g>
</svg>
